<svg width="24" height="24" viewBox="0 0 24 24" fill="none" xmlns="http://www.w3.org/2000/svg">
<path d="M17 10.75H15.75V7C15.75 6.00544 15.3549 5.05161 14.6517 4.34835C13.9484 3.64509 12.9946 3.25 12 3.25C11.0054 3.25 10.0516 3.64509 9.34835 4.34835C8.64509 5.05161 8.25 6.00544 8.25 7V10.75H7C6.66848 10.75 6.35054 10.8817 6.11612 11.1161C5.8817 11.3505 5.75 11.6685 5.75 12V19.5C5.75 19.8315 5.8817 20.1495 6.11612 20.3839C6.35054 20.6183 6.66848 20.75 7 20.75H17C17.3315 20.75 17.6495 20.6183 17.8839 20.3839C18.1183 20.1495 18.25 19.8315 18.25 19.5V12C18.25 11.6685 18.1183 11.3505 17.8839 11.1161C17.6495 10.8817 17.3315 10.75 17 10.75ZM9.5 7C9.5 6.33696 9.76339 5.70107 10.2322 5.23223C10.7011 4.76339 11.337 4.5 12 4.5C12.663 4.5 13.2989 4.76339 13.7678 5.23223C14.2366 5.70107 14.5 6.33696 14.5 7V10.75H9.5V7ZM17 19.5H7V12H17V19.5Z" fill="#454561"/>
</svg>
