<svg width="24" height="24" viewBox="0 0 24 24" fill="none" xmlns="http://www.w3.org/2000/svg">
<path d="M5.27522 16.0688L6.16897 15.1812C5.19036 14.3026 4.42146 13.2154 3.91897 12C5.18772 8.83125 8.68772 6.375 12.0002 6.375C12.8527 6.38625 13.6974 6.5383 14.5002 6.825L15.469 5.85C14.3706 5.38583 13.1925 5.13959 12.0002 5.125C9.96305 5.20161 7.99296 5.87347 6.33347 7.05755C4.67398 8.24164 3.39782 9.88603 2.66272 11.7875C2.61308 11.9248 2.61308 12.0752 2.66272 12.2125C3.21788 13.6856 4.11299 15.0069 5.27522 16.0688Z" fill="#454561"/>
<path d="M9.5 11.8312C9.54346 11.2323 9.80106 10.669 10.2257 10.2444C10.6503 9.81981 11.2136 9.56221 11.8125 9.51875L12.9438 8.38125C12.3099 8.21434 11.6433 8.21651 11.0105 8.38754C10.3777 8.55857 9.80076 8.89248 9.33725 9.356C8.87373 9.81951 8.53982 10.3964 8.36879 11.0292C8.19776 11.662 8.19559 12.3286 8.3625 12.9625L9.5 11.8312ZM21.3375 11.7875C20.6208 9.92075 19.3738 8.30439 17.75 7.1375L20.75 4.13125L19.8687 3.25L3.25 19.8687L4.13125 20.75L7.31875 17.5625C8.73992 18.3963 10.3525 18.8484 12 18.875C14.0372 18.7984 16.0073 18.1265 17.6667 16.9424C19.3262 15.7584 20.6024 14.114 21.3375 12.2125C21.3871 12.0752 21.3871 11.9248 21.3375 11.7875ZM14.5 12C14.4974 12.4376 14.3799 12.8668 14.1594 13.2447C13.9389 13.6227 13.6231 13.9361 13.2435 14.1538C12.8639 14.3714 12.4338 14.4856 11.9962 14.485C11.5587 14.4843 11.1289 14.3688 10.75 14.15L14.15 10.75C14.3747 11.1286 14.4954 11.5598 14.5 12ZM12 17.625C10.6888 17.6021 9.40243 17.2634 8.25 16.6375L9.8375 15.05C10.5596 15.551 11.4347 15.7825 12.3101 15.704C13.1855 15.6256 14.0055 15.2421 14.6269 14.6207C15.2484 13.9992 15.6318 13.1792 15.7103 12.3038C15.7888 11.4285 15.5573 10.5533 15.0562 9.83125L16.85 8.0375C18.2841 9.02186 19.4056 10.3971 20.0812 12C18.8125 15.1687 15.3125 17.625 12 17.625Z" fill="#454561"/>
</svg>
