<svg width="24" height="24" viewBox="0 0 24 24" fill="none" xmlns="http://www.w3.org/2000/svg">
<path d="M21.3377 11.7875C20.6026 9.88603 19.3265 8.24164 17.667 7.05755C16.0075 5.87347 14.0374 5.20161 12.0002 5.125C9.96305 5.20161 7.99296 5.87347 6.33347 7.05755C4.67398 8.24164 3.39782 9.88603 2.66272 11.7875C2.61308 11.9248 2.61308 12.0752 2.66272 12.2125C3.39782 14.114 4.67398 15.7584 6.33347 16.9424C7.99296 18.1265 9.96305 18.7984 12.0002 18.875C14.0374 18.7984 16.0075 18.1265 17.667 16.9424C19.3265 15.7584 20.6026 14.114 21.3377 12.2125C21.3874 12.0752 21.3874 11.9248 21.3377 11.7875ZM12.0002 17.625C8.68772 17.625 5.18772 15.1687 3.91897 12C5.18772 8.83125 8.68772 6.375 12.0002 6.375C15.3127 6.375 18.8127 8.83125 20.0815 12C18.8127 15.1687 15.3127 17.625 12.0002 17.625Z" fill="#454561"/>
<path d="M12 8.25C11.2583 8.25 10.5333 8.46993 9.91661 8.88199C9.29993 9.29404 8.81928 9.87971 8.53545 10.5649C8.25162 11.2502 8.17736 12.0042 8.32206 12.7316C8.46675 13.459 8.8239 14.1272 9.34835 14.6517C9.8728 15.1761 10.541 15.5333 11.2684 15.6779C11.9958 15.8226 12.7498 15.7484 13.4351 15.4646C14.1203 15.1807 14.706 14.7001 15.118 14.0834C15.5301 13.4667 15.75 12.7417 15.75 12C15.75 11.0054 15.3549 10.0516 14.6517 9.34835C13.9484 8.64509 12.9946 8.25 12 8.25ZM12 14.5C11.5055 14.5 11.0222 14.3534 10.6111 14.0787C10.2 13.804 9.87952 13.4135 9.6903 12.9567C9.50108 12.4999 9.45158 11.9972 9.54804 11.5123C9.6445 11.0273 9.8826 10.5819 10.2322 10.2322C10.5819 9.8826 11.0273 9.6445 11.5123 9.54804C11.9972 9.45157 12.4999 9.50108 12.9567 9.6903C13.4135 9.87952 13.804 10.2 14.0787 10.6111C14.3534 11.0222 14.5 11.5055 14.5 12C14.5 12.663 14.2366 13.2989 13.7678 13.7678C13.2989 14.2366 12.663 14.5 12 14.5Z" fill="#454561"/>
</svg>
