<svg width="48" height="48" viewBox="0 0 48 48" fill="none" xmlns="http://www.w3.org/2000/svg">
    <path fill-rule="evenodd" clip-rule="evenodd" d="M46.9462 16.9663C48.4376 21.8318 48.3438 27.0454 46.6785 31.8541L42.3878 30.3681C43.0441 28.4322 43.4 26.3577 43.4 24.2C43.4 13.5962 34.8039 5.00002 24.2 5.00002C13.5961 5.00002 5 13.5962 5 24.2C5 34.7429 13.4975 43.3011 24.0172 43.3992L24.0213 48C18.9324 48.0045 13.9737 46.3913 9.86158 43.3934C5.74942 40.3955 2.69662 36.1681 1.14412 31.3218C-0.408388 26.4754 -0.380227 21.2611 1.22453 16.4318C2.82929 11.6025 5.92757 7.4083 10.0719 4.45499C14.2162 1.50169 19.192 -0.0578479 24.2806 0.00164077C29.3691 0.0611294 34.3071 1.73656 38.3812 4.78595C42.4554 7.83533 45.4548 12.1008 46.9462 16.9663Z" fill="url(#paint0_angular_1080_4806)"/>
    <defs>
        <radialGradient id="paint0_angular_1080_4806" cx="0" cy="0" r="1" gradientUnits="userSpaceOnUse" gradientTransform="translate(24 24.0003) rotate(90) scale(24.0003 24)">
            <stop stop-color="#FB3A70"/>
            <stop offset="1" stop-color="#AA448F"/>
        </radialGradient>
    </defs>
</svg>
