<svg width="24" height="24" viewBox="0 0 24 24" fill="none" xmlns="http://www.w3.org/2000/svg">
<path d="M7 18.25L4.5 18.25L4.5 5.75L7 5.75L7 4.5L4.5 4.5L4.50312 4.505C4.33908 4.50442 4.17654 4.53617 4.02477 4.59844C3.873 4.6607 3.73499 4.75226 3.61862 4.86787C3.50225 4.98349 3.4098 5.1209 3.34655 5.27226C3.2833 5.42362 3.25049 5.58596 3.25 5.75L3.25 18.25C3.25 18.5815 3.3817 18.8995 3.61612 19.1339C3.85054 19.3683 4.16848 19.5 4.5 19.5L7 19.5L7 18.25ZM14.5 5.75L13.6219 6.63187L18.3594 11.375L7 11.375L7 12.625L18.3594 12.625L13.6219 17.3694L14.5 18.25L20.75 12L14.5 5.75Z" fill="#454561"/>
</svg>
