<svg width="24" height="24" viewBox="0 0 24 24" fill="none" xmlns="http://www.w3.org/2000/svg">
<path d="M14.3494 3.7125C14.3494 3.52353 14.4245 3.34231 14.5581 3.20869C14.6917 3.07507 14.8729 3 15.0619 3H20.2869C20.4759 3 20.6571 3.07507 20.7907 3.20869C20.9243 3.34231 20.9994 3.52353 20.9994 3.7125V8.9375C20.9994 9.12647 20.9243 9.30769 20.7907 9.44131C20.6571 9.57493 20.4759 9.65 20.2869 9.65C20.0979 9.65 19.9167 9.57493 19.7831 9.44131C19.6495 9.30769 19.5744 9.12647 19.5744 8.9375V5.432L13.6654 11.341C13.6002 11.411 13.5215 11.4671 13.4341 11.5061C13.3467 11.545 13.2524 11.566 13.1567 11.5677C13.061 11.5694 12.966 11.5518 12.8773 11.5159C12.7886 11.4801 12.708 11.4267 12.6403 11.3591C12.5727 11.2914 12.5193 11.2108 12.4835 11.1221C12.4477 11.0334 12.4301 10.9384 12.4318 10.8427C12.4334 10.747 12.4544 10.6527 12.4933 10.5653C12.5323 10.4779 12.5884 10.3992 12.6584 10.334L18.5674 4.425H15.0619C14.8729 4.425 14.6917 4.34993 14.5581 4.21631C14.4245 4.08269 14.3494 3.90147 14.3494 3.7125Z" fill="#454561"/>
<path d="M3 6.47368C3 5.66021 3.66021 5 4.47368 5H11.6316C11.7991 5 11.9597 5.06654 12.0782 5.18499C12.1966 5.30343 12.2632 5.46407 12.2632 5.63158C12.2632 5.79908 12.1966 5.95973 12.0782 6.07817C11.9597 6.19662 11.7991 6.26316 11.6316 6.26316H4.47368C4.41785 6.26316 4.3643 6.28534 4.32482 6.32482C4.28534 6.3643 4.26316 6.41785 4.26316 6.47368V19.5263C4.26316 19.6425 4.35747 19.7368 4.47368 19.7368H17.5263C17.5822 19.7368 17.6357 19.7147 17.6752 19.6752C17.7147 19.6357 17.7368 19.5822 17.7368 19.5263V12.3684C17.7368 12.2009 17.8034 12.0403 17.9218 11.9218C18.0403 11.8034 18.2009 11.7368 18.3684 11.7368C18.5359 11.7368 18.6966 11.8034 18.815 11.9218C18.9335 12.0403 19 12.2009 19 12.3684V19.5263C19 19.9172 18.8447 20.292 18.5684 20.5684C18.292 20.8447 17.9172 21 17.5263 21H4.47368C4.08284 21 3.708 20.8447 3.43163 20.5684C3.15526 20.292 3 19.9172 3 19.5263V6.47368Z" fill="#454561"/>
</svg>
