<svg width="24" height="24" viewBox="0 0 24 24" fill="none" xmlns="http://www.w3.org/2000/svg">
<path d="M19.5 6C19.6326 6 19.7598 6.05268 19.8536 6.14645C19.9473 6.24021 20 6.36739 20 6.5V17.5C20 17.6326 19.9473 17.7598 19.8536 17.8536C19.7598 17.9473 19.6326 18 19.5 18C19.3674 18 19.2402 17.9473 19.1464 17.8536C19.0527 17.7598 19 17.6326 19 17.5V6.5C19 6.36739 19.0527 6.24021 19.1464 6.14645C19.2402 6.05268 19.3674 6 19.5 6ZM4 12C4 11.8674 4.05268 11.7402 4.14645 11.6464C4.24021 11.5527 4.36739 11.5 4.5 11.5H15.293L12.146 8.354C12.0521 8.26011 11.9994 8.13278 11.9994 8C11.9994 7.86722 12.0521 7.73989 12.146 7.646C12.2399 7.55211 12.3672 7.49937 12.5 7.49937C12.6328 7.49937 12.7601 7.55211 12.854 7.646L16.854 11.646C16.947 11.7392 16.9994 11.8653 17 11.997V12.003C17 12.13 16.95 12.257 16.854 12.353L12.854 16.353C12.7602 16.4469 12.633 16.4997 12.5004 16.4998C12.3677 16.4999 12.2404 16.4473 12.1465 16.3535C12.0526 16.2597 11.9998 16.1325 11.9997 15.9999C11.9996 15.8672 12.0522 15.7399 12.146 15.646L15.293 12.5H4.5C4.36739 12.5 4.24021 12.4473 4.14645 12.3536C4.05268 12.2598 4 12.1326 4 12Z" fill="#454561"/>
</svg>
