<svg width="24" height="24" viewBox="0 0 24 24" fill="none" xmlns="http://www.w3.org/2000/svg">
<path d="M14.1459 5.14592C14.1924 5.09935 14.2475 5.06241 14.3083 5.0372C14.369 5.012 14.4342 4.99902 14.4999 4.99902C14.5657 4.99902 14.6308 5.012 14.6916 5.0372C14.7523 5.06241 14.8075 5.09935 14.8539 5.14592L17.8539 8.14592C17.9005 8.19236 17.9374 8.24754 17.9626 8.30828C17.9878 8.36903 18.0008 8.43415 18.0008 8.49992C18.0008 8.56569 17.9878 8.63081 17.9626 8.69155C17.9374 8.7523 17.9005 8.80747 17.8539 8.85392L14.8539 11.8539C14.8074 11.9004 14.7522 11.9373 14.6915 11.9624C14.6308 11.9876 14.5657 12.0005 14.4999 12.0005C14.4342 12.0005 14.3691 11.9876 14.3083 11.9624C14.2476 11.9373 14.1924 11.9004 14.1459 11.8539C14.0994 11.8074 14.0626 11.7522 14.0374 11.6915C14.0122 11.6308 13.9993 11.5657 13.9993 11.4999C13.9993 11.4342 14.0122 11.3691 14.0374 11.3083C14.0626 11.2476 14.0994 11.1924 14.1459 11.1459L16.2929 8.99992H6.49992C6.36731 8.99992 6.24013 8.94724 6.14636 8.85347C6.0526 8.7597 5.99992 8.63253 5.99992 8.49992C5.99992 8.36731 6.0526 8.24013 6.14636 8.14636C6.24013 8.0526 6.36731 7.99992 6.49992 7.99992H16.2929L14.1459 5.85392C14.0994 5.80747 14.0624 5.7523 14.0372 5.69155C14.012 5.63081 13.999 5.56568 13.999 5.49992C13.999 5.43415 14.012 5.36903 14.0372 5.30828C14.0624 5.24754 14.0994 5.19236 14.1459 5.14592ZM9.85392 12.1459C9.90048 12.1924 9.93742 12.2475 9.96263 12.3083C9.98784 12.369 10.0008 12.4342 10.0008 12.4999C10.0008 12.5657 9.98784 12.6308 9.96263 12.6916C9.93742 12.7523 9.90048 12.8075 9.85392 12.8539L7.70692 14.9999H17.4999C17.6325 14.9999 17.7597 15.0526 17.8535 15.1464C17.9472 15.2401 17.9999 15.3673 17.9999 15.4999C17.9999 15.6325 17.9472 15.7597 17.8535 15.8535C17.7597 15.9472 17.6325 15.9999 17.4999 15.9999H7.70692L9.85392 18.1459C9.9478 18.2398 10.0005 18.3671 10.0005 18.4999C10.0005 18.6327 9.9478 18.76 9.85392 18.8539C9.76003 18.9478 9.63269 19.0006 9.49992 19.0006C9.36714 19.0006 9.2398 18.9478 9.14592 18.8539L6.14592 15.8539C6.09935 15.8075 6.06241 15.7523 6.0372 15.6916C6.012 15.6308 5.99902 15.5657 5.99902 15.4999C5.99902 15.4342 6.012 15.369 6.0372 15.3083C6.06241 15.2475 6.09935 15.1924 6.14592 15.1459L9.14592 12.1459C9.19236 12.0994 9.24754 12.0624 9.30828 12.0372C9.36903 12.012 9.43415 11.999 9.49992 11.999C9.56569 11.999 9.63081 12.012 9.69155 12.0372C9.7523 12.0624 9.80747 12.0994 9.85392 12.1459Z" fill="#454561"/>
</svg>
