<svg width="24" height="24" viewBox="0 0 24 24" fill="none" xmlns="http://www.w3.org/2000/svg">
<path d="M4.91875 19.5L8.9125 12L13.475 16.0562C13.6179 16.1832 13.7879 16.2757 13.9721 16.3266C14.1563 16.3775 14.3497 16.3855 14.5375 16.35C14.727 16.3145 14.9057 16.2357 15.0597 16.1197C15.2136 16.0037 15.3387 15.8536 15.425 15.6812L18.875 8.8125L17.7375 8.25L14.3063 15.125L9.74375 11.0688C9.6045 10.9393 9.43755 10.8432 9.2556 10.788C9.07364 10.7328 8.88148 10.7198 8.69375 10.75C8.50835 10.7808 8.33227 10.8529 8.17862 10.9611C8.02496 11.0693 7.89768 11.2108 7.80625 11.375L4.5 17.625V3.25H3.25V19.5C3.25 19.8315 3.3817 20.1495 3.61612 20.3839C3.85054 20.6183 4.16848 20.75 4.5 20.75H20.75V19.5H4.91875Z" fill="#454561"/>
</svg>
