<svg width="24" height="24" viewBox="0 0 24 24" fill="none" xmlns="http://www.w3.org/2000/svg">
<path d="M18.25 10.75C18.5815 10.75 18.8995 10.6183 19.1339 10.3839C19.3683 10.1495 19.5 9.83152 19.5 9.5V5.75C19.5 5.41848 19.3683 5.10054 19.1339 4.86612C18.8995 4.6317 18.5815 4.5 18.25 4.5H14.5C14.1685 4.5 13.8505 4.6317 13.6161 4.86612C13.3817 5.10054 13.25 5.41848 13.25 5.75V9.5C13.25 9.83152 13.3817 10.1495 13.6161 10.3839C13.8505 10.6183 14.1685 10.75 14.5 10.75H15.75V13.3125C15.1494 13.435 14.5982 13.7314 14.1648 14.1648C13.7314 14.5982 13.435 15.1494 13.3125 15.75H10.75V14.5C10.75 14.1685 10.6183 13.8505 10.3839 13.6161C10.1495 13.3817 9.83153 13.25 9.50001 13.25H8.25001V10.6875C9.00878 10.5326 9.68302 10.1015 10.142 9.47776C10.601 8.85401 10.812 8.08205 10.7342 7.31155C10.6563 6.54105 10.2952 5.82689 9.72073 5.30754C9.14627 4.78819 8.39943 4.50064 7.62501 4.50064C6.85058 4.50064 6.10375 4.78819 5.52929 5.30754C4.95483 5.82689 4.59367 6.54105 4.51583 7.31155C4.438 8.08205 4.64903 8.85401 5.10801 9.47776C5.56699 10.1015 6.24123 10.5326 7.00001 10.6875V13.25H5.75001C5.41849 13.25 5.10054 13.3817 4.86612 13.6161C4.6317 13.8505 4.50001 14.1685 4.50001 14.5V18.25C4.50001 18.5815 4.6317 18.8995 4.86612 19.1339C5.10054 19.3683 5.41849 19.5 5.75001 19.5H9.50001C9.83153 19.5 10.1495 19.3683 10.3839 19.1339C10.6183 18.8995 10.75 18.5815 10.75 18.25V17H13.3125C13.4256 17.5531 13.6863 18.0652 14.067 18.482C14.4478 18.8987 14.9343 19.2046 15.4749 19.367C16.0156 19.5295 16.5901 19.5424 17.1375 19.4045C17.6849 19.2667 18.1848 18.9831 18.5839 18.5839C18.9831 18.1847 19.2667 17.6849 19.4046 17.1375C19.5424 16.5901 19.5295 16.0156 19.367 15.4749C19.2046 14.9343 18.8987 14.4478 18.482 14.067C18.0652 13.6863 17.5531 13.4255 17 13.3125V10.75H18.25ZM5.75001 7.625C5.75001 7.25416 5.85997 6.89165 6.066 6.58331C6.27203 6.27496 6.56486 6.03464 6.90748 5.89273C7.25009 5.75081 7.62709 5.71368 7.9908 5.78603C8.35452 5.85838 8.68861 6.03695 8.95083 6.29917C9.21306 6.5614 9.39163 6.89549 9.46398 7.25921C9.53633 7.62292 9.4992 7.99992 9.35728 8.34253C9.21537 8.68514 8.97504 8.97798 8.6667 9.18401C8.35836 9.39003 7.99585 9.5 7.62501 9.5C7.12773 9.5 6.65081 9.30246 6.29918 8.95083C5.94755 8.59919 5.75001 8.12228 5.75001 7.625ZM9.50001 18.25H5.75001V14.5H9.50001V18.25ZM18.25 16.375C18.25 16.7458 18.14 17.1084 17.934 17.4167C17.728 17.725 17.4352 17.9654 17.0925 18.1073C16.7499 18.2492 16.3729 18.2863 16.0092 18.214C15.6455 18.1416 15.3114 17.963 15.0492 17.7008C14.787 17.4386 14.6084 17.1045 14.536 16.7408C14.4637 16.3771 14.5008 16.0001 14.6427 15.6575C14.7846 15.3149 15.025 15.022 15.3333 14.816C15.6417 14.61 16.0042 14.5 16.375 14.5C16.8723 14.5 17.3492 14.6975 17.7008 15.0492C18.0525 15.4008 18.25 15.8777 18.25 16.375ZM14.5 5.75H18.25V9.5H14.5V5.75Z" fill="#454561"/>
</svg>
