<svg width="24" height="24" viewBox="0 0 24 24" fill="none" xmlns="http://www.w3.org/2000/svg">
<path d="M7.625 13.25C8.31536 13.25 8.875 12.6904 8.875 12C8.875 11.3096 8.31536 10.75 7.625 10.75C6.93464 10.75 6.375 11.3096 6.375 12C6.375 12.6904 6.93464 13.25 7.625 13.25Z" fill="#454561"/>
<path d="M16.375 13.25C17.0654 13.25 17.625 12.6904 17.625 12C17.625 11.3096 17.0654 10.75 16.375 10.75C15.6846 10.75 15.125 11.3096 15.125 12C15.125 12.6904 15.6846 13.25 16.375 13.25Z" fill="#454561"/>
<path d="M12 13.25C12.6904 13.25 13.25 12.6904 13.25 12C13.25 11.3096 12.6904 10.75 12 10.75C11.3096 10.75 10.75 11.3096 10.75 12C10.75 12.6904 11.3096 13.25 12 13.25Z" fill="#454561"/>
<path d="M12 20.75C10.2694 20.75 8.57769 20.2368 7.13876 19.2754C5.69983 18.3139 4.57832 16.9473 3.91606 15.3485C3.25379 13.7496 3.08051 11.9903 3.41813 10.293C3.75575 8.59563 4.58911 7.03653 5.81282 5.81282C7.03653 4.58911 8.59563 3.75575 10.293 3.41813C11.9903 3.08051 13.7496 3.25379 15.3485 3.91606C16.9473 4.57832 18.3139 5.69983 19.2754 7.13876C20.2368 8.57769 20.75 10.2694 20.75 12C20.7474 14.3198 19.8246 16.5439 18.1843 18.1843C16.5439 19.8246 14.3198 20.7474 12 20.75ZM12 4.5C10.5166 4.5 9.0666 4.93987 7.83323 5.76398C6.59986 6.58809 5.63856 7.75943 5.07091 9.12988C4.50325 10.5003 4.35473 12.0083 4.64411 13.4632C4.9335 14.918 5.64781 16.2544 6.6967 17.3033C7.7456 18.3522 9.08197 19.0665 10.5368 19.3559C11.9917 19.6453 13.4997 19.4968 14.8701 18.9291C16.2406 18.3614 17.4119 17.4001 18.236 16.1668C19.0601 14.9334 19.5 13.4834 19.5 12C19.4977 10.0116 18.7068 8.10528 17.3007 6.69926C15.8947 5.29324 13.9884 4.50232 12 4.5Z" fill="#454561"/>
</svg>
