<svg width="24" height="24" viewBox="0 0 24 24" fill="none" xmlns="http://www.w3.org/2000/svg">
<g clip-path="url(#clip0_1357_5960)">
<path d="M3.03568 9.67675L19.6328 4.03671C19.7234 4.00596 19.8207 4.00115 19.9138 4.02285C20.0069 4.04454 20.092 4.09186 20.1596 4.15946C20.2272 4.22705 20.2745 4.31221 20.2962 4.40531C20.3179 4.49841 20.3131 4.59572 20.2824 4.68623L14.6416 21.2841C14.6099 21.377 14.5522 21.4588 14.4753 21.5199C14.3984 21.5809 14.3056 21.6185 14.208 21.6283C14.1103 21.638 14.0119 21.6195 13.9244 21.5749C13.837 21.5304 13.7642 21.4616 13.7148 21.3768L9.75753 14.5681L2.94228 10.6058C2.85706 10.5565 2.78787 10.4836 2.74299 10.396C2.69811 10.3084 2.67945 10.2097 2.68923 10.1117C2.69901 10.0138 2.73682 9.9207 2.79814 9.84368C2.85946 9.76667 2.94168 9.70896 3.03496 9.67747L3.03568 9.67675ZM4.43031 10.285L10.0001 13.5232L10.0363 13.4696L10.0798 13.4204L15.1485 8.35164C15.2388 8.261 15.3598 8.20745 15.4876 8.20155C15.6154 8.19565 15.7408 8.23781 15.8391 8.31974C15.9373 8.40167 16.0014 8.51743 16.0186 8.64421C16.0358 8.771 16.0049 8.89963 15.932 9.00478L15.8726 9.07574L10.8039 14.1445C10.7816 14.1669 10.7574 14.1873 10.7314 14.2053L14.0355 19.8888L18.9783 5.34154L4.43031 10.285V10.285Z" fill="#454561"/>
</g>
<defs>
<clipPath id="clip0_1357_5960">
<rect width="20" height="20" fill="white" transform="translate(2 2)"/>
</clipPath>
</defs>
</svg>
