<svg width="24" height="24" viewBox="0 0 24 24" fill="none" xmlns="http://www.w3.org/2000/svg">
<path d="M15.75 12.625H17V13.875H15.75V12.625Z" fill="#454561"/>
<path d="M19.5 7H4.5V5.125H18.25V3.875H4.5C4.16848 3.875 3.85054 4.0067 3.61612 4.24112C3.3817 4.47554 3.25 4.79348 3.25 5.125V18.25C3.25 18.5815 3.3817 18.8995 3.61612 19.1339C3.85054 19.3683 4.16848 19.5 4.5 19.5H19.5C19.8315 19.5 20.1495 19.3683 20.3839 19.1339C20.6183 18.8995 20.75 18.5815 20.75 18.25V8.25C20.75 7.91848 20.6183 7.60054 20.3839 7.36612C20.1495 7.1317 19.8315 7 19.5 7ZM4.5 18.25V8.25H19.5V10.125H14.5C14.1685 10.125 13.8505 10.2567 13.6161 10.4911C13.3817 10.7255 13.25 11.0435 13.25 11.375V15.125C13.25 15.4565 13.3817 15.7745 13.6161 16.0089C13.8505 16.2433 14.1685 16.375 14.5 16.375H19.5V18.25H4.5ZM19.5 11.375V15.125H14.5V11.375H19.5Z" fill="#454561"/>
</svg>
