<svg width="48" height="48" viewBox="0 0 48 48" fill="none" xmlns="http://www.w3.org/2000/svg">
<path d="M23.9997 47.28C36.8569 47.28 47.2797 36.8572 47.2797 24C47.2797 11.1428 36.8569 0.719971 23.9997 0.719971C11.1425 0.719971 0.719727 11.1428 0.719727 24C0.719727 36.8572 11.1425 47.28 23.9997 47.28Z" fill="url(#paint0_linear_1832_5783)"/>
<path d="M34.1877 33.276L26.3157 14.244C25.8717 13.26 25.2117 12.78 24.3417 12.78H23.6457C22.7757 12.78 22.1157 13.26 21.6717 14.244L18.2457 22.536H15.6537C14.8797 22.542 14.2497 23.166 14.2437 23.946V23.964C14.2497 24.738 14.8797 25.368 15.6537 25.374H17.0457L13.7757 33.276C13.7157 33.45 13.6797 33.63 13.6797 33.816C13.6797 34.26 13.8177 34.608 14.0637 34.878C14.3097 35.148 14.6637 35.28 15.1077 35.28C15.4017 35.274 15.6837 35.184 15.9177 35.01C16.1697 34.836 16.3437 34.584 16.4817 34.296L20.0817 25.368H22.5777C23.3517 25.362 23.9817 24.738 23.9877 23.958V23.922C23.9817 23.148 23.3517 22.518 22.5777 22.512H21.2457L23.9937 15.666L31.4817 34.29C31.6197 34.578 31.7937 34.83 32.0457 35.004C32.2797 35.178 32.5677 35.268 32.8557 35.274C33.2997 35.274 33.6477 35.142 33.8997 34.872C34.1517 34.602 34.2837 34.254 34.2837 33.81C34.2897 33.63 34.2597 33.444 34.1877 33.276Z" fill="white"/>
<defs>
<linearGradient id="paint0_linear_1832_5783" x1="41.357" y1="9.39515" x2="6.71632" y2="38.5417" gradientUnits="userSpaceOnUse">
<stop stop-color="#B6509E"/>
<stop offset="1" stop-color="#2EBAC6"/>
</linearGradient>
</defs>
</svg>
