<svg width="48" height="48" viewBox="0 0 48 48" fill="none" xmlns="http://www.w3.org/2000/svg">
<circle cx="24" cy="24" r="24" fill="#0033AD"/>
<path d="M23.6213 9.79873C24.2939 9.44804 25.1148 10.2616 24.7575 10.9335C24.55 11.4812 23.7631 11.6269 23.3612 11.2094C22.9354 10.8087 23.0742 10.0167 23.6213 9.79873ZM16.3876 10.5785C16.7962 10.4103 17.3133 10.7846 17.2717 11.2299C17.315 11.7133 16.724 12.069 16.3075 11.8393C15.7558 11.6256 15.8189 10.73 16.3876 10.5785ZM31.2031 11.8529C30.5647 11.7758 30.4636 10.772 31.0783 10.5699C31.555 10.3373 31.9924 10.7734 32.0622 11.2253C31.9622 11.6111 31.6391 11.9644 31.2031 11.8529ZM18.0335 13.6573C18.7166 13.2253 19.6912 13.8686 19.5861 14.662C19.5506 15.463 18.4867 15.9271 17.8863 15.3856C17.3059 14.9602 17.3939 13.9844 18.0335 13.6573ZM28.4604 14.1157C28.7651 13.3303 29.9998 13.3066 30.3467 14.0711C30.6895 14.666 30.2678 15.4027 29.657 15.605C28.8479 15.756 28.0794 14.8814 28.4604 14.1157ZM22.7502 15.5604C22.7436 14.8854 23.3584 14.3824 23.9999 14.3364C24.4255 14.4218 24.8892 14.603 25.0718 15.0324C25.412 15.6247 25.1099 16.4403 24.4952 16.7121C24.2141 16.8697 23.8818 16.8106 23.5757 16.7922C23.1077 16.5625 22.7137 16.112 22.7502 15.5604ZM11.9926 16.544C12.6165 16.1604 13.4583 16.8604 13.2221 17.5382C13.0921 18.1245 12.304 18.363 11.8534 17.9887C11.3725 17.638 11.4488 16.7948 11.9926 16.544ZM35.0931 16.5427C35.6225 16.1317 36.496 16.6032 36.4329 17.2716C36.4684 17.881 35.7132 18.3406 35.1877 18.0268C34.609 17.7667 34.5499 16.8763 35.0931 16.5427ZM25.7755 17.7562C26.649 17.4424 27.6866 17.8179 28.1845 18.5967C28.8413 19.5488 28.4918 20.9988 27.4726 21.5452C26.4165 22.1913 24.8744 21.6436 24.4844 20.4642C24.0416 19.4084 24.6867 18.0871 25.7755 17.7562ZM20.6501 17.86C21.6182 17.403 22.9212 17.7864 23.3888 18.7768C23.9392 19.7408 23.5136 21.0831 22.5297 21.5808C21.5446 22.1402 20.1548 21.7161 19.6781 20.6812C19.1435 19.6803 19.6182 18.3209 20.6501 17.86ZM15.5181 19.6146C15.5916 18.9908 16.1801 18.5849 16.7738 18.5429C17.4135 18.62 17.9245 19.1168 17.994 19.7642C17.9521 20.4051 17.4568 21.0315 16.7776 21.0277C16.0304 21.092 15.3753 20.3487 15.5181 19.6146ZM30.6764 18.6785C31.4435 18.232 32.5087 18.882 32.4746 19.7633C32.5272 20.697 31.3483 21.3551 30.5844 20.8074C29.7909 20.3513 29.8528 19.0669 30.6764 18.6785ZM18.5643 21.9694C19.4615 21.7226 20.4873 22.1455 20.9273 22.9701C21.4093 23.8002 21.2123 24.9533 20.4637 25.5621C19.5036 26.4552 17.7328 26.0966 17.2218 24.8779C16.6346 23.7607 17.3479 22.2635 18.5643 21.9694ZM28.2857 21.9648C29.1579 21.7153 30.1825 22.0515 30.6514 22.8461C31.2713 23.7548 30.9754 25.1102 30.0524 25.6961C29.0857 26.3763 27.5882 26.0191 27.0562 24.9555C26.4113 23.8553 27.0602 22.3004 28.2857 21.9648ZM12.7938 23.0016C13.5688 22.7085 14.4279 23.5637 14.1139 24.332C13.9221 25.032 12.9356 25.2908 12.426 24.7747C11.8297 24.2901 12.0505 23.2118 12.7938 23.0016ZM33.7999 24.1166C33.7775 23.4745 34.2473 22.9058 34.9058 22.8703C35.4366 22.9544 35.9526 23.3825 35.9107 23.9603C35.9593 24.7234 35.0397 25.2422 34.3896 24.8836C34.0849 24.7287 33.9286 24.4161 33.7999 24.1166ZM8.98326 23.3785C9.44952 23.175 10.0262 23.5791 9.91978 24.0969C9.89479 24.6832 9.02924 24.9086 8.71126 24.4187C8.4303 24.0785 8.59847 23.554 8.98326 23.3785ZM38.3814 23.3668C38.7097 23.1331 39.2365 23.3011 39.3665 23.6846C39.5872 24.1035 39.1826 24.6775 38.7111 24.6067C38.0492 24.667 37.8351 23.6583 38.3814 23.3668ZM21.0967 26.1811C22.3236 25.8621 23.6425 26.8852 23.6502 28.1484C23.7302 29.425 22.4313 30.557 21.1754 30.2622C20.2047 30.1059 19.4429 29.1707 19.4744 28.1898C19.4718 27.2516 20.1798 26.3796 21.0967 26.1811ZM25.9555 26.1785C27.2008 25.8305 28.5589 26.8719 28.5392 28.1643C28.6049 29.4173 27.3466 30.5112 26.1169 30.2626C24.9598 30.113 24.1059 28.8417 24.429 27.7188C24.5921 26.9705 25.2173 26.362 25.9555 26.1785ZM16.5874 26.9561C17.4491 26.8091 18.2569 27.7704 17.9075 28.5886C17.6526 29.4605 16.3838 29.697 15.8228 28.9848C15.1647 28.3009 15.656 27.0505 16.5874 26.9561ZM30.8365 26.9945C31.6049 26.6727 32.548 27.3374 32.4889 28.1713C32.5198 29.0893 31.3554 29.7223 30.604 29.1865C29.753 28.7054 29.9079 27.2897 30.8365 26.9945ZM34.8193 30.9893C34.5184 30.4285 35.0649 29.6851 35.6876 29.789C35.9975 29.7837 36.2143 30.028 36.4127 30.2329C36.4535 30.5652 36.5218 30.9617 36.2459 31.2178C35.8713 31.6919 35.0228 31.5566 34.8193 30.9893ZM11.99 29.9451C12.572 29.5577 13.4094 30.1355 13.2786 30.8159C13.209 31.4176 12.451 31.7615 11.9517 31.4201C11.4159 31.1101 11.4356 30.2276 11.99 29.9451ZM23.4874 31.2047C24.2493 30.8685 25.2199 31.5318 25.1477 32.371C25.2041 33.2982 24.0036 33.9403 23.2587 33.3835C22.4313 32.9054 22.5692 31.4988 23.4874 31.2047ZM18.1622 32.447C18.8111 32.1056 19.6819 32.6953 19.6228 33.4215C19.6426 34.0178 19.0606 34.526 18.4722 34.4379C17.9848 34.4274 17.667 33.9905 17.5107 33.575C17.5187 33.1222 17.7051 32.6178 18.1622 32.447ZM28.949 32.4575C29.6163 32.0451 30.5647 32.6374 30.5016 33.4141C30.5187 34.2258 29.4469 34.7457 28.8256 34.2125C28.224 33.7945 28.2974 32.7898 28.949 32.4575ZM30.8248 37.0949C30.5279 36.6458 30.8774 36.1047 31.3594 36.0022C31.747 36.0811 32.1567 36.3725 32.0753 36.8218C32.0188 37.4298 31.1295 37.6164 30.8248 37.0949ZM15.9345 36.7048C16.0527 36.3489 16.339 35.9951 16.7581 36.0877C17.3689 36.1311 17.5502 37.0517 17.0156 37.3354C16.5348 37.6596 15.9771 37.2157 15.9345 36.7048ZM23.1182 37.1132C23.2351 36.5867 23.9168 36.3306 24.3661 36.6103C24.6629 36.7377 24.7496 37.0699 24.8258 37.3522C24.7851 37.4993 24.7487 37.6465 24.7129 37.7935C24.529 38.0115 24.2926 38.2295 23.9865 38.2216C23.4177 38.2883 22.9045 37.6452 23.1182 37.1132Z" fill="white"/>
</svg>
