<svg width="199" height="88" viewBox="0 0 199 88" fill="none" xmlns="http://www.w3.org/2000/svg">
<circle cx="44" cy="44" r="24" fill="#0033AD"/>
<path d="M43.6213 29.7987C44.2939 29.448 45.1148 30.2616 44.7575 30.9335C44.55 31.4812 43.7631 31.6269 43.3612 31.2094C42.9354 30.8087 43.0742 30.0167 43.6213 29.7987ZM36.3876 30.5785C36.7962 30.4103 37.3133 30.7846 37.2717 31.2299C37.315 31.7133 36.724 32.069 36.3075 31.8393C35.7558 31.6256 35.8189 30.73 36.3876 30.5785ZM51.2031 31.8529C50.5647 31.7758 50.4636 30.772 51.0783 30.5699C51.555 30.3373 51.9924 30.7734 52.0622 31.2253C51.9622 31.6111 51.6391 31.9644 51.2031 31.8529ZM38.0335 33.6573C38.7166 33.2253 39.6912 33.8686 39.5861 34.662C39.5506 35.463 38.4867 35.9271 37.8863 35.3856C37.3059 34.9602 37.3939 33.9844 38.0335 33.6573ZM48.4604 34.1157C48.7651 33.3303 49.9998 33.3066 50.3467 34.0711C50.6895 34.666 50.2678 35.4027 49.657 35.605C48.8479 35.756 48.0794 34.8814 48.4604 34.1157ZM42.7502 35.5604C42.7436 34.8854 43.3584 34.3824 43.9999 34.3364C44.4255 34.4218 44.8892 34.603 45.0718 35.0324C45.412 35.6247 45.1099 36.4403 44.4952 36.7121C44.2141 36.8697 43.8818 36.8106 43.5757 36.7922C43.1077 36.5625 42.7137 36.112 42.7502 35.5604ZM31.9926 36.544C32.6165 36.1604 33.4583 36.8604 33.2221 37.5382C33.0921 38.1245 32.304 38.363 31.8534 37.9887C31.3725 37.638 31.4488 36.7948 31.9926 36.544ZM55.0931 36.5427C55.6225 36.1317 56.496 36.6032 56.4329 37.2716C56.4684 37.881 55.7132 38.3406 55.1877 38.0268C54.609 37.7667 54.5499 36.8763 55.0931 36.5427ZM45.7755 37.7562C46.649 37.4424 47.6866 37.8179 48.1845 38.5967C48.8413 39.5488 48.4918 40.9988 47.4726 41.5452C46.4165 42.1913 44.8744 41.6436 44.4844 40.4642C44.0416 39.4084 44.6867 38.0871 45.7755 37.7562ZM40.6501 37.86C41.6182 37.403 42.9212 37.7864 43.3888 38.7768C43.9392 39.7408 43.5136 41.0831 42.5297 41.5808C41.5446 42.1402 40.1548 41.7161 39.6781 40.6812C39.1435 39.6803 39.6182 38.3209 40.6501 37.86ZM35.5181 39.6146C35.5916 38.9908 36.1801 38.5849 36.7738 38.5429C37.4135 38.62 37.9245 39.1168 37.994 39.7642C37.9521 40.4051 37.4568 41.0315 36.7776 41.0277C36.0304 41.092 35.3753 40.3487 35.5181 39.6146ZM50.6764 38.6785C51.4435 38.232 52.5087 38.882 52.4746 39.7633C52.5272 40.697 51.3483 41.3551 50.5844 40.8074C49.7909 40.3513 49.8528 39.0669 50.6764 38.6785ZM38.5643 41.9694C39.4615 41.7226 40.4873 42.1455 40.9273 42.9701C41.4093 43.8002 41.2123 44.9533 40.4637 45.5621C39.5036 46.4552 37.7328 46.0966 37.2218 44.8779C36.6346 43.7607 37.3479 42.2635 38.5643 41.9694ZM48.2857 41.9648C49.1579 41.7153 50.1825 42.0515 50.6514 42.8461C51.2713 43.7548 50.9754 45.1102 50.0524 45.6961C49.0857 46.3763 47.5882 46.0191 47.0562 44.9555C46.4113 43.8553 47.0602 42.3004 48.2857 41.9648ZM32.7938 43.0016C33.5688 42.7085 34.4279 43.5637 34.1139 44.332C33.9221 45.032 32.9356 45.2908 32.426 44.7747C31.8297 44.2901 32.0505 43.2118 32.7938 43.0016ZM53.7999 44.1166C53.7775 43.4745 54.2473 42.9058 54.9058 42.8703C55.4366 42.9544 55.9526 43.3825 55.9107 43.9603C55.9593 44.7234 55.0397 45.2422 54.3896 44.8836C54.0849 44.7287 53.9286 44.4161 53.7999 44.1166ZM28.9833 43.3785C29.4495 43.175 30.0262 43.5791 29.9198 44.0969C29.8948 44.6832 29.0292 44.9086 28.7113 44.4187C28.4303 44.0785 28.5985 43.554 28.9833 43.3785ZM58.3814 43.3668C58.7097 43.1331 59.2365 43.3011 59.3665 43.6846C59.5872 44.1035 59.1826 44.6775 58.7111 44.6067C58.0492 44.667 57.8351 43.6583 58.3814 43.3668ZM41.0967 46.1811C42.3236 45.8621 43.6425 46.8852 43.6502 48.1484C43.7302 49.425 42.4313 50.557 41.1754 50.2622C40.2047 50.1059 39.4429 49.1707 39.4744 48.1898C39.4718 47.2516 40.1798 46.3796 41.0967 46.1811ZM45.9555 46.1785C47.2008 45.8305 48.5589 46.8719 48.5392 48.1643C48.6049 49.4173 47.3466 50.5112 46.1169 50.2626C44.9598 50.113 44.1059 48.8417 44.429 47.7188C44.5921 46.9705 45.2173 46.362 45.9555 46.1785ZM36.5874 46.9561C37.4491 46.8091 38.2569 47.7704 37.9075 48.5886C37.6526 49.4605 36.3838 49.697 35.8228 48.9848C35.1647 48.3009 35.656 47.0505 36.5874 46.9561ZM50.8365 46.9945C51.6049 46.6727 52.548 47.3374 52.4889 48.1713C52.5198 49.0893 51.3554 49.7223 50.604 49.1865C49.753 48.7054 49.9079 47.2897 50.8365 46.9945ZM54.8193 50.9893C54.5184 50.4285 55.0649 49.6851 55.6876 49.789C55.9975 49.7837 56.2143 50.028 56.4127 50.2329C56.4535 50.5652 56.5218 50.9617 56.2459 51.2178C55.8713 51.6919 55.0228 51.5566 54.8193 50.9893ZM31.99 49.9451C32.572 49.5577 33.4094 50.1355 33.2786 50.8159C33.209 51.4176 32.451 51.7615 31.9517 51.4201C31.4159 51.1101 31.4356 50.2276 31.99 49.9451ZM43.4874 51.2047C44.2493 50.8685 45.2199 51.5318 45.1477 52.371C45.2041 53.2982 44.0036 53.9403 43.2587 53.3835C42.4313 52.9054 42.5692 51.4988 43.4874 51.2047ZM38.1622 52.447C38.8111 52.1056 39.6819 52.6953 39.6228 53.4215C39.6426 54.0178 39.0606 54.526 38.4722 54.4379C37.9848 54.4274 37.667 53.9905 37.5107 53.575C37.5187 53.1222 37.7051 52.6178 38.1622 52.447ZM48.949 52.4575C49.6163 52.0451 50.5647 52.6374 50.5016 53.4141C50.5187 54.2258 49.4469 54.7457 48.8256 54.2125C48.224 53.7945 48.2974 52.7898 48.949 52.4575ZM50.8248 57.0949C50.5279 56.6458 50.8774 56.1047 51.3594 56.0022C51.747 56.0811 52.1567 56.3725 52.0753 56.8218C52.0188 57.4298 51.1295 57.6164 50.8248 57.0949ZM35.9345 56.7048C36.0527 56.3489 36.339 55.9951 36.7581 56.0877C37.3689 56.1311 37.5502 57.0517 37.0156 57.3354C36.5348 57.6596 35.9771 57.2157 35.9345 56.7048ZM43.1182 57.1132C43.2351 56.5867 43.9168 56.3306 44.3661 56.6103C44.6629 56.7377 44.7496 57.0699 44.8258 57.3522C44.7851 57.4993 44.7487 57.6465 44.7129 57.7935C44.529 58.0115 44.2926 58.2295 43.9865 58.2216C43.4177 58.2883 42.9045 57.6452 43.1182 57.1132Z" fill="white"/>
<circle cx="110" cy="40" r="20" fill="#0033AD"/>
<path d="M109.684 28.1655C110.245 27.8733 110.929 28.5512 110.631 29.1112C110.458 29.5676 109.802 29.689 109.467 29.3411C109.113 29.0072 109.228 28.3472 109.684 28.1655ZM103.656 28.8153C103.997 28.6752 104.428 28.9871 104.393 29.3582C104.429 29.761 103.936 30.0575 103.589 29.866C103.13 29.6879 103.182 28.9416 103.656 28.8153ZM116.002 29.8773C115.47 29.813 115.386 28.9766 115.898 28.8081C116.296 28.6144 116.66 28.9777 116.718 29.3543C116.635 29.6759 116.366 29.9703 116.002 29.8773ZM105.028 31.381C105.597 31.021 106.409 31.5571 106.322 32.2182C106.292 32.8858 105.405 33.2725 104.905 32.8212C104.421 32.4668 104.495 31.6536 105.028 31.381ZM113.717 31.763C113.971 31.1085 115 31.0887 115.289 31.7258C115.574 32.2216 115.223 32.8355 114.714 33.0041C114.04 33.1299 113.399 32.4011 113.717 31.763ZM108.958 32.9669C108.953 32.4044 109.465 31.9853 110 31.947C110.354 32.0181 110.741 32.1691 110.893 32.5269C111.176 33.0205 110.925 33.7002 110.413 33.9267C110.178 34.058 109.901 34.0087 109.646 33.9934C109.256 33.802 108.928 33.4266 108.958 32.9669ZM99.9937 33.7866C100.514 33.4669 101.215 34.0503 101.018 34.6151C100.91 35.1036 100.253 35.3024 99.8777 34.9905C99.477 34.6983 99.5405 33.9956 99.9937 33.7866ZM119.244 33.7855C119.685 33.443 120.413 33.8359 120.361 34.3929C120.39 34.9008 119.761 35.2838 119.323 35.0223C118.841 34.8055 118.791 34.0635 119.244 33.7855ZM111.479 34.7967C112.207 34.5352 113.072 34.8482 113.487 35.4972C114.034 36.2906 113.743 37.4989 112.894 37.9542C112.014 38.4927 110.729 38.0362 110.404 37.0534C110.035 36.1736 110.572 35.0725 111.479 34.7967ZM107.208 34.8833C108.015 34.5024 109.101 34.8219 109.491 35.6473C109.949 36.4506 109.595 37.5691 108.775 37.9839C107.954 38.4501 106.796 38.0967 106.398 37.2342C105.953 36.4002 106.348 35.2673 107.208 34.8833ZM102.932 36.3454C102.993 35.8256 103.483 35.4873 103.978 35.4523C104.511 35.5166 104.937 35.9306 104.995 36.4701C104.96 37.0042 104.547 37.5262 103.981 37.523C103.359 37.5766 102.813 36.9571 102.932 36.3454ZM115.563 35.5654C116.203 35.1933 117.09 35.7349 117.062 36.4693C117.106 37.2475 116.123 37.7958 115.487 37.3394C114.826 36.9593 114.877 35.889 115.563 35.5654ZM105.47 38.3078C106.218 38.1021 107.073 38.4545 107.439 39.1417C107.841 39.8334 107.677 40.7944 107.053 41.3017C106.253 42.0459 104.777 41.7471 104.351 40.7315C103.862 39.8005 104.456 38.5528 105.47 38.3078ZM113.571 38.3039C114.298 38.096 115.152 38.3762 115.543 39.0383C116.059 39.7956 115.813 40.9251 115.044 41.4133C114.238 41.9802 112.99 41.6825 112.547 40.7962C112.009 39.8793 112.55 38.5836 113.571 38.3039ZM100.661 39.1679C101.307 38.9236 102.023 39.6363 101.761 40.2766C101.602 40.8599 100.78 41.0756 100.355 40.6455C99.8579 40.2416 100.042 39.343 100.661 39.1679ZM118.166 40.0971C118.148 39.562 118.539 39.0881 119.088 39.0585C119.53 39.1286 119.96 39.4854 119.925 39.9669C119.966 40.6028 119.2 41.0351 118.658 40.7363C118.404 40.6072 118.274 40.3467 118.166 40.0971ZM97.4859 39.482C97.8744 39.3124 98.355 39.6492 98.2663 40.0807C98.2455 40.5692 97.5242 40.7571 97.2592 40.3489C97.0251 40.0654 97.1652 39.6282 97.4859 39.482ZM121.984 39.4723C122.258 39.2775 122.697 39.4175 122.805 39.7371C122.989 40.0862 122.652 40.5645 122.259 40.5055C121.708 40.5557 121.529 39.7151 121.984 39.4723ZM107.58 41.8175C108.603 41.5517 109.702 42.4042 109.708 43.457C109.775 44.5208 108.693 45.4641 107.646 45.2184C106.837 45.0882 106.202 44.3089 106.229 43.4914C106.226 42.7096 106.816 41.9829 107.58 41.8175ZM111.629 41.8154C112.667 41.5253 113.799 42.3932 113.782 43.4702C113.837 44.5143 112.789 45.4259 111.764 45.2188C110.8 45.0941 110.088 44.0346 110.357 43.0989C110.493 42.4753 111.014 41.9682 111.629 41.8154ZM103.823 42.4634C104.541 42.3408 105.214 43.142 104.923 43.8238C104.71 44.5503 103.653 44.7474 103.185 44.1539C102.637 43.584 103.046 42.542 103.823 42.4634ZM115.697 42.4954C116.337 42.2272 117.123 42.7811 117.074 43.476C117.1 44.241 116.129 44.7685 115.503 44.322C114.794 43.9211 114.923 42.7413 115.697 42.4954ZM119.016 45.8244C118.765 45.357 119.221 44.7375 119.739 44.8241C119.998 44.8197 120.178 45.0232 120.344 45.194C120.378 45.4709 120.435 45.8013 120.205 46.0148C119.893 46.4099 119.185 46.2971 119.016 45.8244ZM99.9915 44.9542C100.476 44.6313 101.174 45.1128 101.065 45.6798C101.007 46.1813 100.376 46.4679 99.9596 46.1833C99.5131 45.925 99.5295 45.1896 99.9915 44.9542ZM109.573 46.0038C110.208 45.7237 111.016 46.2764 110.956 46.9757C111.003 47.7484 110.003 48.2835 109.382 47.8195C108.693 47.4211 108.808 46.2489 109.573 46.0038ZM105.135 47.0391C105.676 46.7546 106.401 47.246 106.352 47.8512C106.369 48.3481 105.884 48.7716 105.393 48.6982C104.987 48.6894 104.722 48.3253 104.592 47.9791C104.599 47.6017 104.754 47.1814 105.135 47.0391ZM114.124 47.0478C114.68 46.7042 115.47 47.1978 115.418 47.845C115.432 48.5214 114.539 48.9547 114.021 48.5103C113.52 48.162 113.581 47.3248 114.124 47.0478ZM115.687 50.9123C115.44 50.5381 115.731 50.0872 116.133 50.0018C116.456 50.0675 116.797 50.3104 116.729 50.6848C116.682 51.1915 115.941 51.3469 115.687 50.9123ZM103.279 50.5873C103.377 50.2907 103.616 49.9959 103.965 50.073C104.474 50.1091 104.625 50.8763 104.179 51.1128C103.779 51.3829 103.314 51.013 103.279 50.5873ZM109.265 50.9276C109.362 50.4888 109.93 50.2754 110.305 50.5085C110.552 50.6147 110.625 50.8915 110.688 51.1268C110.654 51.2493 110.624 51.372 110.594 51.4945C110.441 51.6762 110.244 51.8578 109.989 51.8513C109.515 51.9068 109.087 51.3709 109.265 50.9276Z" fill="white"/>
<circle cx="164" cy="32" r="12" fill="#0033AD"/>
<path d="M163.811 24.8994C164.147 24.724 164.558 25.1308 164.379 25.4668C164.275 25.7406 163.882 25.8134 163.681 25.6047C163.468 25.4043 163.538 25.0084 163.811 24.8994ZM160.194 25.2892C160.399 25.2052 160.657 25.3923 160.636 25.6149C160.658 25.8566 160.362 26.0345 160.154 25.9197C159.878 25.8128 159.91 25.365 160.194 25.2892ZM167.602 25.9264C167.283 25.8879 167.232 25.386 167.54 25.2849C167.778 25.1687 167.997 25.3867 168.032 25.6126C167.982 25.8056 167.82 25.9822 167.602 25.9264ZM161.017 26.8286C161.359 26.6126 161.846 26.9343 161.794 27.331C161.776 27.7315 161.244 27.9636 160.944 27.6928C160.653 27.4801 160.697 26.9922 161.017 26.8286ZM166.231 27.0578C166.383 26.6652 167 26.6533 167.174 27.0355C167.345 27.333 167.134 27.7014 166.829 27.8025C166.424 27.878 166.04 27.4407 166.231 27.0578ZM163.376 27.7802C163.372 27.4427 163.68 27.1912 164 27.1682C164.213 27.2109 164.445 27.3015 164.536 27.5162C164.706 27.8124 164.555 28.2201 164.248 28.3561C164.108 28.4348 163.941 28.4053 163.788 28.3961C163.554 28.2812 163.357 28.056 163.376 27.7802ZM157.997 28.272C158.309 28.0802 158.73 28.4302 158.612 28.7691C158.547 29.0622 158.152 29.1815 157.927 28.9944C157.687 28.819 157.725 28.3974 157.997 28.272ZM169.547 28.2714C169.812 28.0659 170.249 28.3016 170.217 28.6358C170.235 28.9405 169.857 29.1703 169.594 29.0134C169.305 28.8833 169.275 28.4381 169.547 28.2714ZM164.888 28.8781C165.325 28.7212 165.844 28.909 166.093 29.2984C166.421 29.7744 166.246 30.4994 165.737 30.7726C165.209 31.0957 164.438 30.8218 164.243 30.2321C164.021 29.7042 164.344 29.0436 164.888 28.8781ZM162.326 28.93C162.81 28.7015 163.461 28.8932 163.695 29.3884C163.97 29.8704 163.757 30.5415 163.265 30.7904C162.773 31.0701 162.078 30.8581 161.84 30.3406C161.572 29.8401 161.81 29.1604 162.326 28.93ZM159.76 29.8073C159.796 29.4954 160.091 29.2924 160.387 29.2714C160.707 29.31 160.963 29.5584 160.998 29.8821C160.977 30.2026 160.729 30.5158 160.389 30.5138C160.016 30.546 159.688 30.1743 159.76 29.8073ZM167.339 29.3393C167.722 29.116 168.255 29.441 168.238 29.8817C168.264 30.3485 167.675 30.6775 167.293 30.4037C166.896 30.1756 166.927 29.5334 167.339 29.3393ZM161.283 30.9847C161.731 30.8613 162.244 31.0727 162.464 31.4851C162.705 31.9001 162.607 32.4767 162.232 32.7811C161.752 33.2276 160.867 33.0483 160.611 32.4389C160.318 31.8804 160.674 31.1318 161.283 30.9847ZM166.143 30.9824C166.579 30.8577 167.092 31.0258 167.326 31.423C167.636 31.8774 167.488 32.5551 167.027 32.848C166.543 33.1882 165.795 33.0096 165.529 32.4777C165.206 31.9276 165.531 31.1502 166.143 30.9824ZM158.397 31.5008C158.785 31.3542 159.214 31.7818 159.057 32.166C158.962 32.516 158.468 32.6454 158.213 32.3873C157.915 32.145 158.026 31.6059 158.397 31.5008ZM168.9 32.0583C168.889 31.7373 169.124 31.4529 169.453 31.4352C169.719 31.4772 169.977 31.6913 169.956 31.9802C169.98 32.3617 169.52 32.6211 169.195 32.4418C169.043 32.3643 168.965 32.2081 168.9 32.0583ZM156.492 31.6893C156.725 31.5875 157.014 31.7896 156.96 32.0484C156.948 32.3416 156.515 32.4543 156.356 32.2094C156.216 32.0393 156.3 31.777 156.492 31.6893ZM171.191 31.6834C171.355 31.5665 171.619 31.6505 171.684 31.8423C171.794 32.0518 171.592 32.3387 171.356 32.3033C171.025 32.3335 170.918 31.8291 171.191 31.6834ZM162.549 33.0906C163.162 32.931 163.822 33.4426 163.826 34.0742C163.866 34.7125 163.216 35.2785 162.588 35.1311C162.103 35.0529 161.722 34.5854 161.738 34.0949C161.736 33.6258 162.09 33.1898 162.549 33.0906ZM164.978 33.0893C165.601 32.9152 166.28 33.4359 166.27 34.0822C166.303 34.7086 165.674 35.2556 165.059 35.1313C164.48 35.0565 164.053 34.4208 164.215 33.8594C164.297 33.4852 164.609 33.181 164.978 33.0893ZM160.294 33.4781C160.725 33.4045 161.129 33.8852 160.954 34.2943C160.827 34.7302 160.192 34.8485 159.912 34.4924C159.583 34.1504 159.828 33.5253 160.294 33.4781ZM167.419 33.4973C167.803 33.3364 168.274 33.6687 168.245 34.0856C168.26 34.5446 167.678 34.8612 167.302 34.5932C166.877 34.3527 166.954 33.6448 167.419 33.4973ZM169.41 35.4947C169.26 35.2142 169.533 34.8426 169.844 34.8945C169.999 34.8919 170.108 35.014 170.207 35.1164C170.227 35.2826 170.261 35.4809 170.123 35.6089C169.936 35.846 169.512 35.7783 169.41 35.4947ZM157.995 34.9726C158.286 34.7788 158.705 35.0677 158.64 35.408C158.605 35.7088 158.226 35.8808 157.976 35.71C157.708 35.5551 157.718 35.1138 157.995 34.9726ZM163.744 35.6024C164.125 35.4343 164.61 35.7659 164.574 36.1855C164.603 36.6491 164.002 36.9702 163.63 36.6918C163.216 36.4527 163.285 35.7494 163.744 35.6024ZM161.082 36.2235C161.406 36.0528 161.841 36.3476 161.812 36.7107C161.822 37.0089 161.531 37.263 161.237 37.219C160.993 37.2137 160.834 36.9952 160.756 36.7875C160.76 36.5611 160.853 36.3089 161.082 36.2235ZM166.475 36.2288C166.809 36.0225 167.283 36.3187 167.251 36.707C167.26 37.1129 166.724 37.3729 166.413 37.1063C166.112 36.8973 166.149 36.3949 166.475 36.2288ZM167.413 38.5474C167.264 38.3229 167.439 38.0523 167.68 38.0011C167.874 38.0405 168.079 38.1863 168.038 38.4109C168.01 38.7149 167.565 38.8082 167.413 38.5474ZM159.968 38.3524C160.027 38.1745 160.17 37.9976 160.38 38.0439C160.685 38.0655 160.776 38.5258 160.508 38.6677C160.268 38.8298 159.989 38.6078 159.968 38.3524ZM163.56 38.5566C163.618 38.2933 163.959 38.1653 164.184 38.3051C164.332 38.3689 164.375 38.5349 164.413 38.6761C164.393 38.7496 164.375 38.8232 164.357 38.8967C164.265 39.0058 164.147 39.1148 163.994 39.1108C163.709 39.1441 163.453 38.8226 163.56 38.5566Z" fill="white"/>
<rect x="0.5" y="0.5" width="198" height="87" rx="4.5" stroke="#7B61FF" stroke-dasharray="10 5"/>
</svg>
