<svg width="48" height="48" viewBox="0 0 48 48" fill="none" xmlns="http://www.w3.org/2000/svg">
<g clip-path="url(#clip0_1687_6799)">
<path d="M38.7762 8.23413H9.15918V35.1703H38.7762V8.23413Z" fill="white"/>
<path fill-rule="evenodd" clip-rule="evenodd" d="M47.9518 24.0001C47.9518 37.2374 37.2211 47.9682 23.9837 47.9682C10.7465 47.9682 0.015625 37.2374 0.015625 24.0001C0.015625 10.7629 10.7465 0.0319824 23.9837 0.0319824C37.2211 0.0319824 47.9518 10.7629 47.9518 24.0001ZM17.1918 33.5382H12.5403C11.5629 33.5382 11.0801 33.5382 10.7857 33.3499C10.4677 33.1437 10.2734 32.8022 10.2499 32.4253C10.2322 32.078 10.4736 31.654 10.9564 30.8061L22.4416 10.5618C22.9304 9.70216 23.1776 9.27233 23.4897 9.11337C23.8253 8.94262 24.2257 8.94262 24.5613 9.11337C24.8734 9.27233 25.1207 9.70216 25.6094 10.5618L27.9705 14.6834L27.9825 14.7045C28.5104 15.6267 28.7781 16.0944 28.8949 16.5852C29.0244 17.1211 29.0244 17.6863 28.8949 18.2221C28.7772 18.7167 28.5122 19.1878 27.9764 20.124L21.9435 30.7884L21.9279 30.8157C21.3966 31.7456 21.1273 32.2169 20.7541 32.5724C20.3478 32.9611 19.8591 33.2436 19.3233 33.4028C18.8346 33.5382 18.287 33.5382 17.1918 33.5382ZM28.9385 33.5382H35.6036C36.5869 33.5382 37.0816 33.5382 37.3762 33.3441C37.694 33.1379 37.8941 32.7904 37.912 32.4138C37.9289 32.0777 37.6928 31.6702 37.23 30.8716C37.214 30.8444 37.1981 30.8167 37.1818 30.7886L33.8432 25.0772L33.8052 25.0129C33.3361 24.2195 33.0992 23.8189 32.7951 23.6641C32.4597 23.4933 32.0649 23.4933 31.7294 23.6641C31.4232 23.823 31.176 24.2411 30.6872 25.0831L27.3605 30.7945L27.3491 30.8141C26.8621 31.6548 26.6187 32.0749 26.6363 32.4195C26.6598 32.7965 26.8541 33.1437 27.1721 33.3499C27.4606 33.5382 27.9552 33.5382 28.9385 33.5382Z" fill="#E84142"/>
</g>
<defs>
<clipPath id="clip0_1687_6799">
<rect width="47.9681" height="48" fill="white"/>
</clipPath>
</defs>
</svg>
