<svg width="48" height="48" viewBox="0 0 48 48" fill="none" xmlns="http://www.w3.org/2000/svg">
<circle cx="24" cy="24" r="24" fill="white"/>
<path d="M17.3249 21.2579L23.9994 14.5833L30.6771 21.2608L34.5607 17.3772L23.9994 6.81616L13.4416 17.374L17.325 21.2576L17.3249 21.2579ZM6.81543 24.0002L10.6992 20.1159L14.5826 23.9993L10.6989 27.8831L6.81543 24.0002ZM17.3249 26.7429L23.9994 33.417L30.677 26.7397L34.5626 30.6212L34.5607 30.6233L23.9994 41.1842L13.4416 30.6263L13.4361 30.6208L17.3253 26.7424L17.3249 26.7429ZM33.4163 24.0018L37.3 20.1181L41.1834 24.0015L37.2998 27.8853L33.4163 24.0018Z" fill="#F3BA2F"/>
<path d="M27.9384 23.9982H27.9401L23.9995 20.0574L21.0869 22.9692L20.7523 23.304L20.0621 23.9943L20.0566 23.9996L20.0621 24.0053L23.9995 27.9432L27.9403 24.0024L27.9423 24.0002L27.9387 23.9982" fill="#F3BA2F"/>
</svg>
