<svg width="48" height="48" viewBox="0 0 48 48" fill="none" xmlns="http://www.w3.org/2000/svg">
<path d="M47.2812 29.8059C44.0753 42.663 31.0518 50.4877 18.1919 47.2815C5.33712 44.076 -2.48839 31.0531 0.718914 18.1968C3.92322 5.33814 16.9467 -2.48728 29.803 0.71819C42.6622 3.92366 50.487 16.948 47.2812 29.8059Z" fill="#F7931A"/>
<path d="M34.5824 20.5809C35.0602 17.3875 32.6285 15.6707 29.3034 14.5255L30.382 10.1995L27.7485 9.54329L26.6984 13.7552C26.0061 13.5827 25.295 13.42 24.5884 13.2588L25.646 9.01904L23.014 8.36279L21.9347 12.6872C21.3616 12.5567 20.7991 12.4278 20.253 12.292L20.256 12.2785L16.6242 11.3718L15.9236 14.1842C15.9236 14.1842 17.8775 14.632 17.8363 14.6597C18.9029 14.926 19.0956 15.6317 19.0634 16.1912L17.8348 21.1194C17.9083 21.1382 18.0036 21.1652 18.1086 21.2072C18.0208 21.1854 17.927 21.1614 17.8303 21.1382L16.1081 28.0419C15.9776 28.3659 15.6468 28.8518 14.9013 28.6673C14.9275 28.7056 12.9871 28.1896 12.9871 28.1896L11.6797 31.2038L15.1068 32.0581C15.7443 32.2178 16.3691 32.385 16.9842 32.5425L15.8944 36.918L18.5249 37.5743L19.6042 33.2453C20.3228 33.4403 21.0203 33.6203 21.7029 33.7898L20.6273 38.0985L23.2608 38.7547L24.3507 34.3875C28.8413 35.2373 32.2182 34.8945 33.6396 30.8333C34.7849 27.5633 33.5825 25.6771 31.2198 24.4471C32.9405 24.0504 34.2366 22.9187 34.5824 20.5809ZM28.5653 29.0176C27.7515 32.2876 22.2452 30.5198 20.46 30.0766L21.9062 24.2799C23.6913 24.7254 29.4159 25.6074 28.5653 29.0176ZM29.3799 20.5337C28.6373 23.5081 24.0544 21.9969 22.5677 21.6264L23.8789 16.369C25.3655 16.7395 30.1532 17.431 29.3799 20.5337Z" fill="white"/>
</svg>
