<svg width="48" height="48" viewBox="0 0 48 48" fill="none" xmlns="http://www.w3.org/2000/svg">
<circle cx="24" cy="24" r="24" fill="#44D7E2"/>
<path fill-rule="evenodd" clip-rule="evenodd" d="M14.9573 14.21C14.5121 11.896 16.2926 9.76001 18.6073 9.76001C20.6549 9.76001 22.3464 11.451 22.3464 13.498V18.126C22.8805 18.126 23.4147 18.037 23.9488 18.037C24.483 18.037 24.9281 18.037 25.4623 18.126V13.498C25.4623 11.451 27.1538 9.76001 29.2013 9.76001C31.516 9.76001 33.2965 11.896 32.9404 14.21L31.9611 19.639C35.4331 21.152 38.1039 23.822 38.1039 27.115V29.162C38.1039 31.921 36.3234 34.235 33.7416 35.748C31.1599 37.35 27.7769 38.24 23.9488 38.24C20.1207 38.24 16.7378 37.35 14.156 35.748C11.6633 34.235 9.88281 31.921 9.88281 29.162V27.115C9.88281 23.822 12.4646 21.152 15.9365 19.639L14.9573 14.21ZM30.6258 20.351L31.7831 13.943C32.0502 12.341 30.8928 10.828 29.2013 10.828C27.7769 10.828 26.6196 11.985 26.6196 13.409V19.283C26.2635 19.194 25.8184 19.194 25.4623 19.194C24.9281 19.194 24.483 19.105 23.9488 19.105C23.4147 19.105 22.8805 19.105 22.3464 19.194C21.9903 19.194 21.5452 19.283 21.1891 19.283V13.498C21.1891 12.074 20.0317 10.917 18.6073 10.917C17.0049 10.917 15.7585 12.43 16.1146 14.032L17.2719 20.44C13.5329 21.864 11.0401 24.356 11.0401 27.204V29.251C11.0401 33.612 16.8268 37.172 23.9488 37.172C31.0709 37.172 36.8575 33.612 36.8575 29.251V27.204C36.9466 24.267 34.4539 21.775 30.6258 20.351Z" fill="#633001"/>
<path d="M36.9465 29.1617C36.9465 33.5226 31.1598 37.0826 24.0377 37.0826C16.9156 37.0826 11.1289 33.5226 11.1289 29.1617V27.1147H37.0355V29.1617H36.9465Z" fill="#FEDC90"/>
<path fill-rule="evenodd" clip-rule="evenodd" d="M16.1143 14.032C15.7582 12.43 17.0046 10.917 18.607 10.917C20.0314 10.917 21.1887 12.074 21.1887 13.498V19.372C22.079 19.283 22.9692 19.194 23.9485 19.194C24.8388 19.194 25.729 19.283 26.6192 19.372V13.498C26.6192 12.074 27.7766 10.917 29.201 10.917C30.8034 10.917 32.0498 12.43 31.7827 14.032L30.6254 20.44C34.3644 21.864 36.9461 24.356 36.9461 27.204C36.9461 31.565 31.1595 35.125 24.0375 35.125C16.9155 35.125 11.1289 31.565 11.1289 27.204C11.1289 24.356 13.6216 21.864 17.3607 20.44L16.1143 14.032Z" fill="#D1884F"/>
<path d="M20.3878 26.5811C20.3878 27.7382 19.7647 28.7172 18.9635 28.7172C18.1622 28.7172 17.5391 27.7382 17.5391 26.5811C17.5391 25.4241 18.1622 24.4451 18.9635 24.4451C19.7647 24.4451 20.3878 25.4241 20.3878 26.5811Z" fill="#633001"/>
<path d="M30.2689 26.5811C30.2689 27.7382 29.6457 28.7172 28.8444 28.7172C28.0431 28.7172 27.4199 27.7382 27.4199 26.5811C27.4199 25.4241 28.0431 24.4451 28.8444 24.4451C29.6457 24.4451 30.2689 25.4241 30.2689 26.5811Z" fill="#633001"/>
</svg>
