<svg width="48" height="48" viewBox="0 0 48 48" fill="none" xmlns="http://www.w3.org/2000/svg">
<path d="M24 48C37.2548 48 48 37.2548 48 24C48 10.7452 37.2548 0 24 0C10.7452 0 0 10.7452 0 24C0 37.2548 10.7452 48 24 48Z" fill="#988430"/>
<path d="M23.9998 47.2313C36.83 47.2313 47.231 36.8303 47.231 24C47.231 11.1698 36.83 0.768799 23.9998 0.768799C11.1695 0.768799 0.768555 11.1698 0.768555 24C0.768555 36.8303 11.1695 47.2313 23.9998 47.2313Z" fill="#7A6A2A"/>
<path d="M23.9996 46.7418C36.5595 46.7418 46.7413 36.56 46.7413 24.0001C46.7413 11.4401 36.5595 1.2583 23.9996 1.2583C11.4396 1.2583 1.25781 11.4401 1.25781 24.0001C1.25781 36.56 11.4396 46.7418 23.9996 46.7418Z" fill="#BA9F33"/>
<path fill-rule="evenodd" clip-rule="evenodd" d="M10.4937 21.4369C10.3577 21.3128 10.2141 21.1884 10.082 21.0642C9.94992 20.94 9.81424 20.8156 9.6783 20.6915L9.27433 20.3075C9.20829 20.2414 9.1384 20.1833 9.07235 20.117C9.0063 20.0589 8.92873 19.9928 8.86269 19.9345C8.32662 19.4258 7.78749 18.9171 7.25884 18.4082C7.80643 18.9092 8.34249 19.4066 8.89008 19.915L9.08029 20.1055C9.14633 20.1713 9.21622 20.2296 9.28227 20.2957L9.68598 20.6684C9.82192 20.7926 9.95401 20.917 10.09 21.0524C10.2259 21.1878 10.358 21.3125 10.4939 21.4364L10.4937 21.4369ZM3.37916 21.3601C3.37916 21.3601 5.3286 21.5619 6.28016 21.6978C7.16156 21.8222 9.91894 22.2454 9.91894 22.2454L3.37916 21.3601ZM3.37916 21.3601C3.92675 21.4067 4.47433 21.4648 5.02192 21.5232C5.30147 21.5503 5.5695 21.5813 5.83753 21.6084L6.24892 21.6553C6.38486 21.6745 6.51696 21.6939 6.65289 21.7134L8.28412 21.9735L9.09949 22.1094C9.36752 22.156 9.63555 22.2067 9.9151 22.2533C9.64707 22.2262 9.36752 22.1873 9.09949 22.1483L8.28412 22.0319L6.65289 21.7912C6.51696 21.7718 6.38486 21.7444 6.24892 21.7252L5.83728 21.6778C5.56924 21.6507 5.28969 21.6118 5.02166 21.5805C4.47407 21.5148 3.92649 21.4446 3.37891 21.3594L3.37916 21.3601ZM9.72489 22.7533C9.72489 22.7533 7.64336 23.2817 6.94038 23.4836C6.24918 23.6738 4.15587 24.3108 4.15587 24.3108L9.72464 22.7535L9.72489 22.7533Z" fill="#CFB66C"/>
<path fill-rule="evenodd" clip-rule="evenodd" d="M9.72406 22.7532C9.26198 22.8891 8.80245 23.0212 8.33372 23.1456L6.94338 23.5184C6.4813 23.6543 6.02178 23.7864 5.56098 23.9223L4.86978 24.1125C4.64066 24.1786 4.4077 24.2367 4.1709 24.303C4.39976 24.2262 4.63298 24.1476 4.8621 24.0816L5.5533 23.8604C6.01538 23.7165 6.4749 23.5806 6.9357 23.437C7.40546 23.3205 7.8678 23.1961 8.33756 23.0834C8.78402 22.9708 9.25404 22.8584 9.72406 22.7534V22.7532ZM4.44661 25.5922C4.67547 25.5067 7.31637 24.2759 7.93001 23.9884C8.23721 23.8445 9.13013 23.5276 9.13013 23.5276L4.44661 25.5922Z" fill="#CFB66C"/>
<path fill-rule="evenodd" clip-rule="evenodd" d="M4.44654 25.5924C4.64827 25.5156 4.83874 25.4217 5.03279 25.3323L5.6075 25.0643L6.76104 24.509C7.14504 24.3265 7.51829 24.125 7.91432 23.9535C8.1163 23.8683 8.31829 23.7984 8.52002 23.7323L8.82722 23.6353C8.93192 23.6082 9.0292 23.5769 9.13442 23.5498C8.75042 23.7323 8.34619 23.8877 7.96168 24.0662C7.57768 24.2566 7.18498 24.412 6.78869 24.5828L5.61595 25.0991C5.22223 25.2586 4.83823 25.4294 4.44629 25.5924H4.44654ZM4.70254 26.6676C4.70254 26.6676 7.09461 25.2658 7.9179 24.8152C8.34901 24.5746 9.74318 23.8831 9.74318 23.8831L4.70254 26.6676Z" fill="#CFB66C"/>
<path fill-rule="evenodd" clip-rule="evenodd" d="M4.70312 26.6682C5.10684 26.4196 5.51848 26.1672 5.93013 25.9109L6.54453 25.5379C6.7542 25.4138 6.95618 25.2973 7.16994 25.1731C7.3796 25.0487 7.58159 24.9246 7.79509 24.8081C7.89673 24.7453 8.00322 24.6908 8.11355 24.645L8.4397 24.4819C8.8708 24.2723 9.30191 24.0585 9.75631 23.876C9.34466 24.1363 8.92123 24.3578 8.49807 24.5866C8.2884 24.7031 8.07464 24.8081 7.86498 24.9246C7.65531 25.041 7.45333 25.1654 7.23957 25.2781C7.02991 25.4022 6.82792 25.5187 6.61442 25.6314L5.98133 25.977L4.70364 26.6682H4.70312ZM9.72431 24.1903C9.72431 24.1903 8.23695 25.3321 7.75541 25.6972C7.27388 26.0622 5.8564 27.0875 5.8564 27.0875L9.72431 24.1903Z" fill="#CFB66C"/>
<path fill-rule="evenodd" clip-rule="evenodd" d="M18.2601 33.3981L17.499 31.9573L17.9416 30.1553L21.0989 28.936L19.7552 26.1789L20.4192 23.3943L21.6659 20.9009L25.5185 20.2952L28.3493 17.5962L34.4621 18.0583L35.662 24.5942L33.3513 32.8233L32.035 37.0837L26.6989 37.2857L24.2213 35.5692L21.3203 34.3573L18.2601 33.3981Z" fill="#E2CC85"/>
<path fill-rule="evenodd" clip-rule="evenodd" d="M27.62 33.3515C27.62 33.3515 26.8819 33.6894 25.6232 33.6116C25.2589 33.1223 22.7076 32.8932 22.7076 32.8932C22.7076 32.8932 22.3891 32.7962 21.8259 33.0292C21.2592 33.2596 20.7231 33.2311 20.2221 33.3553C19.7211 33.4795 19.2237 32.8272 18.8397 32.6912C18.4557 32.5476 17.9465 32.202 17.9465 32.202L16.8713 32.0971L14.7122 31.1844L11.2821 27.7671L10.35 29.2263L10.0625 31.0321L11.0996 33.172L13.8917 35.7156L19.3363 37.098L22.5635 36.1472L26.6062 34.4384L27.62 33.3512V33.3515Z" fill="#F1D789"/>
<path fill-rule="evenodd" clip-rule="evenodd" d="M8.27535 21.2738L8.96655 19.1808L9.79011 17.8291L12.4423 17.6077L11.6461 19.9301L9.42889 23.8758L10.3492 27.3981L8.71823 28.2135L8.21698 27.4447L7.81327 25.6816L7.78613 23.701L8.27535 21.2738Z" fill="#F4ECB4"/>
<path fill-rule="evenodd" clip-rule="evenodd" d="M11.2503 33.2077L10.7416 32.4971C10.7416 32.4971 10.6056 32.1592 10.6835 31.864C10.7603 31.565 10.7493 31.5455 10.7106 31.4329C10.672 31.3203 10.3456 30.9319 10.365 30.5978C10.3842 30.2599 10.3379 30.1473 10.5862 29.8795C10.8463 29.6194 10.7687 29.1688 10.7687 29.1688L11.1066 29.3785L11.1834 29.262C11.1834 29.262 11.3076 29.359 11.3076 29.5106C11.3347 29.3009 11.2221 28.3299 11.4784 28.1087C11.7346 27.8876 12.189 29.1455 12.189 29.1455L11.9095 27.3203L11.1909 25.4486L9.91317 23.7398L9.83637 21.8562V21.6931C9.83637 21.6931 9.24987 22.5942 9.0868 23.3059C8.97032 23.7951 9.24987 24.3893 9.19176 25.0923C9.14491 25.7914 9.0868 25.7369 9.25755 26.0139C9.4283 26.2909 9.84405 26.8605 9.68098 27.2721C9.53736 27.6257 9.04789 27.3771 9.04789 27.3771C9.04789 27.3771 8.95086 27.6643 8.81877 27.7693C8.77217 27.5985 8.72174 27.4897 8.62856 27.3853C8.62062 27.4513 8.60142 27.5407 8.60142 27.5407C8.60142 27.5407 8.51592 27.2726 8.43042 26.9347C8.31419 26.4844 8.18977 25.8902 8.07713 25.5718C8.03054 25.7543 7.91406 26.3096 7.91406 26.3096L7.98011 27.1641L8.29858 28.3368L8.60578 29.1048L8.90478 30.0446L9.16462 30.6759L9.37429 31.1574L9.55682 32.2411L10.4382 33.1729L10.9082 33.3829L11.2497 33.208L11.2503 33.2077Z" fill="#F3E19D"/>
<path fill-rule="evenodd" clip-rule="evenodd" d="M8.73753 19.5651C8.73753 19.5651 8.10444 20.6403 7.92217 21.7242C7.73989 22.8081 7.57657 23.9534 7.69177 25.429C7.80825 26.9166 8.02969 27.829 8.20837 28.4815C8.51558 29.5652 9.31122 31.072 9.31122 31.072L9.33836 31.0136C9.20462 30.7601 9.09788 30.4933 9.0199 30.2175C8.91494 29.8058 8.87602 29.3166 8.779 29.0952C8.6935 28.874 8.54988 28.6835 8.47999 28.4116C8.41394 28.1515 8.40319 27.7399 8.20044 27.4332C8.11493 27.3088 8.00997 26.9827 7.979 26.6565C7.94009 26.167 7.99846 25.6195 7.95186 25.1692C7.86636 24.4196 7.80825 23.9109 7.88581 23.5185C7.96338 23.126 8.36761 22.0119 8.61618 21.1264C8.77926 20.5594 8.68198 20.0817 8.98098 19.5884C9.27999 19.0991 9.46278 18.668 9.52857 18.369C9.60537 18.0972 8.7365 19.5651 8.7365 19.5651H8.73753Z" fill="#F2E8B0"/>
<path fill-rule="evenodd" clip-rule="evenodd" d="M11.7399 19.134C11.7399 19.134 11.4138 19.2313 11.2584 19.4021C11.103 19.5651 11.037 19.7011 10.8273 19.9768C10.6176 20.2525 10.6058 20.4778 10.4348 20.8234C10.2641 21.1613 9.88726 21.67 9.84066 21.8525C9.79407 22.035 9.7165 22.8893 9.61948 23.2933C9.53398 23.6972 9.7165 24.1944 9.7165 24.1944L9.93769 24.1475C9.93769 24.1475 9.93769 24.435 10.1591 24.6293C10.3803 24.8195 10.4192 23.9845 10.4192 23.9845L11.2464 21.1923L12.4928 20.3457L12.6288 19.6622L11.7394 19.134H11.7399Z" fill="#F5EEC0"/>
<path fill-rule="evenodd" clip-rule="evenodd" d="M12.3453 20.4C12.3453 20.4 11.7588 20.4387 11.4716 20.6486C11.3551 20.7338 11.3085 20.8037 11.1843 20.9087C10.9552 21.0989 10.722 21.2738 10.6096 21.5231C10.4852 21.7714 10.3493 22.1483 10.2561 22.8589C10.2172 23.1579 10.2172 23.4336 10.19 23.6745C10.1511 24.0007 10.093 24.2608 10.124 24.4425C10.1629 24.8153 10.5474 25.0096 10.5848 25.4328L11.381 25.029L12.1305 22.0735L13.7228 21.0751L12.8217 20.0654L12.3443 20.3982L12.3453 20.4Z" fill="#E6DB9D"/>
<path fill-rule="evenodd" clip-rule="evenodd" d="M8.14576 40.3018C8.14909 40.2726 8.15242 40.2434 8.15575 40.2135C8.27197 39.2151 8.29168 38.4583 8.37693 37.9845C8.50109 37.3127 8.5866 37.0629 8.56714 36.8115C8.54 36.4078 8.50903 36.1126 8.54794 35.8018C8.60605 35.3902 9.01002 34.9009 8.9985 34.563C8.99056 34.295 8.85463 34.1204 8.73815 33.9573C8.62167 33.7943 8.52848 33.6583 8.52848 33.6583C8.52848 33.6583 9.32465 33.1107 9.31697 30.9048C9.33322 30.9094 9.34887 30.9159 9.36356 30.9242L9.75575 32.0386L10.0238 32.3648L11.0529 34.2832L12.3772 35.5689L14.3343 36.8852L15.5616 38.2208L15.6857 41.782L14.0819 43.8635L13.8192 44.3392C11.7325 43.2916 9.81898 41.9298 8.14551 40.3015L8.14576 40.3018Z" fill="#E5CB7A"/>
<path fill-rule="evenodd" clip-rule="evenodd" d="M13.0449 43.7086C13.0449 43.7086 13.0721 43.266 13.4371 42.9785C13.4955 43.0755 13.5341 43.1689 13.5226 43.2386C13.5887 43.1223 14.0507 42.3766 15.0955 42.1823C16.1402 41.9921 16.3926 41.231 16.3926 41.231L18.6099 39.2155L21.1458 36.8816L24.2293 35.7979L25.6703 35.4444C25.6703 35.4444 25.6975 35.5494 25.6432 35.7823C25.911 35.7631 26.5051 35.6272 27.1226 35.4096C27.3712 35.3126 27.6044 35.2736 27.7286 35.4019C27.9111 35.5727 27.9382 35.9766 27.9498 36.2173C28.2488 36.1512 28.5944 35.864 28.8714 35.8911C29.3142 35.9377 29.7064 36.4582 30.157 36.4582C30.7512 36.4582 31.0189 36.0931 31.4347 35.8056C31.6833 35.6349 32.0404 35.4216 32.2424 35.2775C32.7239 34.9239 37.8191 33.3667 37.8191 33.3667L39.6054 33.4832L39.8929 35.4016L39.7393 40.4167C39.7204 40.4349 39.7014 40.4538 39.6822 40.472L31.5599 44.7142L20.301 46.4401C17.779 46.028 15.3452 45.1909 13.1033 43.9643L13.0457 43.7083L13.0449 43.7086Z" fill="#D8C173"/>
<path fill-rule="evenodd" clip-rule="evenodd" d="M8.82812 40.9398C8.98812 40.6052 9.132 40.3254 9.15734 40.2253C9.17731 40.4271 9.21392 40.8697 9.28764 41.3402C9.13285 41.2086 8.97968 41.0751 8.82812 40.9396V40.9398Z" fill="#F1D789"/>
<path fill-rule="evenodd" clip-rule="evenodd" d="M17.0526 45.6593L18.5087 45.2543L18.6329 45.2933C18.6329 45.2933 18.6989 45.3322 18.6989 45.464C18.8814 45.3593 19.0368 45.3785 19.1495 45.3089C19.2076 45.433 19.2657 45.8447 19.5222 45.8951C19.79 45.9535 20.0775 45.7786 20.3688 45.5574C20.656 45.3283 20.9832 45.0408 21.2308 44.9244C21.3216 45.0914 21.402 45.2638 21.4717 45.4407C21.7978 45.1806 22.3648 44.1244 23.1725 44.1436C23.406 43.5919 23.796 43.1207 24.2943 42.7883C25.0439 42.2796 25.5136 42.2407 26.1001 42.2873C26.3331 41.9847 26.6201 41.728 26.9467 41.5301C27.0438 41.569 27.3118 41.732 27.6459 41.5766C27.9838 41.4215 28.3642 40.8194 28.8652 40.7418C29.1352 40.7047 29.4097 40.7623 29.6419 40.9049C29.6419 40.9049 31.1011 39.4562 32.108 38.9747C32.069 38.8582 31.9915 38.4194 33.1719 37.4484C33.2379 37.5068 33.1913 37.6698 33.2379 37.6788C33.2571 37.6788 33.5451 37.5546 33.9097 37.2748C34.3602 36.9372 34.8999 36.5836 35.226 36.4866C35.8404 36.3041 36.4922 36.6768 36.4922 36.6768C36.5476 36.6379 36.6094 36.609 36.6747 36.5913C36.8299 36.5642 36.9425 36.5447 37.028 36.5145C37.0203 36.7165 37.133 37.0621 37.028 37.3611C37.1496 37.4295 37.2784 37.4842 37.412 37.5242C37.3462 37.6678 37.2024 38.0328 36.9617 38.2077C37.1634 38.3047 37.1906 38.4174 37.4781 38.5149C37.3616 38.678 37.1709 38.9578 37.0859 39.1293C37.0004 39.3118 36.6934 40.0691 36.5575 40.3563C36.4139 40.6438 36.2198 41.1719 36.1264 41.2779C36.033 41.3839 35.6953 41.8332 35.4352 42.0543C35.6656 41.9688 36.6082 41.6816 37.0081 41.5728C36.889 41.7474 36.2856 42.6426 35.7055 43.5036C32.928 45.1683 29.8277 46.222 26.611 46.5944C23.3943 46.9668 20.1351 46.6493 17.0508 45.6632L17.0526 45.6593Z" fill="#E0CD81"/>
<path fill-rule="evenodd" clip-rule="evenodd" d="M12.4412 20.2953C12.4412 20.2953 12.1036 20.2953 12.0375 20.3419C11.9715 20.3885 12.3754 20.4858 12.4996 20.5324C12.6238 20.5789 12.8918 20.7924 12.9617 20.9635C13.0277 21.1265 15.3888 22.0778 15.3888 22.0778L17.0587 21.9923L17.6344 21.1969L16.5393 20.2377L17.3073 17.9736L16.2899 18.1367L13.8433 19.5959L12.6161 20.0659L12.4412 20.2953Z" fill="#DFC57C"/>
<path fill-rule="evenodd" clip-rule="evenodd" d="M16.1086 21.0446C16.1328 21.0837 16.1668 21.1157 16.2072 21.1375C16.2477 21.1593 16.2931 21.1701 16.339 21.1688C16.6846 21.1688 17.0028 21.2543 17.1349 21.4289C17.3564 21.7087 17.97 22.6019 17.97 22.6019L19.4379 23.13L19.5326 21.4015L17.9288 20.2871L16.1035 20.9589V21.0444H16.1076L16.1086 21.0446Z" fill="#E5CC7C"/>
<path fill-rule="evenodd" clip-rule="evenodd" d="M15.8202 21.6856C15.8202 21.6856 16.088 21.7051 16.4259 21.5806C16.7639 21.4562 17.3191 21.1884 17.56 21.2934C17.8977 21.437 17.8278 21.8876 18.1931 22.2918C18.4143 22.5404 18.8183 22.5327 19.0474 22.8007C19.2765 23.0688 20.0647 22.9443 20.0647 22.9443L20.3637 24.5571L19.1639 26.0952L18.7714 28.0057H17.1489L15.6666 27.4177L14.9365 25.6513L15.3016 23.8649L15.8202 21.6856Z" fill="#D2C281"/>
<path fill-rule="evenodd" clip-rule="evenodd" d="M18.9595 21.7631C18.9997 21.7755 19.0415 21.782 19.0836 21.7825C19.0371 21.8215 18.9398 21.9067 18.9787 22.1281C19.0176 22.3496 19.1418 22.6291 19.0371 22.7999C19.1206 22.8913 19.183 23 19.2196 23.1184C19.2856 23.3088 19.3051 23.4834 19.7359 23.5108C19.6738 23.5491 19.6164 23.5947 19.5652 23.6467C19.5652 23.6467 19.8642 23.9068 20.0157 24.1475C20.1709 24.1408 20.5825 24.0128 20.5825 24.0128L20.668 24.0712L20.8506 23.9944C20.8506 23.9944 20.6798 23.9283 20.804 23.5128C20.9204 23.1478 21.0254 23.1672 21.0344 23.1401C21.0433 23.113 21.1199 22.7285 21.1199 22.5731C21.178 22.3713 21.2246 21.7577 21.2246 21.7577L21.1004 20.4025L20.4015 19.979L19.8332 19.4304L19.2972 20.4401L18.9441 20.7921L18.917 21.6658L18.9595 21.7631Z" fill="#E2C270"/>
<path fill-rule="evenodd" clip-rule="evenodd" d="M20.6406 20.6293C20.6406 20.6293 20.7648 20.9826 20.8116 21.2545C20.8281 21.2016 20.8373 21.1468 20.8388 21.0914C20.8388 21.0914 20.9358 21.6275 20.955 21.8489C20.9939 21.841 21.0318 21.8295 21.0405 21.8681C21.0492 21.9068 21.1378 22.3381 21.1173 22.5788C21.279 22.312 21.5028 22.0882 21.7696 21.9265C21.925 21.8292 22.1075 21.7245 22.298 21.7166C22.597 21.7089 22.8143 21.907 23.1717 21.907C24.0336 21.907 24.8144 21.2739 25.3892 21.0799C25.8123 20.936 26.1774 20.8313 26.4336 20.5981C26.5581 20.4934 26.7795 20.2604 26.9812 19.9146C27.2493 19.4538 27.5288 19.0526 27.8086 19.0022C27.682 19.0255 27.5532 19.0346 27.4246 19.0293C27.4246 19.0293 27.5101 18.9438 27.655 18.8273C27.7999 18.7109 27.9735 18.5672 28.2218 18.5672C28.6647 18.5672 28.8859 18.633 29.1344 18.633C29.383 18.6254 29.5266 18.5672 29.5266 18.5672C29.5266 18.5672 29.787 18.7498 30.3732 18.7498C30.9597 18.7575 31.3519 18.8079 31.6589 18.8353C31.9658 18.8627 32.9947 18.7498 33.2898 18.7585C33.4823 18.7659 33.6712 18.8121 33.8453 18.8944L32.8938 16.1296L29.4757 13.1421L27.4407 14.5829L24.3104 17.713L21.2814 18.8353L20.6483 19.5459V20.6293H20.6406Z" fill="#CCB360"/>
<path fill-rule="evenodd" clip-rule="evenodd" d="M27.437 19.0446C27.437 19.0446 27.5225 18.9594 27.6659 18.8429C27.8092 18.7264 27.9846 18.5825 28.2329 18.5825C28.6755 18.5825 28.897 18.6486 29.1456 18.6486C29.3941 18.6409 29.5377 18.5825 29.5377 18.5825C29.5377 18.5825 29.7984 18.7648 30.3843 18.7648C30.9708 18.7725 31.363 18.8229 31.67 18.8501C31.9769 18.8772 33.0058 18.7648 33.3009 18.7733C33.4933 18.7805 33.6822 18.8268 33.8562 18.9092L33.4251 17.6625L32.9244 16.7112L31.4951 15.146C31.4951 15.146 29.7799 14.1363 29.7669 14.1286C29.7592 14.121 29.1727 13.9656 29.1727 13.9656L27.6193 14.9054L26.2098 18.5521L26.1826 19.3201L27.095 19.7512C27.3241 19.3672 27.5768 19.06 27.8136 19.0211C27.5998 19.0444 27.4368 19.0444 27.4368 19.0444L27.437 19.0446Z" fill="#D5B457"/>
<path fill-rule="evenodd" clip-rule="evenodd" d="M27.4179 19.305C27.282 19.3127 27.1696 19.2856 27.1384 19.1886C27.0219 18.8624 26.9287 18.8158 26.8312 18.8158C26.7336 18.8158 26.602 19.0255 26.524 19.0447C26.4459 19.0639 26.3532 18.804 26.3532 18.804L26.2677 18.7651C26.2677 18.7651 25.7667 19.0913 25.4134 19.4758C25.0602 19.8603 24.4813 20.5128 24.2212 20.6291C23.9612 20.7453 23.0677 20.7845 22.762 20.8505C22.4564 20.9166 22.1174 21.138 22.0708 21.1884C22.0243 21.2389 22.207 21.2931 22.2342 21.3436C22.2613 21.3902 21.9349 21.3707 21.9078 21.4204C21.8886 21.4593 21.9846 21.6805 22.0322 21.7931C22.1155 21.7517 22.2069 21.7291 22.3 21.7271C22.599 21.7194 22.8166 21.9175 23.1737 21.9175C24.0359 21.9175 24.8164 21.2844 25.3912 21.0901C25.8146 20.9465 26.1796 20.8416 26.4359 20.6086C26.5601 20.5039 26.7815 20.2707 26.9835 19.9251C27.1309 19.6883 27.2748 19.4668 27.4187 19.3038L27.4179 19.305Z" fill="#D2B257"/>
<path fill-rule="evenodd" clip-rule="evenodd" d="M15.0531 38.5245C15.0531 38.5245 14.9763 38.237 14.2646 37.4954C14.0626 37.2857 13.9384 37.1114 13.8025 36.9867C13.4646 36.668 13.2664 36.5827 13.0258 36.4002C12.4977 36.008 11.9229 36.008 11.4803 35.5265C11.0377 35.0449 10.5219 34.1249 10.1635 33.1846C9.81017 32.2448 9.71289 31.9458 9.71289 31.9187C9.71289 31.8915 9.81017 31.709 9.93433 31.7361C10.0585 31.7633 10.0585 32.0039 10.0897 32.0623C10.1516 32.1576 10.2217 32.2472 10.2994 32.3301C10.4819 32.54 10.742 32.7909 10.8741 33.1651C10.847 32.8467 10.7382 32.4934 10.7382 32.4934C10.7382 32.4934 11.4217 32.9245 12.0041 33.3748C12.5906 33.8254 12.8312 33.9808 13.0025 34.268C13.1738 34.5552 13.5772 35.3127 13.7705 35.5342C13.9638 35.7556 16.6121 36.5904 16.6121 36.5904L17.8719 37.5297L18.4973 38.9006L18.0078 39.6686L17.068 39.8705L15.5418 39.187L15.0531 38.5242V38.5245Z" fill="#D2B159"/>
<path fill-rule="evenodd" clip-rule="evenodd" d="M11.6621 33.8021C11.6621 33.8021 11.9806 34.3107 12.7573 34.7923C13.4564 35.2157 14.5631 35.6002 15.5497 35.8293C16.1165 35.9652 16.6835 36.07 17.1922 36.0779C18.5631 36.0971 19.5067 35.7052 20.6759 35.5769C21.309 35.5108 22.0857 35.4604 22.8933 35.2697C23.9301 35.0211 24.5438 34.7413 25.3788 34.3481C25.9845 34.0685 26.5401 33.8589 26.9904 33.5909C27.6234 33.2181 28.0855 32.8026 28.6216 32.6785C28.5555 32.861 28.4857 33.1871 27.9575 33.5251C28.2371 33.5171 28.6216 33.4979 28.6216 33.4979C28.6216 33.4979 28.2489 33.7191 27.5925 34.2163C27.1885 34.5235 26.6527 35.0434 26.1051 35.389C25.7516 35.6104 25.3671 35.773 25.1146 35.9056C24.5002 36.2435 24.2524 36.4143 23.8487 36.8272C23.9923 36.8195 24.0041 36.8272 24.0041 36.8272C24.0041 36.8272 23.4952 36.8932 23.1304 37.0873C23.0536 37.0873 22.9205 37.0602 22.6875 37.1262C22.505 37.1843 22.2641 37.3167 22.0158 37.3863C21.6622 37.4913 21.546 37.4447 21.546 37.4447L21.6041 37.5612C21.6041 37.5612 21.1433 37.5532 20.9897 37.5688C21.0169 37.5765 21.0092 37.5883 21.0092 37.5883C20.9822 37.5928 20.9562 37.602 20.9324 37.6154C20.8585 37.6633 20.7772 37.6987 20.6917 37.7201C20.6451 37.7278 20.6062 37.7278 20.5479 37.7396C20.5673 37.7862 20.7189 38.0468 20.7888 38.2004C20.7306 38.2393 19.8567 38.8995 19.8567 38.8995C19.8838 38.9422 19.9059 38.9878 19.9227 39.0355C19.9499 39.1207 19.9616 39.2451 19.9888 39.3032C20.0546 39.4197 20.0935 39.4392 20.0935 39.4392C20.0935 39.4392 19.9888 39.4586 19.806 39.5052C19.6508 39.5441 19.4604 39.6099 19.1916 39.6488C19.1091 39.6596 19.0261 39.6661 18.943 39.6683C18.9819 39.7538 19.1527 40.0799 18.838 40.4565C18.5234 40.8331 18.4264 40.8879 18.3294 41.1285C18.2805 41.0916 18.2285 41.059 18.174 41.0312C18.0693 40.9846 17.9254 40.915 17.875 40.8216C17.8456 40.9461 17.8066 41.0681 17.7585 41.1866C17.6615 41.4467 17.5179 41.7032 17.4907 41.8973C17.3858 41.7808 17.1917 41.5517 16.9237 41.5983C16.6556 41.6449 16.4421 42.0099 16.3955 42.1149C16.3955 42.0488 16.349 41.9984 16.3374 42.076C16.3295 42.1615 16.182 43.0544 15.3587 43.7768C15.3511 43.5943 15.3511 43.1903 15.3316 43.0585C15.2548 43.1353 15.1609 43.2487 14.6015 43.4896C14.0539 43.7302 14.1407 43.9711 14.1407 43.9711C14.1407 43.9711 14.0941 43.5871 14.3893 43.1827C14.6883 42.7789 14.8708 42.5885 14.8708 42.5575C14.866 42.526 14.8525 42.4964 14.8319 42.472C14.793 42.4331 14.7154 42.3865 14.7154 42.3555C14.762 42.3363 15.2241 42.1149 15.197 41.6564C15.1698 41.245 14.9952 41.0312 14.8708 40.8799C14.8516 40.8605 15.0536 40.7169 15.0262 40.6703C15.0067 40.6431 14.7584 40.4604 14.7272 40.3631C14.7345 40.305 14.7476 40.2478 14.7661 40.1923C14.7932 40.1068 14.8127 40.0485 14.805 39.9903C14.7856 39.8933 14.6806 39.6253 14.6496 39.5981C14.6768 39.6058 14.8708 39.5981 14.8708 39.5981C14.8708 39.5981 14.7157 39.3496 14.6883 39.2331C14.6609 39.1166 14.6028 38.8097 14.5718 38.7516C14.6379 38.7592 14.8009 38.7708 14.8009 38.7516C14.8089 38.6932 14.6573 38.5962 14.7241 38.5212C14.7707 38.5288 14.8601 38.5677 14.9453 38.6765C14.8987 38.5521 14.8211 38.3115 14.6578 38.2145C14.7346 38.1873 14.9957 38.1172 15.2249 38.2531C15.454 38.3891 15.5321 38.5793 15.5321 38.5793C15.5321 38.5793 15.668 38.6842 15.8779 38.8396C16.1186 39.0298 16.4252 39.3004 16.9147 39.4919C17.0197 39.5503 17.2875 39.5503 17.4818 39.5114C17.5664 39.4912 17.6475 39.4585 17.7224 39.4143C17.7494 39.3984 17.7781 39.3854 17.8079 39.3754C17.7662 39.2916 17.7181 39.2111 17.6643 39.1345C17.7303 39.1345 17.8079 39.1425 17.8079 39.1425C17.8079 39.1425 17.8545 39.0375 17.6448 38.8353C17.6914 38.7887 17.7498 38.7585 17.7498 38.6799C17.6837 38.6722 17.5673 38.5752 17.5401 38.5363C17.5788 38.5091 17.6371 38.4198 17.7032 38.3926C17.6448 38.346 17.5012 38.1517 17.4352 38.1325C17.4983 38.1091 17.5593 38.0805 17.6177 38.047C17.6177 38.047 17.2915 37.9615 17.1866 37.8917C17.0816 37.8149 16.9265 37.682 16.8333 37.6431C16.736 37.6042 16.5653 37.585 16.4954 37.5071C16.5612 37.5266 16.6661 37.5071 16.744 37.5071C16.8021 37.5071 16.8295 37.5148 16.8487 37.5148C16.841 37.4877 16.841 37.4293 16.9925 37.4101C17.0654 37.3991 17.1362 37.3768 17.2022 37.3441C17.2022 37.3441 17.0583 37.3364 16.895 37.181C16.7317 37.0256 16.596 36.9014 16.5028 36.882C16.4058 36.8625 16.2233 36.948 16.1106 36.9401C15.9552 36.9209 15.8892 36.8431 15.8892 36.8431C15.8892 36.8431 15.3728 36.8897 14.2272 36.1908C13.2368 35.5848 12.8057 35.049 12.8057 35.049C12.713 35.0154 12.6234 34.9738 12.5379 34.9246C12.1651 34.7306 11.6485 34.3266 11.6642 33.7982L11.6621 33.8021Z" fill="#C2A44D"/>
<path fill-rule="evenodd" clip-rule="evenodd" d="M25.9495 10.4932C26.0393 10.5224 26.1192 10.5762 26.1799 10.6486C26.3624 10.8582 26.4789 11.2543 26.0634 11.6777C26.2265 11.7358 26.2938 11.7545 26.4361 11.7358C26.2925 11.9068 25.9664 12.2719 25.9469 12.5903C25.9275 12.8504 26.0905 12.9283 26.0905 12.9283C26.0905 12.9283 25.842 13.2155 25.8304 13.6963C25.9478 13.5639 26.0763 13.4418 26.2144 13.3312C26.5019 13.1021 26.898 12.842 27.166 12.6789C27.1623 12.7473 27.1716 12.8157 27.1931 12.8806C27.1931 12.8806 27.6939 12.469 28.1147 12.6518C28.3049 12.7373 28.2194 13.0051 28.2194 13.0051C28.2194 13.0051 28.4798 12.908 28.6623 13.0906C28.8448 13.2731 29.1029 13.7439 29.2352 13.9264C29.2933 14.0119 29.4449 14.175 29.6 14.4274C29.812 14.7808 29.9889 15.154 30.1284 15.5418C30.1361 15.3398 30.1865 15.0254 30.7615 15.2233C31.3362 15.4253 31.9885 15.8487 32.5361 16.6825C33.0837 17.5163 33.2194 18.4576 33.4951 18.816C33.7746 19.1616 34.0621 19.7363 34.0816 19.9772C34.101 20.2181 33.9961 20.9946 34.5708 23.0956C34.7339 22.4433 34.9824 20.9946 34.9824 20.9946L35.1184 19.7169L35.2738 15.7635L31.1455 12.3338L27.9184 9.99194L25.8174 10.1939L25.9492 10.4929L25.9495 10.4932Z" fill="#CAA13E"/>
<path fill-rule="evenodd" clip-rule="evenodd" d="M33.6191 16.3766C33.6191 16.3766 33.5607 15.9926 32.59 15.3398C31.619 14.6952 30.8617 14.6952 30.1628 14.1476C29.6268 13.7165 29.0677 12.726 28.7036 12.3999C28.3501 12.0776 28.292 11.1455 28.292 11.1455L29.4842 10.1471L31.2572 7.58427L32.7561 5.93384L33.4745 6.93224L34.4729 8.10497L35.0281 10.4584L35.2301 13.9031L33.6173 16.3768L33.6191 16.3766Z" fill="#B59544"/>
<path fill-rule="evenodd" clip-rule="evenodd" d="M34.8191 20.5057C34.8485 19.9833 34.784 19.4598 34.6286 18.9602C34.3726 18.164 33.8133 16.7504 33.5534 16.221C33.4485 15.6345 33.5263 15.5879 33.6389 15.5219C33.7516 15.4558 34.175 15.2147 34.4069 14.3686C34.6389 13.5225 35.3585 13.4948 35.3585 13.4948L35.8011 13.1687L36.4731 14.8501L37.0593 16.3687L37.2419 17.5299L37.3778 18.5201L37.0593 20.6134L35.4867 22.0348L34.8188 20.5057H34.8191Z" fill="#C89D3A"/>
<path fill-rule="evenodd" clip-rule="evenodd" d="M12.874 43.8373V43.7943C12.9067 43.7738 12.9356 43.7478 12.9593 43.7175C12.9864 43.6785 13.0061 43.632 13.0253 43.6204C13.0642 43.601 13.2468 43.5436 13.3438 43.5621C13.4408 43.5805 13.6973 43.6862 13.8333 43.6785C14.1128 43.6709 14.439 43.4571 14.9556 43.5544C15.7323 43.698 15.9148 44.2261 16.3654 44.5251C16.6726 44.7351 16.9905 44.6416 17.0371 44.6416H17.1418C17.1613 44.6416 17.3049 44.4785 17.3827 44.4865C17.5381 44.4942 17.5535 44.6224 17.6505 44.6301C17.8796 44.6572 18.3225 44.5136 18.5439 44.572C18.6096 44.5926 18.6693 44.6287 18.718 44.6773C18.7666 44.726 18.8028 44.7856 18.8235 44.8513C18.8701 44.9949 18.8311 45.1774 18.7185 45.2824C18.4779 45.5036 18.2487 45.7135 18.2022 45.8968C18.2614 45.942 18.3183 45.9902 18.3727 46.0412C16.4512 45.5516 14.6024 44.8114 12.874 43.8396V43.8373Z" fill="#CEB052"/>
<path fill-rule="evenodd" clip-rule="evenodd" d="M33.5537 36.0777C33.5537 36.0777 34.1594 35.2701 34.3693 34.8699C34.579 34.4575 33.7053 29.2351 33.7053 29.2351L35.4607 23.4838L35.4138 21.6119C35.4138 21.6119 35.4993 19.8837 35.7013 19.1341C35.9422 19.5652 36.6918 20.0857 36.8548 20.3614C36.9316 19.833 37.1925 18.7186 37.1538 17.5303C37.2975 17.7515 37.6431 19.9769 37.6431 19.9769L37.9886 21.4757L38.4392 23.0681L38.9402 24.7497L39.2392 25.9109L39.41 26.1905L39.5538 26.6797L39.6898 27.2081L40.082 28.4469L40.3124 29.4642L40.4949 31.309C40.5346 31.4502 40.5632 31.5944 40.5804 31.7401C40.5881 31.942 40.5533 32.0585 40.5533 32.0936C40.5533 32.1287 40.6193 32.5362 40.5922 32.8432C40.5533 33.1504 40.5533 33.3908 40.3124 33.6112C40.0715 33.8316 39.9202 35.149 39.9202 35.149L39.4891 34.8617C39.4891 34.8617 39.5746 34.4693 39.3726 34.1122C39.1706 33.755 38.7784 33.6811 38.557 33.7394C38.3358 33.786 37.8932 33.8556 37.7493 33.9801C37.6134 34.1042 37.2795 34.4887 36.9726 34.6636C36.5886 34.894 35.9629 34.9122 35.6291 34.9897C35.2912 35.0665 34.9184 35.2969 34.526 35.5645C34.2183 35.7637 33.8934 35.935 33.5552 36.0765L33.5537 36.0777Z" fill="#CCA847"/>
<path fill-rule="evenodd" clip-rule="evenodd" d="M33.5537 44.5631C33.5537 44.5631 33.5793 44.5798 33.6287 44.6069C36.3878 43.3142 38.8599 41.4819 40.8991 39.2181C40.8768 38.4322 40.8479 37.6266 40.8162 37.3281C40.7504 36.695 40.797 36.0504 40.7775 35.6776C40.7581 35.3049 40.5484 33.7863 40.4514 33.3941C40.3464 33.0019 40.1442 32.8076 40.1135 32.8076C40.0863 32.8156 39.923 33.5457 39.923 33.7292C39.923 33.9128 39.8841 34.3546 39.8841 34.4673C39.8569 34.4593 39.8454 34.3905 39.8454 34.3623C39.8065 34.4593 39.7599 34.6303 39.7405 34.6498C39.721 34.6692 39.7676 34.4867 39.7405 34.4478C39.7133 34.4089 39.6637 34.4283 39.6744 34.3313C39.679 34.2738 39.6881 34.2167 39.7015 34.1606C39.7015 34.1606 39.5851 34.3313 39.4998 34.7663C39.4143 35.1974 39.4143 35.2092 39.3833 35.2478C39.3562 35.2947 39.2008 35.4498 39.1929 35.5082C39.1852 35.6129 39.3367 35.7178 39.3483 35.7759C39.3559 35.8732 39.2123 36.3235 39.1657 36.5439C39.1191 36.7643 39.1386 37.1962 39.0889 37.4177C39.05 37.6196 39.0121 37.7361 38.8793 37.8214C38.9763 37.8408 39.0695 37.868 39.0695 37.868C39.0695 37.868 39.2054 38.4427 38.8598 38.9322C38.7357 39.1029 38.7047 39.1807 38.5726 39.3361C38.3122 39.6234 38.1103 39.9505 38.0908 40.1633C38.0774 40.1005 38.0683 40.0368 38.0637 39.9728C38.0637 39.9728 37.6599 40.4428 37.4889 40.7108C37.2678 41.0564 36.9608 41.037 36.8745 41.1225C36.7883 41.208 36.7696 41.3631 36.7977 41.4875C36.7209 41.5067 36.5766 41.5341 36.4793 41.8331C36.4327 41.9883 36.3162 42.1403 36.1337 42.2448C35.9511 42.3492 35.7297 42.3807 35.6171 42.4079C35.7141 42.435 35.753 42.435 35.7996 42.466C35.7415 42.563 35.4735 42.7146 35.1744 42.9089C34.8754 43.0914 34.7316 43.3592 34.6578 43.534C34.581 43.6971 34.4676 43.802 34.2851 43.8215C34.3619 43.8681 34.4756 43.9766 34.5337 44.0117C34.4482 44.0312 34.3033 44.0312 34.0445 44.2526C33.7726 44.4779 33.6794 44.5439 33.555 44.5634L33.5537 44.5631Z" fill="#C39D3C"/>
<path fill-rule="evenodd" clip-rule="evenodd" d="M28.1497 46.3628C28.2984 46.2586 28.4595 46.1732 28.6292 46.1086C29.2349 45.868 29.8757 45.8214 30.1281 45.7438C30.369 45.667 30.5592 45.561 30.8582 45.5029C30.8503 45.571 30.8436 45.635 30.8365 45.6954C29.9549 45.9726 29.0572 46.1955 28.1484 46.3628H28.1497Z" fill="#D2BA6B"/>
<path fill-rule="evenodd" clip-rule="evenodd" d="M39.3213 30.4314C39.3213 30.4314 39.1971 31.1031 38.9757 31.5265C38.7542 31.95 38.5149 32.5362 38.5149 32.5362C38.5163 32.4041 38.532 32.2725 38.5615 32.1438C38.2819 32.3068 37.6023 32.6993 37.4095 32.8739C37.227 33.0369 36.92 33.3244 36.8424 33.4604C37.025 32.9246 37.2152 32.443 37.2464 32.2216C36.9669 32.4236 35.6618 33.4993 34.9824 34.2099L32.8658 35.9226C32.6215 36.0543 32.37 36.1721 32.1124 36.2753C31.7476 36.4305 31.3165 36.5626 30.998 36.687C31.0835 36.4579 31.2192 36.2556 31.4096 36.0616C31.6116 35.8714 32.2173 35.215 32.3105 34.9096C32.396 34.5911 32.4155 34.4009 32.3028 34.1329C32.1979 34.16 31.9572 34.1718 31.7941 34.2184C31.6311 34.265 31.4562 34.4396 31.4562 34.4396C31.4562 34.4396 31.5804 33.7289 31.8484 33.0572C31.6464 33.0648 31.3008 33.123 31.3008 33.123C31.3008 33.123 31.7824 32.3153 32.6064 31.7523C32.3541 31.806 32.1071 31.8826 31.8686 31.9812C31.3871 32.1832 30.859 32.4822 30.4668 32.6453C30.688 32.3381 32.2414 30.1211 33.1658 28.0549C34.0874 25.9928 34.4317 25.4647 34.6337 24.358C34.7384 23.8104 34.7105 23.0012 34.7384 22.2765C34.7655 21.5579 34.8549 20.9133 34.7968 20.4822C35.0374 20.7812 35.9385 21.6239 35.9695 23.5076C35.9966 25.391 35.1075 27.9349 34.1637 29.3055C34.3941 29.3715 34.9911 29.4494 35.6044 28.3839C36.2178 27.3184 36.2104 27.0209 36.4318 26.5781C36.459 26.7995 36.451 26.8771 36.451 26.8771C36.451 26.8771 37.3445 25.7937 37.7676 24.4305C37.8531 25.017 38.1055 25.5336 37.7093 26.6093C37.356 27.58 36.8939 27.8171 36.8939 27.8171C36.8939 27.8171 37.123 27.7782 37.4607 27.5762C37.5191 27.7198 37.5075 27.8834 37.6046 27.9413C37.7016 27.9991 37.8337 28.0966 37.8531 28.1898C37.9578 28.0344 38.1209 27.8363 38.1716 27.6888C38.1327 27.996 38.1055 29.3393 38.2484 30.0228C38.5477 29.9957 38.8543 29.9762 39.064 29.4363C38.9204 29.9647 38.9204 30.2829 39.0174 30.7334C39.1766 30.6249 39.3203 30.4306 39.3203 30.4306L39.3213 30.4314Z" fill="#C0993A"/>
<path fill-rule="evenodd" clip-rule="evenodd" d="M29.2313 9.02535C29.2313 9.02535 28.9323 9.14951 28.4236 9.14951C27.981 9.14951 28.1052 8.97876 27.414 8.97876C26.35 8.97876 22.6334 9.59316 21.9809 9.58446C21.5575 9.57678 23.4099 9.76698 23.4099 9.76698L28.1441 9.83303L29.0954 9.75623L29.4489 9.03687L29.2313 9.02535Z" fill="#A88F33"/>
<path fill-rule="evenodd" clip-rule="evenodd" d="M16.9559 18.2796C16.9559 18.2796 16.3499 18.7417 16.0937 19.0952C15.8374 19.4488 15.7015 19.6815 15.4102 19.9689C15.4785 19.9716 15.5469 19.9624 15.6121 19.9418C15.6121 19.9418 15.6121 20.0186 15.5655 20.0388C15.6058 20.0343 15.6466 20.0389 15.6848 20.0522C15.7231 20.0655 15.7579 20.0871 15.7867 20.1156C15.7012 20.1622 15.4683 20.3954 15.6508 20.6712C15.7867 20.8808 16.0742 20.9 16.0742 20.9C16.0742 20.9 16.0082 21.0905 16.2839 21.071C16.8781 21.0439 17.5421 20.7835 17.8488 20.8496C18.156 20.9264 18.3306 20.9545 18.5479 21.3314C18.7783 21.7041 18.979 21.7625 18.979 21.7625C18.979 21.7625 19.115 21.4166 19.084 20.9003C19.1955 20.6219 19.2572 20.3262 19.2665 20.0265L19.0646 18.5392L18.1831 17.4246L17.0414 18.0576L16.9559 18.2788V18.2796Z" fill="#E3C571"/>
<path fill-rule="evenodd" clip-rule="evenodd" d="M18.0391 18.0583C18.0391 18.0583 18.1246 18.2603 18.4819 18.2795C18.443 18.365 18.443 18.3768 18.4548 18.4426C18.4625 18.5086 18.474 18.6057 18.474 18.6057C18.5134 18.5866 18.5489 18.5606 18.579 18.5289C18.5984 18.6144 18.5595 18.75 18.579 18.8473C18.591 18.9065 18.6105 18.9639 18.6371 19.0181C18.6427 19.0048 18.6492 18.9919 18.6565 18.9794C18.6642 18.96 18.7333 19.1891 18.9246 19.3634C18.9244 19.3366 18.931 19.3102 18.9438 19.2866C18.9467 19.3353 18.9628 19.3823 18.9904 19.4225C18.976 19.4157 18.963 19.4066 18.9517 19.3954C18.9517 19.3954 18.9709 20.0098 19.0759 20.3275C19.0934 20.307 19.109 20.2849 19.1225 20.2615C19.1225 20.2423 19.1148 20.4325 19.0953 20.5687C19.0682 20.7046 19.0876 20.8948 19.0876 20.8948C19.1577 20.8397 19.2346 20.794 19.3165 20.7589C19.433 20.712 19.6237 20.5684 19.7399 20.2499C19.8073 20.0696 19.8593 19.8838 19.8953 19.6947C19.9329 19.767 19.9588 19.8447 19.9721 19.9251C19.9801 20.0221 20.1626 19.9717 20.1626 19.9717L20.2015 19.5482L20.4319 18.589L20.6416 17.9948L21.6512 16.4222L23.4755 15.0173L25.0678 15.3824L26.4113 13.5571L24.0968 12.1667L21.9064 12.3959L19.9186 15.1491L18.3265 17.6464L18.0391 18.0581V18.0583Z" fill="#D8B65B"/>
<path fill-rule="evenodd" clip-rule="evenodd" d="M29.5106 14.074C29.5106 14.074 29.3747 14.1012 28.9825 14.3044C28.5903 14.5077 28.3184 14.5722 28.1669 14.8712C28.0153 15.1702 28.0038 15.4073 28.0038 15.4073C28.0038 15.4073 28.2718 15.2908 28.4272 15.2519C28.5903 15.2132 28.7728 15.2247 28.7534 15.2908C28.7347 15.3361 28.7088 15.378 28.6766 15.415C28.6766 15.415 28.9838 15.4073 28.9756 15.5588C28.9674 15.7104 28.9175 15.8773 28.8594 15.951C28.801 16.0278 28.5603 16.1415 28.5332 16.2308C28.4672 16.4134 28.5603 16.421 28.5253 16.5685C28.4981 16.7124 28.3701 16.9919 27.9506 17.4811C27.5194 17.9706 27.3362 18.3162 27.3362 18.3162C27.3362 18.3162 27.1265 17.924 27.0177 17.5861C26.9409 17.6247 26.5285 17.8539 26.5285 17.8539L25.5731 14.5259L25.5923 14.3044C25.5923 14.3044 25.6778 14.1997 25.6972 14.0054C25.5536 13.9588 25.5342 13.9199 25.3437 13.7376C25.1532 13.5554 24.9981 13.3337 24.6799 13.1821C24.6333 13.0966 24.5749 12.9804 24.342 12.9335C24.109 12.8867 23.9692 12.8483 23.9692 12.8483C23.9692 12.8483 24.0934 12.8014 24.1518 12.7044C24.0079 12.7239 23.8917 12.7705 23.577 12.7628C23.2586 12.7549 23.2235 12.7433 23.0489 12.7705C22.8743 12.7976 22.6649 12.8754 22.5868 12.6074C22.5013 12.5413 22.3188 12.5997 22.1634 12.8286C22.008 13.0574 21.9538 13.2402 21.6547 13.3296C21.6337 13.4614 21.5876 13.5879 21.5188 13.7023C21.4333 13.8462 21.2974 13.9898 21.1148 14.2033C20.8274 14.5412 20.8739 15.0965 20.4157 15.5199C19.9536 15.9431 20.4925 14.3469 20.4925 14.3469L21.2303 12.5805L23.3313 10.5261L26.5935 10.3049L26.912 11.9945L28.5043 12.5421L29.5101 14.0761L29.5106 14.074Z" fill="#D3AE4D"/>
<path fill-rule="evenodd" clip-rule="evenodd" d="M30.0277 14.4467L28.6568 12.4701L27.6976 11.7321C27.6976 11.7321 27.0141 10.4741 26.9675 10.4352C26.9286 10.4081 26.284 10.3382 25.8723 10.311L25.9491 10.5012C26.039 10.5304 26.1188 10.5843 26.1795 10.6566C26.362 10.8663 26.4785 11.2623 26.063 11.6858C26.2261 11.7439 26.2934 11.7626 26.4358 11.7439C26.2922 11.9149 25.966 12.2799 25.9466 12.5984C25.9271 12.8585 26.0902 12.9361 26.0902 12.9361C26.0902 12.9361 25.8416 13.2235 25.8301 13.704C25.9475 13.5717 26.0759 13.4495 26.2141 13.339C26.5016 13.1086 26.8976 12.8495 27.1656 12.6865C27.162 12.7549 27.1712 12.8234 27.1928 12.8884C27.1928 12.8884 27.6935 12.4768 28.1144 12.6593C28.3046 12.7448 28.2191 13.0129 28.2191 13.0129C28.2191 13.0129 28.4794 12.9158 28.6619 13.0984C28.8445 13.2809 29.1046 13.7506 29.2367 13.9334C29.2948 14.0189 29.4463 14.182 29.6015 14.4342C29.8134 14.7876 29.9904 15.1609 30.1298 15.5488C30.1375 15.3934 30.1688 15.176 30.437 15.176L30.0292 14.4459L30.0277 14.4467Z" fill="#CAA13E"/>
<path fill-rule="evenodd" clip-rule="evenodd" d="M9.47574 20.0621C9.47574 20.0621 9.37871 19.8212 9.47574 19.3515C9.57276 18.8817 9.72431 18.6603 9.77475 17.9691C9.82518 17.2779 10.2757 16.4157 10.2757 16.4157L11.5222 15.8489L12.4039 16.0895L12.664 17.2702L11.5493 17.8846C11.5493 17.8846 11.4912 18.1447 11.1766 18.3543C10.862 18.564 10.427 18.7271 10.3223 18.9408C10.2597 19.0717 10.2141 19.2101 10.1864 19.3525C10.1864 19.3525 9.86793 19.2864 9.67772 19.4961C9.47574 19.7099 9.48342 19.9001 9.47574 20.0631V20.0621Z" fill="#F4EFC8"/>
<path fill-rule="evenodd" clip-rule="evenodd" d="M11.9922 19.7477C11.9922 19.7477 11.8873 19.8138 11.8097 19.9781C11.7329 19.854 11.5494 19.1159 11.5417 18.4519C11.534 17.7878 11.4943 17.6232 11.6479 17.3943C11.8015 17.1655 12.4039 16.9243 12.3184 16.5121C12.2329 16.12 11.8755 15.9569 11.4367 16.0695C11.1295 16.1463 10.9009 16.7996 10.5824 17.1258C10.3415 17.3744 10.0543 17.3354 9.97675 17.4714C9.87179 17.6539 9.96881 17.8364 9.93783 17.9529C9.9299 17.9918 9.83287 18.2015 9.65803 18.4539C9.30475 18.9626 8.70673 19.6812 8.62891 20.3258C8.65604 19.9607 8.63684 19.953 8.73387 19.5491L8.6755 19.4521L9.0595 18.1938L9.30807 17.157L9.86359 15.4208L10.842 13.6462L11.7936 12.582L12.7838 12.6481L12.9003 14.1354L13.4673 16.9279L14.6595 18.3958L12.7487 19.6817L11.9915 19.7477H11.9922Z" fill="#EBCC73"/>
<path fill-rule="evenodd" clip-rule="evenodd" d="M12.5863 20.2751C12.5863 20.2751 12.4232 20.314 12.3648 20.2831C12.3065 20.2521 12.2486 20.217 12.2678 20.1781C12.287 20.1392 12.392 20.0734 12.392 20.0422C12.3941 20.0139 12.3852 19.986 12.3671 19.9643C12.349 19.9425 12.3231 19.9287 12.2949 19.9257C12.2056 19.9142 12.1785 19.9723 12.1785 19.9723C12.1785 19.9723 12.093 19.9065 12.0233 19.8955C12.0645 19.8904 12.106 19.8878 12.1475 19.8875C12.0402 19.8389 11.9263 19.8062 11.8096 19.7905C11.9066 19.7324 12.0971 19.5614 12.2212 19.5614C12.3454 19.5614 12.4232 19.5422 12.4037 19.4762C12.3843 19.4101 12.2873 19.3131 12.1826 19.2742C12.2212 19.2276 12.2486 19.1577 12.1554 18.967C12.0581 18.7768 12.0971 18.6485 12.1283 18.6022C12.1554 18.5438 12.2525 18.4391 12.299 18.373C12.3456 18.307 12.3845 18.2177 12.4621 18.1711C12.501 18.1439 12.6252 18.0943 12.7496 18.0469C12.8855 18.0003 12.9982 17.9419 13.0757 18.0003C13.1613 18.0584 13.1223 18.1362 13.1223 18.1362C13.1223 18.1362 13.3904 18.039 13.631 18.1634C13.8719 18.2796 14.4584 18.3536 14.4584 18.3536L14.6686 18.777L13.2782 19.9692L12.7035 20.2567L12.587 20.2759L12.5863 20.2751Z" fill="#E5C66B"/>
<path fill-rule="evenodd" clip-rule="evenodd" d="M14.5161 18.3262C14.5161 18.3262 14.085 18.6137 13.988 18.7184C14.0461 18.7263 14.1431 18.7653 14.1042 18.8234C14.0576 18.8815 13.7781 19.0835 13.6227 19.2739C13.4596 19.4641 13.3042 19.705 13.2499 19.8215C13.1918 19.9262 12.749 20.2332 12.5977 20.2718C12.9161 20.2718 13.5569 19.8796 13.7975 19.8796C13.7898 19.9961 13.8636 20.1282 13.9995 20.1397C14.1354 20.1512 14.5276 20.2252 15.0558 19.8991C15.5839 19.5806 15.4093 19.3436 15.6305 19.1884C16.0539 18.9086 16.2247 18.66 16.4576 18.5049C16.6906 18.3498 16.8112 18.3144 16.8112 18.3144C16.8112 18.3144 16.8188 18.198 16.888 18.2097C16.9069 18.2119 16.9248 18.2192 16.9399 18.2308C16.955 18.2425 16.9666 18.258 16.9735 18.2758C16.9735 18.2758 17.3774 17.9883 17.8951 17.9107C17.883 17.9053 17.8733 17.8957 17.8679 17.8836C17.8679 17.8836 17.9066 17.8641 17.9145 17.8447C17.9145 17.8447 17.9417 17.8058 17.9611 17.8252C17.9806 17.8447 18.0077 17.9883 18.0466 18.0467C18.1321 18.0078 18.2952 17.6427 18.2952 17.6427L18.6876 16.5204V15.4951L18.3804 15.5535L16.0764 16.5319L14.6782 17.9806L14.5151 18.3262H14.5161Z" fill="#E6BD62"/>
<path fill-rule="evenodd" clip-rule="evenodd" d="M21.1488 13.297C21.2734 13.2667 21.3929 13.2183 21.5034 13.1531C21.4568 13.2775 21.4568 13.4135 21.2548 13.7086C21.0528 14.0038 21.0451 14.0465 20.8821 14.3532C20.719 14.6717 20.6995 15.1299 20.5441 15.3317C20.6138 15.2978 20.6885 15.2756 20.7653 15.2659C20.7653 15.2659 20.6102 15.4018 20.5441 15.5454C20.4781 15.689 20.3616 15.9881 20.0744 16.1708C19.7872 16.3536 19.4218 16.4698 19.0297 16.9009C18.6372 17.3241 18.2335 17.8602 18.0312 18.053C18.1362 17.8704 18.2798 17.5054 18.3187 17.2647C18.3576 17.0241 18.3108 16.7363 18.3769 16.4181C18.4429 16.0999 18.4429 15.8705 18.7609 15.315C19.0788 14.7595 19.6231 12.8295 19.6231 12.8295L20.7958 12.4568L21.1493 13.2957L21.1488 13.297Z" fill="#B6933F"/>
<path fill-rule="evenodd" clip-rule="evenodd" d="M20.3032 12.5864C20.3032 12.5864 19.9499 13.0951 19.8529 13.5456C19.7558 13.9962 19.8449 13.9573 19.7868 14.1787C19.7521 14.3138 19.7521 14.4554 19.7868 14.5904C19.9092 14.3933 20.0767 14.2281 20.2755 14.1086C20.6096 13.9069 20.8815 13.763 21.0435 13.5922C21.2066 13.4097 21.3425 13.1107 21.6958 12.8816C21.5522 12.8621 21.3502 12.7961 21.3118 12.8048C21.4557 12.6417 21.8865 12.3931 22.3215 12.0941C22.7526 11.7869 22.7254 11.663 23.4246 11.3563C23.1955 11.3952 23.0867 11.3369 22.8962 11.3563C22.973 11.1933 23.2418 11.1154 23.5106 10.8477C23.7794 10.5799 23.3398 10.1836 23.3398 10.1836L21.2918 11.4224L20.3016 12.5874L20.3032 12.5864Z" fill="#C49937"/>
<path fill-rule="evenodd" clip-rule="evenodd" d="M14.7461 11.662L14.7927 11.2893L15.3792 10.3495L15.9928 8.69906V6.44267L15.9462 5.13784L16.0432 4.28331L16.117 4.0117L16.1948 3.90674L16.6955 4.16683L17.387 5.10661L17.453 6.92037L16.781 9.78245L14.8626 11.8758L14.7461 11.662Z" fill="#DFC068"/>
<path fill-rule="evenodd" clip-rule="evenodd" d="M16.2714 3.80186C16.2714 3.80186 15.9642 3.8098 15.8987 5.08749C15.8332 6.36519 15.8014 7.03693 15.7548 7.67002C15.7082 8.30311 15.5997 8.68737 15.5452 9.06036C15.4906 9.43335 15.4597 9.94176 15.2851 10.2525C15.2083 10.3962 15.0442 10.8467 14.6597 11.1846C14.2286 11.5574 13.5845 11.8177 13.4869 11.8372C13.3159 11.8758 12.4499 11.9613 12.0966 12.1557C11.9724 12.2217 11.7587 12.2993 11.5219 12.5207C11.0519 12.9439 10.4267 13.7011 9.97615 14.6138C9.28495 15.977 8.59375 19.8254 8.59375 19.8254L8.74914 19.5653C8.74914 19.5653 8.7686 19.2197 9.1142 18.6138C9.45212 18.0081 9.35509 17.3284 9.82485 16.1672C10.0074 15.7245 10.2365 15.1498 10.5161 14.6604C10.9589 13.8642 11.4947 13.1807 12.0346 12.8079C12.916 12.2022 13.8871 12.0701 13.8871 12.0701L14.9318 11.3789C14.9318 11.3789 15.1143 11.0257 15.3552 10.6217C15.6929 10.0549 16.1232 9.42183 16.2172 8.50151C16.361 7.13831 16.0152 6.24513 16.0346 5.43745C16.0541 4.62977 16.0618 4.03559 16.2251 3.89172C16.3884 3.74785 16.2717 3.80237 16.2717 3.80237L16.2714 3.80186Z" fill="#A88F33"/>
<path fill-rule="evenodd" clip-rule="evenodd" d="M16.272 9.8989C16.272 9.8989 16.7328 8.76482 16.9437 7.759C16.9826 7.55702 17.0602 7.35529 17.0797 7.19222C17.1767 6.24067 17.2038 5.84848 17.0797 5.32803C16.9826 4.94403 16.6099 4.59792 16.4156 4.32963C16.2254 4.04982 16.1361 3.94563 16.175 3.88675C16.2139 3.82787 16.3652 3.73161 16.5126 3.74313C16.6694 3.7477 16.8236 3.78409 16.9658 3.8501C17.108 3.91612 17.2354 4.01037 17.34 4.12713C17.639 4.47273 17.8758 5.64572 17.8758 5.64572L18.1249 7.1935L18.758 9.14294L16.2725 9.90044L16.272 9.8989Z" fill="#C99E3D"/>
<path fill-rule="evenodd" clip-rule="evenodd" d="M20.6018 8.71871C20.6018 8.71871 20.5163 8.75737 20.3611 8.71871C20.3678 8.78211 20.3568 8.8461 20.3293 8.90365C20.3019 8.96119 20.2592 9.01006 20.2058 9.04486C20.0427 8.97881 18.5162 9.1109 18.5162 9.1109C18.5162 9.1109 17.8055 8.98649 17.5841 8.04671C17.4289 7.4213 17.7005 6.55935 17.6112 5.99231C17.4753 5.15724 17.2851 4.99391 17.2656 4.73407C17.2461 4.47423 17.2267 4.40793 17.2267 4.24486C17.1412 4.2254 17.0907 4.19827 17.0055 4.19827C16.986 4.12147 17.0247 4.05439 16.9395 3.91846C16.986 3.93791 17.3045 3.97683 17.6772 4.3301C17.9844 4.61759 17.9844 4.7223 18.0308 4.78067C18.0889 4.83878 18.5589 5.24146 18.7609 5.64287C18.9629 6.04428 19.3551 7.32428 19.4444 7.53394C19.4715 7.61945 19.5299 7.70495 19.6748 7.899C19.9001 8.17881 20.2301 8.6414 20.6028 8.7182L20.6018 8.71871Z" fill="#B58634"/>
<path fill-rule="evenodd" clip-rule="evenodd" d="M18.0859 4.80005C18.3212 5.18008 18.5325 5.5744 18.7188 5.98072C18.9479 6.49707 19.0838 6.9205 19.3713 7.2661C19.2159 6.81579 18.9402 5.93029 18.7771 5.61566C18.5946 5.28286 18.2219 4.92446 18.0859 4.8003V4.80005Z" fill="#A88F33"/>
<path fill-rule="evenodd" clip-rule="evenodd" d="M15.4449 11.1846C15.4449 11.1846 15.0527 11.2816 14.3226 11.6661C14.0817 11.7903 13.8528 11.895 13.6314 11.9923C13.0561 12.2524 12.4392 12.4927 11.9497 12.6253C11.9886 12.6719 12.0078 12.6911 12.0078 12.6911C12.0078 12.6911 12.0078 12.8816 12.1128 12.9901C12.0547 13.0485 11.2777 13.5766 11.5071 15.3436C11.6622 15.2854 11.8447 15.2076 11.8719 15.2076C11.9187 15.2156 11.9302 15.3436 11.9884 15.3436C12.0465 15.3436 12.2369 15.2668 12.4389 15.0056C12.4312 15.1106 12.3148 16.1668 12.9399 16.8775C13.0564 16.7416 13.3516 16.291 13.3516 16.291L13.3592 16.1474C13.3592 16.1474 13.3864 15.6464 13.5497 15.1882C13.713 14.7299 14.0312 14.392 14.0312 14.392L15.6929 12.0191L15.4444 11.1843L15.4449 11.1846Z" fill="#E6C367"/>
<path fill-rule="evenodd" clip-rule="evenodd" d="M13.8915 14.6687C13.8154 14.7225 13.7316 14.7644 13.6429 14.7929C13.6158 14.6959 13.5769 14.3618 13.806 14.0356C14.074 13.6432 14.6603 13.1345 14.8233 12.73C14.9283 12.4697 14.8817 11.8174 15.8138 10.9823C16.7459 10.1473 17.1107 9.86003 17.1107 9.86003L18.6175 9.10278L20.4699 9.8329L19.5496 13.4399L18.8351 15.1295L15.9935 14.5937L13.8912 14.6687H13.8915Z" fill="#DCBA5A"/>
<path fill-rule="evenodd" clip-rule="evenodd" d="M14.9756 13.6894L15.3291 13.2467V12.9321C15.3291 12.9321 15.7213 12.8272 16.1445 12.3961C16.5677 11.9649 17.1542 11.1378 17.6708 11.1882C18.1874 11.2466 18.2378 12.3105 18.2573 12.6098C18.2767 12.9091 18.3428 13.5882 18.4475 13.9536C18.5639 14.3186 17.1892 15.701 17.1892 15.701L16.2556 16.4117L14.9756 13.6894Z" fill="#E9CE77"/>
<path fill-rule="evenodd" clip-rule="evenodd" d="M16.0693 17.3748C16.0693 17.3748 16.3568 16.9243 16.1461 16.8272C16.2703 16.5477 16.4994 16.2525 16.4994 16.2525C16.4994 16.2525 16.6625 15.8488 17.1906 15.3517C17.7187 14.8545 18.0451 14.5243 18.1306 14.1904C18.1834 13.9729 18.212 13.7502 18.2161 13.5264C18.2732 13.573 18.3343 13.6146 18.3987 13.6505C18.4842 13.6894 18.8879 14.0233 18.8298 14.6953C18.7717 15.3673 18.5226 15.6468 18.5226 15.6468C18.5226 15.6468 18.2819 15.8875 18.1112 16.0119C17.9284 16.136 17.8626 16.2797 17.5557 16.2914C17.5872 16.2663 17.6227 16.2466 17.6606 16.2331C17.6606 16.2331 17.3422 16.1944 17.1712 16.3495C17.0002 16.5047 16.6366 16.9826 16.4541 17.1265C16.2716 17.243 16.0701 17.3751 16.0701 17.3751L16.0693 17.3748Z" fill="#CDAE50"/>
<path fill-rule="evenodd" clip-rule="evenodd" d="M28.9828 9.82128C28.524 9.65406 28.0418 9.55973 27.5538 9.54173C26.7382 9.51459 25.546 9.56118 24.3771 9.56886C23.1189 9.57654 21.9771 9.13776 20.3927 9.06019C20.1327 8.9048 19.4711 8.22512 17.4062 9.66589C17.5304 9.65821 18.9054 9.34742 19.3828 9.94569C19.8644 10.5399 19.7284 11.5495 19.6626 11.7902C19.5382 12.3262 19.1343 13.1068 18.9714 13.6544C18.8086 14.202 18.847 14.4897 18.7305 14.8737C18.6141 15.2577 18.3578 15.4484 18.5091 15.891C18.7111 15.7669 18.8163 15.7669 19.1537 15.0096C19.4911 14.2524 19.4217 13.7125 19.9811 13.0717C20.5287 12.4271 21.4403 11.5454 21.7869 11.324C22.1335 11.1026 24.8858 9.67357 27.7676 11.0368C28.4626 10.963 28.9831 9.82102 28.9831 9.82102L28.9828 9.82128Z" fill="#D2A83E"/>
<path fill-rule="evenodd" clip-rule="evenodd" d="M18.5669 9.29284C18.564 9.26366 18.5576 9.23494 18.5477 9.20734C18.5208 9.15055 18.4854 9.09816 18.4427 9.05195C18.4427 9.05195 17.7592 8.92779 17.4136 8.96644C16.8077 9.03249 16.2601 9.78206 16.0038 10.1666C15.7476 10.5511 15.4291 11.145 15.0835 11.4519C15.0873 11.422 15.0804 11.3918 15.0641 11.3664C15.0641 11.3664 15.0835 11.3936 15.0449 11.4325C15.0062 11.4714 15.0059 11.4906 15.0254 11.5093L15.0838 11.5674C15.103 11.5674 15.639 11.3265 16.3691 10.6458C17.1458 9.93515 17.74 9.5706 18.0508 9.44568C18.2165 9.37524 18.3898 9.32397 18.5672 9.29284H18.5669Z" fill="#C29637"/>
<path fill-rule="evenodd" clip-rule="evenodd" d="M31.8251 6.3728C31.8251 6.3728 31.7007 6.52794 31.5453 6.69895C31.1997 7.064 30.7491 7.4754 30.3646 7.89882C29.9998 8.30279 29.5882 8.61741 29.1258 9.14554C28.6635 9.67367 28.1274 10.2599 27.9918 10.4309C27.8676 10.6019 27.7706 10.8815 27.7706 11.0251C27.7045 10.9785 27.627 10.9281 27.627 10.9281C27.6596 10.989 27.6987 11.0464 27.7434 11.0991C27.8405 11.235 27.9918 11.4063 28.0696 11.5107C28.1651 11.6437 28.2336 11.7941 28.2713 11.9534C28.3179 11.961 28.6169 12.0194 28.9899 11.4058C29.3629 10.7921 29.8519 10.1204 29.8519 10.1204L30.6286 8.96685L31.118 7.98842L31.7324 6.89325L31.8259 6.3728H31.8251Z" fill="#AC8132"/>
<path fill-rule="evenodd" clip-rule="evenodd" d="M32.6214 5.58838C32.6214 5.58838 32.1514 5.97238 31.9689 6.20278C31.7864 6.43318 31.3545 7.03786 31.3545 7.03786L31.5099 7.0184L32.2984 6.31952L32.6056 5.77193L32.6212 5.5894L32.6214 5.58838Z" fill="#A88F33"/>
<path fill-rule="evenodd" clip-rule="evenodd" d="M32.4776 36.4505C32.4776 36.4505 32.47 36.1321 32.6486 35.9419C32.8312 35.7514 33.2933 35.4718 33.7438 34.4233C34.1944 33.3747 34.2446 33.1379 34.2446 33.1379C34.2446 33.1379 33.4369 33.8291 32.9389 33.9922C33.0554 33.7513 33.1215 33.5805 33.1798 33.4561C33.1138 33.398 32.8342 33.3319 32.8071 33.301C32.9622 33.1456 33.0477 32.7649 33.3624 32.5125C33.7663 32.2053 34.5041 31.6774 35.0776 31.2069C35.651 30.7364 36.7784 29.642 36.9223 29.3235C37.0078 29.4476 37.027 29.5252 37.027 29.5252C37.027 29.5252 36.4602 30.2633 36.1651 30.733C35.9047 31.137 35.9242 31.3661 35.9242 31.3661L36.4602 31.1357C36.4602 31.1357 36.6154 31.7104 35.9126 32.5844C36.2198 32.4679 36.3438 32.5378 36.5183 32.4405C36.2309 32.6233 35.8348 32.8719 35.4621 33.5552C35.097 34.2387 34.5999 35.0348 33.7612 35.5317C32.9456 36.056 32.4756 36.4482 32.4756 36.4482L32.4776 36.4505Z" fill="#A67A2E"/>
<path fill-rule="evenodd" clip-rule="evenodd" d="M30.3733 10.2253C30.3733 10.2253 30.0549 10.8891 30.0083 11.4057C30.0006 11.5301 29.9694 11.6272 29.9694 11.7708C29.9617 12.2329 29.9965 12.7495 29.8926 12.9901C29.8537 12.8931 29.8342 12.827 29.7953 12.7884C29.7372 12.9515 29.6322 13.4601 29.5467 13.6503C29.5081 13.5262 29.4226 13.0951 29.4305 12.5864C29.4384 12.0777 29.4497 11.9805 29.4497 11.8757C29.4305 12.0309 29.3255 12.2408 29.2866 12.365C29.2285 12.2603 29.1625 12.1243 29.0846 12.0117C29.0381 12.0885 28.9799 12.2019 28.9295 12.2603C28.9216 12.2137 28.9024 12.0893 28.8906 11.9147C28.8829 11.7127 28.8711 11.4526 28.8829 11.3981C28.9021 11.2933 29.0654 10.8817 29.411 10.5049C29.8227 10.0543 30.2461 9.18852 30.3703 8.92049C30.4944 8.65245 31.0225 7.53809 31.0225 7.53809H31.4265L30.84 8.87389C30.84 8.87389 30.4867 9.60401 30.3042 9.87229C30.1217 10.1406 29.7372 10.9093 29.5662 11.2084C29.6903 11.0453 29.7953 10.9598 29.9197 10.8044C30.04 10.6956 30.3738 10.2258 30.3738 10.2258L30.3733 10.2253Z" fill="#8C6228"/>
<path fill-rule="evenodd" clip-rule="evenodd" d="M32.6292 5.53784C32.5632 5.74093 32.4589 5.92951 32.322 6.09336C32.0811 6.38085 31.5645 6.76511 31.3123 7.07179C31.0819 7.3708 30.6211 8.18642 30.8305 9.15333C30.9073 8.94367 31.052 8.52818 31.4365 8.05816C31.821 7.58815 32.2327 7.0485 32.4349 6.62917C32.6366 6.20575 32.6638 5.87192 32.6638 5.87192L32.7406 5.7749L32.694 5.55346L32.6279 5.53784H32.6292Z" fill="#CBA94C"/>
<path fill-rule="evenodd" clip-rule="evenodd" d="M40.493 31.297C40.493 31.297 40.3376 30.8738 40.291 30.4893C40.2444 30.1048 40.3678 30.0285 40.225 29.5884C40.1395 29.3204 39.9843 29.358 39.9454 29.3204C39.9065 29.2827 39.8794 28.8778 39.887 28.6563C39.8947 28.4349 39.8794 28.1476 39.8405 28.0232C39.7823 27.9766 39.7434 27.9377 39.6579 27.6505C39.5609 27.363 39.5143 27.2194 39.4677 27.1341C39.4211 27.0489 39.2849 26.9711 39.2849 26.8856C39.2849 26.7146 39.4403 26.6255 39.4403 26.5784C39.4327 26.4813 39.3162 26.5592 39.2849 26.5318C39.2463 26.4852 39.3822 26.2056 39.3318 26.1667C39.3123 26.1475 39.1764 26.3106 39.1413 26.264C39.1024 26.2171 39.0558 25.7551 38.9859 25.4484C38.9201 25.1494 38.85 24.932 38.8423 24.8427C38.8346 24.7572 38.3062 23.2504 38.1782 22.8853C38.0751 22.5768 37.9883 22.2631 37.9182 21.9455C37.8792 21.763 37.8521 21.39 37.8326 21.4289C37.8132 21.4678 37.825 21.658 37.7937 21.6504C37.7666 21.6424 37.6696 20.9786 37.6386 20.8737C37.6115 20.7687 37.4481 20.4129 37.4082 20.1553C37.3693 19.895 37.284 19.2153 37.2257 18.7532C37.1673 18.2911 37.1402 18.1009 37.1402 17.9852C37.1497 17.7022 37.1341 17.4189 37.0936 17.1386C37.0168 16.6491 36.8632 16.055 36.7285 15.7096C36.4684 15.0571 35.777 13.3872 35.6533 12.9717C35.6533 12.8668 35.7893 12.9251 35.7893 12.9251C35.7893 12.9251 36.1269 13.7717 36.3755 14.424C36.6164 15.0765 36.8455 15.6513 36.9039 15.7096C36.9505 15.7677 37.3155 16.4085 37.4786 17.4571C37.6417 18.5057 37.6998 19.4726 37.7971 20.1172C37.8437 20.4244 37.8826 20.7503 37.9796 21.0764C38.0843 21.4299 38.2474 21.795 38.4611 22.3541C38.6437 22.8241 38.7796 23.2163 38.8533 23.5542C38.9388 23.9853 38.9388 24.3115 38.9893 24.5252C39.0361 24.7078 39.1057 25.0726 39.2691 25.6004C39.4324 26.1283 39.6728 26.8083 39.8358 27.2314C40.1546 28.078 40.2966 28.7848 40.3448 29.1617C40.3873 29.55 40.5311 30.8938 40.4922 31.2975L40.493 31.297Z" fill="#A88F33"/>
<path fill-rule="evenodd" clip-rule="evenodd" d="M32.6487 5.49128L32.6292 5.53787C32.6292 5.53787 32.6873 5.55733 32.6758 5.63515C32.6766 5.74163 32.6701 5.84803 32.6564 5.95362C32.6372 6.08955 32.5982 6.19426 32.5906 6.27976C32.5906 6.46229 32.6177 6.67195 32.3602 7.1924C32.2834 7.33602 32.236 7.46018 32.1971 7.54568C32.1001 7.75535 32.0806 7.78658 31.9951 7.8836C32.1311 7.8068 32.6205 7.4996 32.8688 7.54568C32.6981 7.64271 32.4377 7.83317 32.2747 8.08175C32.3136 8.08943 32.4767 8.12066 32.7355 8.08175C33.1666 8.0157 33.6481 7.86031 34.0713 7.89128C34.5336 7.91842 34.3511 7.33602 34.3511 7.33602L33.8176 6.16328L32.8079 5.45288L32.6487 5.49154V5.49128Z" fill="#BE9C44"/>
<path fill-rule="evenodd" clip-rule="evenodd" d="M35.2815 14.2757C35.2815 14.2757 34.8309 13.8252 34.6484 12.2789C34.4658 10.7255 34.5048 8.43893 34.5048 8.43893L34.1397 7.54575C34.1397 7.54575 34.0629 6.95157 33.8717 6.73039C33.6804 6.5092 33.3049 6.13621 33.1339 5.95368C32.9629 5.77115 32.7688 5.52258 32.6523 5.48367C32.7105 5.38664 32.9708 4.83906 33.9687 4.83138C34.9666 4.8237 35.2743 5.37896 35.3785 5.58095C35.4827 5.78293 35.9532 6.65615 36.1278 8.32015C36.2909 9.9821 36.2988 10.1065 36.2717 10.6812C36.2522 10.9997 36.1473 11.7375 35.9645 12.5257C35.7976 13.1939 35.615 13.9396 35.281 14.2773L35.2815 14.2757Z" fill="#A17C34"/>
<path fill-rule="evenodd" clip-rule="evenodd" d="M33.8688 15.6001C34.019 15.6109 34.169 15.5771 34.2999 15.5028C34.4436 15.4951 34.964 15.5612 35.3639 15.0525C35.391 15.1687 35.4612 15.4836 35.2784 15.7631C35.3757 15.6659 35.5193 15.6272 35.5387 15.6001C35.5464 15.7437 35.6824 16.1863 35.1076 17.262C35.2628 17.0913 35.4453 17.0989 35.6084 17.0795C35.6163 17.2815 35.7248 17.9609 35.4376 18.3262C35.2474 18.5748 34.9366 18.497 34.9366 18.497C34.9412 18.4427 34.9412 18.3882 34.9366 18.3339C34.9289 18.2289 34.89 18.1242 34.9174 18.0543C34.7672 17.9857 34.6305 17.891 34.5135 17.7745C34.1755 17.4561 33.7367 16.9126 33.7058 16.5086C33.6669 16.0581 34.0708 15.961 34.0708 15.961C34.037 15.9308 34.0081 15.8953 33.9853 15.8561C33.9659 15.7903 33.9464 15.6853 33.8688 15.6001Z" fill="#8C6228"/>
<path fill-rule="evenodd" clip-rule="evenodd" d="M30.8732 10.7146C30.8732 10.7146 30.8537 10.6875 30.749 10.8117C30.7685 10.6875 30.7879 10.5708 30.7956 10.4581C30.8452 10.3539 30.9093 10.2571 30.9861 10.1709C30.9277 10.2871 30.8888 10.3921 30.8888 10.3921C30.8888 10.3921 31.0327 10.1241 31.2423 9.96098C31.3859 9.8445 31.5685 9.79023 31.646 9.68143C31.7315 9.56495 31.7121 9.5455 31.7315 9.52604C31.7315 9.52604 31.922 9.40188 32.2133 9.03657C32.252 8.98998 32.3104 8.93954 32.3493 8.89295C32.4151 8.86582 32.5704 8.79593 32.753 8.70249C32.9434 8.59778 33.1569 8.45417 33.289 8.39529C33.5491 8.27881 33.8251 8.29058 33.9531 8.1078C34.0501 8.08066 34.1548 7.78934 34.1356 7.54102C34.2792 7.59913 35.017 8.05737 35.2697 9.05935C35.4522 9.77001 35.1258 10.8652 34.9899 11.3936C34.854 11.9219 34.8348 12.3139 34.6443 12.5545C34.4034 12.8732 33.627 13.3225 33.4365 13.545C33.2734 13.7275 32.7842 14.1896 32.8034 14.5234C32.8229 14.772 33.1295 14.9074 33.1959 14.9545C33.2622 15.0016 33.2616 15.0595 33.3861 15.0313C33.5105 15.0032 33.5568 14.9458 33.6075 14.9458C33.6656 14.9535 33.6656 14.9653 33.6927 14.9653C33.7124 14.9647 33.732 14.962 33.7511 14.9573C33.7511 14.9573 33.7317 15.3109 32.9045 15.4181C32.8462 15.4261 32.788 15.4453 32.7141 15.457C32.8113 15.4105 32.8695 15.4105 32.9744 15.2668C32.8579 15.2474 32.5239 15.2279 32.4384 15.2008C32.4655 15.1542 32.5548 15.0298 32.6286 14.9717C32.6946 14.9136 32.6209 14.8949 32.5628 14.9251C32.4627 14.9932 32.3667 15.067 32.2753 15.1463C32.1783 15.2318 32.0928 15.3482 31.9374 15.4535C31.8908 15.2981 31.8985 15.0029 32.0812 14.7894C32.0344 14.7971 31.945 14.933 31.8598 14.9059C31.8444 14.7642 31.8536 14.621 31.8869 14.4825C31.9335 14.3076 32.1859 14.0009 32.1859 14.0009L33.4053 11.8221L33.6654 10.1717L30.8732 10.7141V10.7146Z" fill="#92723A"/>
<path fill-rule="evenodd" clip-rule="evenodd" d="M30.8077 10.8079C30.8077 10.8079 30.7416 10.8545 30.8737 10.9439C30.8542 10.971 30.8077 11.068 30.7493 11.1341C30.6835 11.2109 30.6133 11.2585 30.5862 11.3245C30.5281 11.4605 30.4815 11.5537 30.4815 11.612C30.4815 11.6704 30.4621 12.0431 30.299 12.2838C30.2406 12.3693 30.1746 12.5129 30.128 12.6099C30.0309 12.7807 29.9454 12.9171 29.926 12.9939C29.8873 13.1299 29.8602 13.5026 29.8602 13.5026C29.8602 13.5026 29.9457 13.3976 29.9767 13.359C29.9298 13.456 29.8794 13.5607 29.8057 13.6385C29.8523 13.5996 29.9882 13.5026 30.2173 13.3006C30.5358 13.0328 31.0329 12.5823 31.6389 12.2254C31.4561 12.2915 31.301 12.2915 31.1768 12.3109C31.2738 12.2139 32.1476 11.1886 32.6058 11.0916C32.6336 11.0563 32.6475 11.012 32.6447 10.9672L32.2523 10.9285L31.4561 11.0993L31.3399 10.4849L30.8077 10.8072V10.8079Z" fill="#B18E3E"/>
<path fill-rule="evenodd" clip-rule="evenodd" d="M32.0736 14.3028C32.0736 14.3028 31.9687 14.4075 31.8717 14.6679C31.797 14.5899 31.7329 14.5023 31.6812 14.4075C31.5376 14.1669 31.3164 13.86 30.7998 14.0348C30.7921 13.8717 30.7803 13.7862 30.7998 13.6698C30.8853 13.6506 31.1454 13.4409 31.4055 13.1339C31.5883 12.9243 31.759 12.6834 31.8755 12.3767C31.9523 12.3183 32.0852 12.2213 32.2595 12.1087C32.5081 11.9379 32.8071 11.7047 32.8537 11.4446C32.7372 11.4912 32.4886 11.6077 32.1156 11.5885C32.2595 11.5224 32.4807 11.4525 32.4535 11.1651C32.5119 11.1261 32.5585 11.099 32.5585 11.099C32.5147 11.0844 32.4687 11.0778 32.4226 11.0795C32.4146 11.0524 32.4031 11.0138 32.3371 11.033C32.271 11.0522 32.2603 11.0524 32.2516 11.0795C32.2244 11.0875 32.1351 11.0795 32.069 11.1264C32.003 11.1732 31.8205 11.3281 31.7506 11.3553C31.7777 11.3087 31.8164 11.239 31.8164 11.239C31.8164 11.239 31.6262 11.2582 31.4902 11.3158C31.2416 11.4013 30.9544 11.5567 30.6631 11.708C30.6902 11.6614 30.702 11.6312 30.7212 11.6225C30.7404 11.6138 30.7872 11.6033 30.7872 11.5954C30.7872 11.5875 30.768 11.5186 30.7796 11.4907C30.8667 11.3062 30.9694 11.1295 31.0868 10.9626C31.2227 10.7798 31.2498 10.5197 31.2498 10.5197L31.844 10.2207L33.5139 9.83667L34.5975 9.90272L34.4616 10.6523L33.8216 11.961L33.274 13.1531L32.6486 13.8835L32.0739 14.3028H32.0736Z" fill="#543E26"/>
<path fill-rule="evenodd" clip-rule="evenodd" d="M34.7802 11.0593C34.7802 11.0593 34.1276 11.867 33.9451 11.9914C34.0616 11.7428 34.7802 10.2631 35.0403 9.8515C34.9822 9.80491 34.9043 9.80491 35.0869 9.0835C34.9317 9.4483 34.8772 9.63876 34.7492 9.73578C34.6212 9.83281 34.6053 9.80183 34.5188 9.80183C34.5351 9.77228 34.5418 9.73836 34.538 9.70481C34.538 9.70481 33.9904 9.63876 33.6164 9.63876C33.2424 9.63876 32.502 9.84075 32.0901 10.0038C31.764 10.1398 31.5814 10.1398 31.465 10.225C31.3485 10.322 31.2824 10.427 31.2241 10.4541C31.1775 10.4813 30.9563 10.5511 30.9056 10.6249C30.859 10.7017 30.7814 10.7879 30.7814 10.8074C30.7814 10.8269 30.762 10.8543 30.8203 10.8345C30.8395 10.8269 30.9834 10.749 31.1465 10.652C31.3677 10.5279 31.6357 10.3842 31.83 10.2987C32.3853 10.0773 32.5601 10.1162 32.8085 10.0696C33.0685 10.023 33.4415 9.91422 33.6899 9.91422C33.9384 9.90654 34.4085 9.91422 34.5173 9.93367C34.4707 9.97259 34.4318 10.0192 34.4512 10.1822C34.4512 10.2288 34.4123 10.2793 34.3744 10.3919C34.2582 10.7104 34.0367 11.2385 33.9136 11.5065C33.7429 11.8713 33.5488 12.1783 33.4528 12.3685C33.3568 12.5587 33.1456 13.0597 32.9365 13.3277C32.7273 13.5958 32.618 13.7588 32.5525 13.8172C32.4869 13.8756 32.0164 14.2209 32.0515 14.3453C32.137 14.3182 32.6769 14.1149 33.0688 13.6736C33.4607 13.2322 33.5388 12.9629 33.8455 12.722C34.1522 12.4811 34.3931 12.0774 34.5367 11.7436C34.657 11.4328 34.6299 11.3358 34.7812 11.0601L34.7802 11.0593Z" fill="#806031"/>
<path fill-rule="evenodd" clip-rule="evenodd" d="M20.7187 17.0875C20.7187 17.0875 20.6332 17.4408 20.4389 17.6156C20.2487 17.7866 19.9107 17.9341 19.8721 18.2216C19.8255 18.5088 20.21 18.6527 20.21 18.6527C20.21 18.6527 20.0001 18.9983 20.0001 19.2584C20.0001 19.5264 19.9924 19.5768 20.0195 19.8331C19.9887 19.8529 19.9625 19.8791 19.9427 19.9099C19.9427 19.9099 19.9619 20.1585 20.1524 20.3136C20.3429 20.4687 20.5057 20.5622 20.6027 20.5233C20.6175 20.5549 20.6305 20.5874 20.6416 20.6205C20.6416 20.6205 20.7855 20.2555 20.8825 19.937C20.9795 19.6109 21.065 19.6572 21.1037 19.2184C21.1424 18.7796 21.5645 18.0262 21.5645 18.0262L21.8525 17.3824L21.3827 17.0173L20.7187 17.0872V17.0875Z" fill="#B6903C"/>
<path fill-rule="evenodd" clip-rule="evenodd" d="M21.5923 17.7202C21.4954 17.8197 21.406 17.9261 21.3248 18.0387C21.2006 18.2097 21.1036 18.3648 20.9211 18.4311C20.7386 18.4974 20.6221 18.4969 20.6336 18.6797C20.6451 18.8625 20.8161 18.9398 20.9131 19.033C21.0181 19.13 21.1036 19.2931 21.057 19.4759C21.1151 19.4487 21.2201 19.4175 21.3171 19.2078C21.4141 18.9982 22.0928 17.7205 22.0928 17.7205H21.5923V17.7202Z" fill="#685026"/>
<path fill-rule="evenodd" clip-rule="evenodd" d="M24.2685 14.7728C24.2685 14.7728 24.3266 14.6176 24.2685 14.505C24.2101 14.3885 23.8569 14.3496 23.682 14.2175C23.4995 14.0816 23.278 13.9871 23.0955 14.0468C23.1226 13.9807 23.2314 13.8368 23.1421 13.8059C23.0566 13.7787 22.7384 13.9223 22.6529 13.9884C22.5674 14.0544 22.3731 14.132 22.3344 14.1789C22.2958 14.2257 22.2295 14.3148 22.1906 14.2759C22.1516 14.2487 22.1324 14.1789 22.0664 14.2175C22.0003 14.2562 21.6824 14.5165 21.6238 14.6681C21.5651 14.8196 21.4333 15.1575 21.0373 15.5418C20.6412 15.9261 20.4702 16.1749 20.5867 16.3185C20.7032 16.4621 20.7577 16.3574 20.7772 16.4816C20.7921 16.6035 20.7856 16.727 20.7577 16.8466C20.7111 17.0486 20.6336 17.2388 20.7383 17.2777C21.0063 17.3633 21.2666 17.2009 21.3248 17.2506C21.4412 17.3553 21.2587 17.7321 21.5344 17.8059C21.8142 17.8827 22.0899 17.7398 22.0899 17.7398L23.1073 17.1922L24.086 16.6759L24.5867 15.6854L24.3182 14.8583L24.267 14.7728H24.2685Z" fill="#D4B968"/>
<path fill-rule="evenodd" clip-rule="evenodd" d="M23.3088 17.1381C23.3088 17.1381 23.1378 16.878 23.3477 16.6486C23.5577 16.4192 23.8564 16.3224 23.9729 16.1788C23.9507 16.1515 23.921 16.1313 23.8874 16.1207C23.9647 15.9824 24.0827 15.8711 24.2253 15.802C24.1672 15.7439 24.0894 15.6973 24.0041 15.6973C23.8137 15.6973 23.6969 15.8138 23.5223 15.8138C23.3516 15.8138 23.3321 15.7283 23.3321 15.7283C23.3321 15.7283 23.6196 15.7011 23.5922 15.5729C23.5651 15.4369 23.5154 15.4369 23.5154 15.4369C23.5154 15.4369 24.0707 15.2065 24.1677 15.0837C24.2647 14.9608 24.2532 14.8156 24.2727 14.7575C24.3385 14.7575 24.723 14.5555 24.8784 14.641C25.0338 14.7265 24.925 14.9595 24.925 14.9595C24.925 14.9595 25.3952 14.606 25.6348 14.2593C25.8445 14.2788 25.942 14.1157 26.0956 14.1157C26.2861 14.1157 26.5851 14.3758 26.6432 14.9311C26.6821 15.2495 26.7403 15.4321 26.6821 15.9953C26.655 16.3137 26.6627 16.9937 26.7589 17.3311C26.8247 17.5991 26.9801 17.572 26.9801 17.572C26.9563 17.6537 26.909 17.7265 26.8442 17.7816C26.7392 17.8787 26.7277 18.1352 26.7392 18.2322C26.7547 18.3031 26.7742 18.3731 26.7976 18.4419C26.7976 18.4419 26.6734 18.5855 26.6422 18.6828C26.6151 18.7798 26.4871 18.8458 26.3936 18.8458C26.3002 18.8458 26.347 18.8379 26.2229 18.8458C26.0987 18.8538 26.0598 18.873 25.982 18.8458C25.9042 18.8187 25.846 18.7875 25.8773 18.5386C25.9044 18.2901 24.918 17.7115 24.918 17.7115L23.3052 17.1368L23.3088 17.1381Z" fill="#CCA849"/>
<path fill-rule="evenodd" clip-rule="evenodd" d="M21.4564 19.5922C21.4564 19.5922 21.8096 20.0623 23.2622 20.0623C23.9534 20.0623 24.1943 19.9962 24.3374 19.9573C24.4928 19.9184 25.0752 19.6895 25.6617 18.9981C26.1898 18.3729 26.0733 18.1167 26.0733 18.1167L25.7661 18.0701L24.7677 18.206L21.8135 19.4642L21.4551 19.5922H21.4564Z" fill="#585136"/>
<path fill-rule="evenodd" clip-rule="evenodd" d="M22.5395 19.7086C22.5395 19.7086 21.2812 19.9885 21.2812 19.1923C21.2812 18.4156 22.058 17.6 22.2523 17.4564C22.4542 17.3125 22.9358 17.1492 22.9358 17.1492H24.097L24.3182 17.7357L24.2212 19.0016L22.5395 19.7084V19.7086Z" fill="#252211"/>
<path fill-rule="evenodd" clip-rule="evenodd" d="M23.7006 17.3865C23.7006 17.3865 23.4599 17.165 22.9123 17.4633C22.3648 17.7615 21.9219 18.3849 21.8947 18.9509C21.8676 19.4516 22.3064 19.8246 22.9899 19.8441C23.4986 19.8633 23.8055 19.8051 23.9609 19.7673C23.922 19.7207 23.72 19.4682 23.72 19.4682L23.7008 17.3867L23.7006 17.3865Z" fill="#C3B378"/>
<path fill-rule="evenodd" clip-rule="evenodd" d="M23.4643 17.5104C23.4643 17.5104 23.4062 17.4638 23.2339 17.557C23.0903 17.6338 22.8806 17.8368 22.7175 17.9804C22.6126 18.0659 22.5465 18.1046 22.4871 18.1707C22.2462 18.4581 22.0443 18.9282 22.161 19.1611C22.2777 19.3941 22.662 19.6621 23.6407 19.4796L23.4615 17.5107L23.4643 17.5104Z" fill="#E6D89C"/>
<path fill-rule="evenodd" clip-rule="evenodd" d="M23.1462 17.9922C23.1462 17.9922 22.9908 18.2331 22.9908 18.6176C22.9908 19.0098 23.2122 19.635 24.0278 19.6816C24.653 19.7205 25.0723 18.7807 25.5267 18.4156C25.8723 18.1361 26.082 18.1282 26.082 18.1282C26.082 18.1282 25.7287 17.7442 24.7851 17.2468C23.853 16.7458 22.8083 16.6797 22.2412 17.4487C22.5092 17.4293 23.3753 17.2078 23.3753 17.2078L23.7987 17.3438L23.1462 17.9925V17.9922Z" fill="#252211"/>
<path fill-rule="evenodd" clip-rule="evenodd" d="M24.3647 18.5008C24.3375 18.4427 24.3181 18.3649 24.4307 18.3457C24.5434 18.3265 24.5938 18.3377 24.6327 18.4225C24.6716 18.5072 24.7095 18.5778 24.6519 18.6129C24.5938 18.6439 24.4422 18.6129 24.3644 18.5003L24.3647 18.5008ZM24.1821 17.9532C24.1821 17.9532 24.1432 17.9803 24.1627 17.9261C24.1704 17.8603 24.221 17.7435 24.3452 17.7709C24.4694 17.7983 24.4425 17.934 24.422 17.9729C24.4015 18.0118 24.2978 18.0776 24.22 18.0497C24.2102 18.0472 24.201 18.0424 24.1934 18.0357C24.1857 18.029 24.1797 18.0205 24.1759 18.0111C24.1722 18.0016 24.1707 17.9914 24.1715 17.9813C24.1724 17.9711 24.1757 17.9613 24.1811 17.9527L24.1821 17.9532Z" fill="#6F674D"/>
<path fill-rule="evenodd" clip-rule="evenodd" d="M13.6709 18.2017C13.6709 18.2017 13.9781 18.4321 14.335 18.4231C14.6882 18.4152 15.1426 18.0504 15.3523 17.8172C15.4765 17.6812 15.5827 17.5376 15.6979 17.425C15.7952 17.3279 15.861 17.2813 15.9076 17.2153C15.9736 17.1385 16.0435 16.9941 16.0786 16.9473C15.9931 17.0133 15.8689 17.13 15.7406 17.2076C15.6165 17.2844 15.3485 17.4288 15.2397 17.4677C15.135 17.5066 14.0475 18.0821 14.0475 18.0821L13.6709 18.2017Z" fill="#AC924C"/>
<path fill-rule="evenodd" clip-rule="evenodd" d="M14.1396 15.332C14.1396 15.332 14.3104 15.2155 14.6406 15.1416C14.9591 15.0648 15.5999 15.0056 15.5999 15.0056L16.128 15.236L16.3377 16.0322L15.9537 16.8596L15.4645 17.1668L14.9089 16.2736L14.1409 15.3335L14.1396 15.332Z" fill="#9F8E57"/>
<path fill-rule="evenodd" clip-rule="evenodd" d="M13.4484 16.0428L13.2656 16.1792C13.2656 16.1792 13.3125 16.0937 13.3511 15.8336C13.3898 15.5735 13.592 14.9404 13.8872 14.5754C14.1824 14.2103 14.1747 14.2298 14.1747 14.2298C14.1475 14.2248 14.1196 14.2257 14.0928 14.2323C14.066 14.239 14.041 14.2513 14.0193 14.2684C14.0582 14.1824 14.3068 13.8752 14.5554 13.7216C14.8039 13.568 14.901 13.5196 15.1611 13.6448C15.4211 13.77 15.4872 13.835 15.6777 13.8273C15.8681 13.8197 16.0309 13.6177 16.0309 13.6177C16.0309 13.6177 16.0699 13.7418 15.9262 14.0293C15.7826 14.3168 15.2156 14.903 15.2156 14.903L14.0349 15.7107L13.4484 16.0435V16.0428Z" fill="#EAC970"/>
<path fill-rule="evenodd" clip-rule="evenodd" d="M14.3223 15.235C14.3223 15.235 15.1768 15.3515 15.4369 15.1108C15.4446 15.1379 15.4759 15.1379 15.4759 15.1574C15.4738 15.1721 15.4669 15.1856 15.4564 15.1961C15.4847 15.1915 15.5133 15.189 15.5419 15.1884C15.5761 15.1986 15.6113 15.2051 15.6469 15.2078C15.6755 15.2072 15.7041 15.2046 15.7324 15.1999C15.7297 15.2192 15.7231 15.2378 15.7131 15.2545C15.7031 15.2712 15.6898 15.2857 15.674 15.2972C15.7129 15.2972 15.7508 15.3049 15.7508 15.3358C15.7508 15.3668 15.7585 15.4602 15.7119 15.4797C15.6733 15.4904 15.6322 15.4876 15.5954 15.4718C15.5985 15.5453 15.6185 15.6171 15.6538 15.6817C15.7306 15.8253 15.8944 15.9889 16.1146 15.9418C16.1146 15.9418 16.2308 16.2213 15.7416 16.8426C15.6758 16.9281 15.6057 17.0446 15.5204 17.1417C15.4867 17.2151 15.461 17.2919 15.4436 17.3708C15.4436 17.3708 16.271 17.0523 16.5078 16.326C16.7487 15.5959 16.7953 14.8776 16.7487 14.2059C16.7408 14.0154 16.7098 13.8797 16.6632 13.7824C16.5467 13.5415 16.2203 13.5804 16.0885 13.7164C15.898 13.9068 15.5795 14.3804 15.1369 14.7066C14.6863 15.0327 14.6671 15.0906 14.3213 15.235H14.3223Z" fill="#D7BC6B"/>
<path fill-rule="evenodd" clip-rule="evenodd" d="M13.2971 16.2836C13.2971 16.2836 13.134 16.3806 13.0485 16.7444C12.963 17.1171 13.1253 17.5715 13.2193 17.7151C13.3132 17.8588 13.5265 18.2512 13.9688 18.2707C14.0783 18.2701 14.1866 18.2476 14.2873 18.2046C14.4417 18.1338 14.5866 18.0437 14.7184 17.9366C14.9089 17.793 15.064 17.6688 15.0445 17.657C14.998 17.6376 13.8718 16.7055 13.8718 16.7055L13.4484 16.2329L13.2968 16.2841L13.2971 16.2836Z" fill="#585136"/>
<path fill-rule="evenodd" clip-rule="evenodd" d="M14.3618 17.8292C14.3618 17.8292 14.5909 17.81 14.7268 17.7245C14.8628 17.639 13.9307 16.7148 13.9307 16.7148L13.9967 17.7132L14.3618 17.8292Z" fill="#453A25"/>
<path fill-rule="evenodd" clip-rule="evenodd" d="M13.3703 16.2136C13.3703 16.2136 13.2538 16.435 13.2538 16.4934C13.2344 16.6836 13.2928 17.2816 13.3393 17.4718C13.3859 17.6738 13.6384 17.9805 13.9648 17.9805C14.1665 17.9805 14.4463 17.8563 14.4463 17.8254C14.4463 17.7864 14.1588 17.7486 14.0812 17.6039C14.0346 17.5271 14.0152 17.3361 14.0044 17.1431C13.9968 17.019 13.9968 16.883 14.0433 16.8359C14.1483 16.7194 14.1675 16.3854 14.1675 16.3854L14.5402 15.6929H14.05L13.4635 16.0579L13.3703 16.2136Z" fill="#84754B"/>
<path fill-rule="evenodd" clip-rule="evenodd" d="M13.2275 16.4272C13.2275 16.4272 13.6115 15.9186 13.9577 15.8018C14.3038 15.6851 14.4586 15.7552 14.4586 15.7552L14.2567 16.2718L13.9692 16.5903L13.9886 16.7534C13.9886 16.7534 13.9418 17.1845 14.2293 17.4835C14.5168 17.7825 14.7303 17.771 14.8547 17.771C14.9791 17.771 15.3362 17.666 15.5187 17.2349C15.6818 16.8312 15.8177 16.3133 15.4916 15.7941C15.1729 15.2775 14.6099 15.2576 14.5011 15.2576C14.3923 15.2576 13.5381 15.3003 13.2275 16.4265V16.4272Z" fill="#252211"/>
<path fill-rule="evenodd" clip-rule="evenodd" d="M23.0875 18.1552C22.9439 18.0891 23.0798 17.6854 23.2234 17.561C23.367 17.4366 23.5496 17.2932 23.8683 17.2735C23.9845 17.2658 24.0971 17.3395 24.0779 17.4174C24.0508 17.561 23.8488 17.763 23.6663 17.9066C23.4139 18.1047 23.2506 18.2289 23.0875 18.1552Z" fill="#F7F7E7"/>
<path fill-rule="evenodd" clip-rule="evenodd" d="M15.3199 15.9534C15.4248 15.9457 15.5608 16.0302 15.5879 16.1438C15.615 16.268 15.5218 16.5166 15.3199 16.5166C15.1568 16.5166 15.0713 16.3146 15.0713 16.2565C15.0731 16.2087 15.0865 16.1621 15.1102 16.1205C15.1179 16.1088 15.1373 15.9728 15.3199 15.9534Z" fill="#F8F6DE"/>
<path fill-rule="evenodd" clip-rule="evenodd" d="M13.8056 16.0427C13.8056 16.0427 13.5376 16.1669 13.4134 16.4267C13.3247 16.6186 13.2979 16.8333 13.3366 17.0411C13.3561 17.1381 13.4531 17.3788 13.5191 17.4643C13.5852 17.5498 13.6745 17.6082 13.7406 17.6002C13.8066 17.5923 13.9423 17.4177 13.9423 17.313C13.9423 17.2083 13.9502 16.7654 14.0782 16.5245C14.1909 16.2839 13.8064 16.043 13.8064 16.043L13.8056 16.0427Z" fill="#D4C38B"/>
<path fill-rule="evenodd" clip-rule="evenodd" d="M13.8443 16.0234C13.7977 16.0505 13.7201 16.0894 13.7393 16.1399C13.7588 16.1865 13.9219 16.2167 13.9802 16.3303C14.0463 16.4468 14.0463 16.571 14.0268 16.6293C14.0775 16.6052 14.1236 16.5723 14.1627 16.532C14.2483 16.435 14.353 16.3032 14.4423 16.3032C14.5007 16.3032 14.5588 16.3303 14.6133 16.3303C14.6988 16.3303 14.7841 16.3032 14.7958 16.2138C14.815 16.0974 14.6328 15.9924 14.5278 16.0119C14.5473 15.9351 14.5744 15.8217 14.4889 15.7438C14.4034 15.666 14.1356 15.8022 14.0772 15.8411C14.0189 15.88 13.8443 16.0236 13.8443 16.0236V16.0234Z" fill="#E2D59D"/>
<path fill-rule="evenodd" clip-rule="evenodd" d="M20.0154 24.1824L20.5901 24.0127L20.7532 24.1292C20.7532 24.1292 20.8694 24.3778 21.0522 24.4087C20.9938 24.5329 20.8422 24.6391 20.8502 24.7272C20.8581 24.8153 20.9357 24.8826 20.9357 24.8826C20.9357 24.8826 20.4191 25.7369 21.4367 26.5978C21.1958 26.6948 20.8891 26.8282 20.726 26.905C20.8422 26.9321 21.0908 26.9818 21.1958 27.076C21.3007 27.1702 21.3007 27.2002 21.3978 27.2585C21.4948 27.3169 21.5529 27.3945 21.5337 27.4293C21.4676 27.3904 21.2462 27.2742 21.2076 27.3827C21.1689 27.4912 20.2483 27.4487 20.2483 27.4487L18.6949 27.7478C18.6949 27.7478 18.753 27.5924 18.59 27.4487C18.3997 27.278 18.1668 27.4564 17.9182 27.2662C17.5921 27.0176 17.5803 26.7302 17.4756 26.6216C17.5803 26.5556 17.794 26.4585 18.3027 26.3912C18.2833 26.3523 18.2172 26.2358 18.2561 26.1311C18.3027 25.9952 18.4968 25.9097 18.4387 25.7471C18.5242 25.7276 18.5628 25.7276 18.7766 25.4596C18.9786 25.1916 19.1027 25.1335 19.2581 25.114C19.4135 25.0946 19.5067 25.114 19.7942 24.846C19.9959 24.6558 19.9301 24.4927 19.9301 24.4927C19.9301 24.4927 20.062 24.4499 20.0156 24.1819L20.0154 24.1824Z" fill="#CBAC5A"/>
<path fill-rule="evenodd" clip-rule="evenodd" d="M18.3183 24.2688C18.326 24.2299 18.3572 24.2105 18.5669 24.2299C18.7765 24.2494 20.1047 24.1058 20.4659 24.0863C20.8309 24.0592 22.1163 24.0784 22.7417 24.2105C23.3671 24.3426 23.9999 24.4979 24.3066 24.5755C24.6138 24.661 24.7106 24.6917 24.6988 24.7306C24.6911 24.7695 24.622 24.8074 24.5824 24.7967C24.5437 24.789 23.5261 24.4782 23.2117 24.4127C22.8974 24.3472 21.8096 24.1718 21.2149 24.1823C20.6597 24.1902 20.4382 24.1746 19.9685 24.2289C19.4984 24.2873 18.7217 24.3648 18.4888 24.3339C18.2584 24.3067 18.306 24.3067 18.3178 24.2678L18.3183 24.2688Z" fill="#D6BC6F"/>
<path fill-rule="evenodd" clip-rule="evenodd" d="M21.4442 27.3126C21.4442 27.3126 22.2403 27.7437 22.5278 28.2718C22.7375 28.664 22.4037 28.8583 22.4037 28.8583C22.4037 28.8583 22.8542 28.8583 22.7959 29.1069C22.7687 29.2621 22.0191 29.6814 21.5182 29.9028C21.0095 30.1243 21.0289 30.1127 20.7804 30.1514C20.5395 30.1903 19.8792 30.0746 19.7433 30.2679C19.6074 30.4612 19.6665 30.6603 19.7044 30.6913C19.7433 30.7184 20.0579 30.7573 20.0579 30.7573C20.0579 30.7573 19.9919 30.9399 19.3396 30.9593C18.6873 30.9788 18.524 31.0251 18.4851 31.0953C18.4462 31.1611 18.6092 31.1224 18.9085 31.1721C19.2075 31.2187 19.6268 31.2489 19.6268 31.2489C19.6268 31.2489 19.4909 31.3653 19.1376 31.4585C18.7336 31.5632 18.1006 31.6605 17.9103 31.777C18.0074 31.843 18.1512 31.9401 18.2175 31.9477C18.0545 31.9867 17.8251 32.0722 17.7864 32.1031C17.8446 32.1421 17.9224 32.1886 17.9224 32.1886C17.9224 32.1886 17.596 32.5808 17.4058 32.6781C17.2156 32.7754 16.1204 33.2838 15.7436 33.1868C14.8038 32.9382 14.6873 31.9091 14.4582 31.8315C14.1126 31.715 13.9495 31.9477 13.6426 31.7847C13.7785 31.6877 13.8525 31.6295 13.9961 31.5635C13.8407 31.4867 13.0369 30.977 13.0369 30.977C12.9528 30.7938 12.8595 30.6149 12.7573 30.4412C12.6019 30.1732 12.3733 29.8158 12.2018 29.5012C11.8291 28.81 11.8096 28.4915 11.4717 28.0993C11.53 28.0225 11.7318 28.0333 11.7318 28.0333L14.5631 28.9654L19.5836 29.1108L20.8892 27.2468L21.4444 27.3129L21.4442 27.3126Z" fill="#DFC677"/>
<path fill-rule="evenodd" clip-rule="evenodd" d="M14.0078 30.1552C14.0381 30.1889 14.0734 30.2178 14.1125 30.2407C14.2098 30.3068 14.3534 30.3846 14.4504 30.5008C14.4893 30.4427 14.5864 30.3377 14.7576 30.5008C14.9289 30.6639 15.1416 30.5477 15.274 30.5863C15.4099 30.6332 15.4176 30.6524 15.4176 30.6524C15.4176 30.6524 15.4944 30.5863 15.6662 30.5164C15.7711 30.4775 15.8953 30.4504 16.0312 30.4117C16.1554 30.3846 16.2913 30.3457 16.3848 30.3457C16.4703 30.4038 16.777 30.7297 18.0081 30.2486C19.1693 29.7981 19.4371 29.7477 19.6314 29.8173C19.6508 29.7707 19.6703 29.6813 19.9693 29.6931C19.9693 29.569 19.7207 29.1455 19.7207 29.1455L18.3498 28.6758H17.6L15.3516 29.0874L14.1056 29.7983L14.0086 30.1567L14.0078 30.1552Z" fill="#C4A859"/>
<path fill-rule="evenodd" clip-rule="evenodd" d="M13.2588 29.3671C13.2588 29.3671 13.2859 29.5768 13.5967 29.7982C13.9039 30.0194 14.0004 30.1515 14.0004 30.1515C14.0004 30.1515 14.0588 30.0747 14.1054 29.9964C14.152 29.9109 14.1909 29.8138 14.2685 29.7867C14.4238 29.7207 14.7771 29.8448 14.855 29.8254C14.921 29.8062 14.9015 29.6702 14.9714 29.6702C15.1345 29.6623 15.2392 29.7749 15.2976 29.7749C15.3559 29.7749 15.4993 29.7672 15.5188 29.7363C15.5382 29.7053 15.5459 29.3827 15.7673 29.2273C16.0082 29.0566 16.3034 29.1303 16.3817 29.1692C16.3817 29.2273 16.3894 29.3712 16.5448 29.3789C16.7002 29.3866 16.7156 29.3594 16.852 29.406C16.9885 29.4526 17.151 29.3984 17.2248 29.6272C17.2908 29.608 17.4462 29.5886 17.4073 29.3671C17.4841 29.309 17.5512 29.2701 17.7145 29.041C17.7534 28.9829 17.8192 28.9168 17.8699 28.8313C18.0058 28.8313 18.1689 28.8042 18.3862 28.9944C18.3202 29.041 18.2813 29.0712 18.2621 29.1185C18.3189 29.1748 18.3708 29.2359 18.4172 29.3011C18.4756 29.3779 18.5145 29.4721 18.5882 29.4915C18.7513 29.5381 19.0193 29.4721 19.3183 29.4915C19.6058 29.511 19.8465 29.6157 19.9514 29.6817C19.9903 29.6625 19.9903 29.6546 20.0873 29.6741C20.1844 29.6935 20.2581 29.7012 20.1534 29.577C20.2115 29.6042 20.2776 29.6625 20.3359 29.6042C20.3943 29.5458 20.4406 29.4606 20.6037 29.4411C20.7668 29.4217 20.8251 29.4488 20.8912 29.278C20.9767 29.0684 20.6815 29.0684 20.6815 29.0684C20.6815 29.0684 20.8175 28.944 20.969 28.7809C21.1515 28.6101 21.3612 28.3887 21.4116 28.1168C21.4971 27.6158 21.0079 27.55 21.0079 27.55L18.6351 28.2802L15.7341 28.1363L13.2603 29.3674L13.2588 29.3671Z" fill="#927D49"/>
<path fill-rule="evenodd" clip-rule="evenodd" d="M11.1265 22.5126C11.1265 22.5126 11.0497 22.6096 11.0024 22.8387C10.955 23.0678 10.9752 23.0407 10.9363 23.2038C10.8974 23.3668 10.4194 24.9901 10.5986 25.5377C10.7778 26.0853 11.0881 26.2873 11.2822 26.7299C11.3211 26.8269 11.359 26.8853 11.3792 26.9708C11.4452 27.258 11.3871 27.4795 11.4647 27.767C11.4918 27.864 11.562 27.9766 11.6667 28.0931C11.8971 28.3338 12.2726 28.5629 12.4347 28.7259C12.6635 28.9668 12.9899 29.4563 13.4054 29.5026C13.6269 29.5298 13.9415 29.4366 14.2016 29.2815C14.432 29.1376 14.5743 28.9359 14.816 28.8207C14.9867 28.7352 15.1693 28.7042 15.3323 28.6653C15.6703 28.5992 15.9772 28.5885 16.1597 28.6264C16.4393 28.6847 17.0995 28.8867 17.4653 28.8867C17.7512 28.8821 18.0354 28.843 18.3119 28.7702C18.8672 28.6072 19.5389 28.3273 19.9818 28.2032C20.2419 28.1264 20.4516 28.1062 20.6653 28.0596C21.0304 27.9741 21.3371 27.8576 21.5119 27.6362C21.3954 27.5002 21.2518 27.2905 20.4749 27.2982C19.5935 27.3177 18.5759 27.8069 18.0749 27.8847C17.5739 27.9626 17.3565 28.0283 16.7972 27.8264C16.2488 27.6223 16.2306 27.4874 16.2306 27.4874C16.2306 27.4874 15.6549 27.0847 15.414 26.0582C15.1731 25.0316 15.414 24.2836 16.0394 23.5727C16.2025 23.3901 16.1636 23.2271 16.1636 23.2271C16.1636 23.2271 16.5752 22.6718 16.4626 22.1519C16.3384 21.6352 15.5423 21.7402 15.5423 21.7402L11.1268 22.5126H11.1265Z" fill="#6E6342"/>
<path fill-rule="evenodd" clip-rule="evenodd" d="M11.7903 24.2407C11.7561 24.3051 11.7399 24.3776 11.7437 24.4504C11.7514 24.5551 11.7826 24.691 12.097 24.998C12.365 25.2658 12.3066 25.5648 12.3066 25.5648C12.3066 25.5648 12.4416 25.5919 12.8076 25.4207C13.0951 25.2847 13.1916 25.5256 13.1916 25.5256C13.2753 25.4817 13.366 25.4528 13.4597 25.4401C13.5445 25.4323 13.6266 25.4061 13.7003 25.3633C13.7003 25.3633 14.0382 25.7089 14.3334 25.872C14.6014 26.0159 14.7568 26.1129 14.8889 26.0159C15.0131 25.9304 15.0131 25.7555 15.0051 25.6779C14.9743 25.6063 14.9353 25.5386 14.8889 25.4759C14.8034 25.3518 14.6675 25.2079 14.6585 25.0919C14.639 24.8242 14.8605 24.5054 14.8136 24.4279C14.7668 24.3503 14.5925 24.3308 14.1614 24.4862C13.7149 24.6337 11.7885 24.2415 11.7885 24.2415L11.7903 24.2407Z" fill="#39331F"/>
<path fill-rule="evenodd" clip-rule="evenodd" d="M12.8076 25.9769C12.8076 25.9769 12.5864 25.7672 12.664 24.7496C12.7579 24.7483 12.8516 24.7574 12.9435 24.7768C12.9435 24.7768 13.0641 25.5652 12.8076 25.9769Z" fill="#292311"/>
<path fill-rule="evenodd" clip-rule="evenodd" d="M11.2315 21.736C11.2624 21.7132 11.291 21.6875 11.317 21.6592C11.2402 21.8029 10.8857 22.3776 11.1732 23.2826C11.4607 24.1834 12.1828 24.8552 13.0722 24.8864C13.9615 24.9176 14.429 24.4824 14.9635 23.8301C15.1732 23.57 15.4141 23.2436 15.6276 23.0225C15.946 22.6766 16.1946 22.5796 16.1946 22.2457C16.1946 21.5622 15.4955 21.2553 14.4664 20.9486C13.4372 20.6419 12.509 20.6798 12.0274 20.8897C11.5577 21.1186 11.3557 21.3595 11.2313 21.7363L11.2315 21.736Z" fill="#252211"/>
<path fill-rule="evenodd" clip-rule="evenodd" d="M14.5359 26.2834L14.6127 26.2445C14.6127 26.2445 14.6319 25.9373 14.7563 25.9455C14.8805 25.9649 14.9389 26.1283 14.9271 26.1864C14.9194 26.2445 14.8884 26.3418 14.764 26.33C14.6009 26.3338 14.5352 26.2834 14.5352 26.2834H14.5359Z" fill="#3F3824"/>
<path fill-rule="evenodd" clip-rule="evenodd" d="M14.1904 24.9788C14.1904 24.9788 14.2672 24.9516 14.3612 25.0448C14.438 25.0448 14.7728 25.0059 14.8778 25.072C14.9828 25.138 15.0137 25.1961 15.0137 25.1961C15.0137 25.1961 14.6215 25.2816 14.4078 25.1961C14.1904 25.1224 14.1904 24.9788 14.1904 24.9788Z" fill="#2D2815"/>
<path fill-rule="evenodd" clip-rule="evenodd" d="M15.9185 25.0368C15.9185 25.0173 15.7089 24.8737 15.4874 24.8269C15.4485 24.8192 15.4406 24.8463 15.4106 24.8463C15.3912 24.8386 15.3835 24.7803 15.3835 24.7803L15.2576 24.8466C15.2576 24.8466 15.2381 24.8737 15.3041 24.9234C15.3623 24.97 15.4595 25.0089 15.4867 25.0864C15.5138 25.164 15.5138 25.1911 15.5256 25.2029C15.5333 25.2106 15.6692 25.2029 15.7352 25.164C15.8013 25.1251 15.9257 25.0616 15.9178 25.036L15.9185 25.0368Z" fill="#82764F"/>
<path fill-rule="evenodd" clip-rule="evenodd" d="M13.957 25.8253C13.957 25.8253 13.9957 25.5575 14.256 25.5457C14.5238 25.5263 14.5745 25.7864 14.5745 25.7864L14.4191 25.9418C14.4191 25.9379 14.3026 25.7749 13.9583 25.8253H13.957Z" fill="#2D2816"/>
<path fill-rule="evenodd" clip-rule="evenodd" d="M15.6465 24.6718C15.6465 24.6718 15.5026 24.8272 15.1844 24.8738C15.1573 24.8349 15.0989 24.7573 15.1844 24.6331C15.2699 24.509 15.367 24.4701 15.464 24.5087C15.5068 24.5157 15.5467 24.5347 15.5791 24.5636C15.6114 24.5925 15.6348 24.63 15.6465 24.6718Z" fill="#574F35"/>
<path fill-rule="evenodd" clip-rule="evenodd" d="M16.2328 24.8622C16.2407 24.8233 16.2136 24.8156 16.2328 24.7962C16.252 24.7767 16.3572 24.7381 16.3767 24.7573C16.3843 24.7652 16.3767 24.7962 16.3767 24.8341C16.3767 24.872 16.3767 24.9109 16.3572 24.9388C16.3301 24.9777 16.2525 24.9971 16.2136 24.9856C16.1747 24.9741 16.167 24.9196 16.167 24.9088C16.1862 24.9011 16.2328 24.8817 16.2328 24.8622ZM16.8958 24.4429C16.8958 24.4234 16.9619 24.3845 17.0008 24.3845C17.0589 24.3845 17.0589 24.4311 17.0668 24.4429C17.086 24.4506 17.086 24.435 17.1055 24.47C17.1249 24.5051 17.1523 24.5671 17.1326 24.606C17.1129 24.6449 17.0356 24.6718 17.0164 24.6641C16.9893 24.6446 16.9038 24.47 16.8958 24.4429Z" fill="#82764F"/>
<path fill-rule="evenodd" clip-rule="evenodd" d="M15.5615 24.9514C15.5615 24.9514 15.647 24.9706 15.7635 25.0679C15.7246 25.0951 15.6662 25.126 15.6662 25.126C15.6662 25.126 15.6586 25.0367 15.5615 24.9512V24.9514Z" fill="#6E6342"/>
<path fill-rule="evenodd" clip-rule="evenodd" d="M15.3712 24.097C15.3518 24.0778 15.4293 24.0312 15.4759 24.0389C15.5225 24.0466 15.542 24.0778 15.5924 24.0855C15.6429 24.0932 15.6508 24.0661 15.6692 24.0466C15.6877 24.0272 15.7547 24.0389 15.7662 24.0466C15.7734 24.0551 15.7799 24.0642 15.7857 24.0737C15.7865 24.059 15.7904 24.0445 15.797 24.0313C15.8037 24.0181 15.813 24.0064 15.8244 23.9969C15.8393 23.986 15.8564 23.9786 15.8746 23.9752C15.8928 23.9718 15.9115 23.9726 15.9293 23.9775C15.937 24.0046 15.9759 24.1016 15.9682 24.1211C15.9605 24.1406 15.8441 24.168 15.8244 24.1482C15.8438 24.1951 15.9293 24.2921 15.9408 24.3113C15.9524 24.3305 15.8553 24.3774 15.8167 24.3697C15.7624 24.3658 15.4283 24.1715 15.3702 24.0978L15.3712 24.097ZM15.8799 23.4524C15.8727 23.4329 15.859 23.4164 15.841 23.4058C15.8139 23.3981 15.7245 23.4058 15.7245 23.4524C15.7245 23.499 15.8013 23.7596 15.8876 23.8953C15.9849 24.0312 16.0507 24.1436 16.1167 24.1749C16.1374 24.1843 16.161 24.1855 16.1826 24.1783C16.2042 24.1711 16.2223 24.156 16.2332 24.136C16.2409 24.1165 16.2603 23.9729 16.2526 23.635C16.245 23.297 16.2332 22.9709 16.2137 22.9514C16.1943 22.932 16.1167 22.9322 16.0896 22.9709C16.0624 23.0095 15.8876 23.3943 15.8797 23.4524H15.8799Z" fill="#585136"/>
<path fill-rule="evenodd" clip-rule="evenodd" d="M15.534 25.4408C15.534 25.4408 15.3981 25.3553 15.266 25.4137C15.1418 25.4721 15.1495 25.7012 15.1495 25.7012C15.1774 25.7121 15.2076 25.716 15.2374 25.7127C15.2672 25.7093 15.2958 25.6986 15.3205 25.6817C15.406 25.6236 15.5146 25.5266 15.534 25.4411V25.4408Z" fill="#574F35"/>
<path fill-rule="evenodd" clip-rule="evenodd" d="M15.7907 25.7477C15.783 25.6709 15.7139 25.6709 15.7139 25.6312C15.7186 25.6122 15.7296 25.5954 15.7451 25.5834C15.7605 25.5714 15.7796 25.565 15.7991 25.5651C15.838 25.5651 15.8759 25.6117 15.9235 25.6419C15.9701 25.6691 16.04 25.7187 16.0477 25.7779C16.0554 25.837 15.9709 25.999 15.8769 25.999C15.783 25.999 15.8109 25.8242 15.7914 25.7466L15.7907 25.7477ZM16.5402 25.6427C16.5402 25.6427 16.3848 25.6893 16.3964 25.6427C16.4079 25.5961 16.4432 25.5846 16.4936 25.5846C16.5193 25.5578 16.5537 25.5411 16.5907 25.5377C16.6118 25.5367 16.6325 25.5436 16.6488 25.5572C16.6488 25.5572 16.7537 25.5106 16.7847 25.5377C16.8157 25.5649 16.7927 25.5649 16.8119 25.5961C16.8363 25.6308 16.8523 25.6706 16.8587 25.7126C16.8587 25.7436 16.7422 25.8096 16.6488 25.7981C16.5402 25.7748 16.5594 25.6621 16.5402 25.6427ZM17.4449 25.4678C17.4449 25.4678 17.4915 25.495 17.4529 25.5262C17.4257 25.5534 17.2898 25.603 17.1731 25.6117C17.0566 25.6117 16.9519 25.6309 16.9519 25.5923C16.9519 25.5536 17.0489 25.4758 17.107 25.4563C17.1187 25.4417 17.1335 25.43 17.1503 25.4219C17.1672 25.4138 17.1856 25.4097 17.2043 25.4097C17.2509 25.4097 17.4332 25.3903 17.4839 25.3826C17.5304 25.3747 17.5694 25.4018 17.542 25.4407C17.5304 25.4678 17.4449 25.4678 17.4449 25.4678ZM17.713 24.2688C17.713 24.2688 17.6546 24.3929 17.5888 24.3929C17.5228 24.3852 17.5228 24.3658 17.5228 24.3463C17.5228 24.3192 17.5888 24.2493 17.5809 24.2298C17.5617 24.2298 17.5148 24.2298 17.5228 24.1832C17.5228 24.1443 17.5888 24.0977 17.6469 24.1065C17.6908 24.0704 17.7455 24.0499 17.8023 24.0483C17.8684 24.0483 17.9265 24.0675 17.9265 24.1065C17.9265 24.1454 17.8497 24.2306 17.8215 24.2503C17.7905 24.2813 17.7516 24.3015 17.713 24.2695V24.2688ZM16.8275 26.5638C16.8275 26.5638 16.7507 26.5717 16.7507 26.6104C16.7507 26.6298 16.7699 26.6298 16.7973 26.6183C16.813 26.6174 16.8287 26.6147 16.8439 26.6104C16.8515 26.6183 16.8515 26.657 16.9099 26.657C16.9578 26.6505 17.004 26.6347 17.0458 26.6104C17.0924 26.5912 17.1313 26.5715 17.1313 26.5336C17.1119 26.4675 17.073 26.4363 17.0149 26.4363C16.9851 26.4344 16.9554 26.4412 16.9294 26.4557C16.9294 26.4557 16.9099 26.4168 16.8439 26.4557C16.7778 26.4947 16.7855 26.4947 16.8049 26.5141C16.8398 26.5451 16.8282 26.5653 16.8282 26.5653L16.8275 26.5638ZM16.3887 26.9677C16.3887 26.9483 16.4857 26.9094 16.5128 26.9211C16.54 26.9288 16.6175 27.0763 16.6175 27.0919C16.6175 27.1114 16.5205 27.1579 16.4816 27.1579C16.4427 27.1579 16.3769 27.0919 16.3769 27.0811C16.3769 27.0735 16.4235 27.0619 16.4235 27.054C16.435 27.0348 16.3887 26.988 16.3887 26.9685V26.9677ZM16.0815 26.4007C16.1009 26.393 16.1009 26.3736 16.1281 26.3541C16.1366 26.3485 16.1462 26.3448 16.1564 26.3435C16.1665 26.3422 16.1768 26.3432 16.1864 26.3464C16.1933 26.3342 16.2028 26.3237 16.2142 26.3156C16.2256 26.3075 16.2387 26.302 16.2525 26.2996C16.2991 26.2919 16.338 26.2996 16.3293 26.319C16.3293 26.3774 16.3682 26.4161 16.3682 26.4627C16.3682 26.5092 16.3411 26.5676 16.244 26.6065C16.147 26.6337 16.0149 26.6337 15.9955 26.626C15.976 26.6183 15.9566 26.5405 15.976 26.5016C15.9955 26.4627 16.0497 26.4202 16.081 26.4007H16.0815Z" fill="#82764F"/>
<path fill-rule="evenodd" clip-rule="evenodd" d="M16.2047 26.4272C16.2047 26.4272 16.1387 26.4662 16.1387 26.4856C16.1328 26.5044 16.1302 26.5241 16.131 26.5437C16.131 26.5552 16.2165 26.536 16.228 26.5243C16.2319 26.5166 16.2047 26.4475 16.2047 26.4272Z" fill="#6E6342"/>
<path fill-rule="evenodd" clip-rule="evenodd" d="M15.6275 26.2447C15.6661 26.2526 15.7322 26.2447 15.7826 26.2641C15.8215 26.2836 15.8486 26.3225 15.8097 26.3691C15.7708 26.4157 15.7329 26.4856 15.6467 26.4738C15.5496 26.4661 15.4565 26.4157 15.4565 26.3768C15.4548 26.3521 15.4581 26.3275 15.4661 26.3041C15.4741 26.2808 15.4867 26.2593 15.5031 26.2408C15.542 26.2099 15.5612 26.2293 15.6272 26.2447H15.6275Z" fill="#585136"/>
<path fill-rule="evenodd" clip-rule="evenodd" d="M15.5808 26.2834C15.5808 26.2834 15.4566 26.3805 15.4254 26.4273C15.3865 26.4739 15.1963 26.7145 15.1382 26.765C15.1575 26.7309 15.1795 26.6985 15.204 26.668C15.1272 26.7171 15.0696 26.7911 15.0409 26.8776C14.9943 27.0215 15.3012 27.099 15.503 27.1574C15.7047 27.2158 15.7828 27.2342 15.7828 27.2342C15.7085 27.1226 15.6447 27.0043 15.5923 26.8809C15.5155 26.6984 15.4758 26.679 15.5263 26.5935C15.5652 26.508 15.6235 26.4498 15.6235 26.3838C15.6002 26.3224 15.5808 26.2834 15.5808 26.2834Z" fill="#574F35"/>
<path fill-rule="evenodd" clip-rule="evenodd" d="M11.1538 26.5905C11.1821 26.5957 11.2111 26.5957 11.2393 26.5905C11.2974 26.5826 11.9034 26.3601 12.5365 26.4001C13.0104 26.4287 13.4802 26.5059 13.9383 26.6305C14.7345 26.8401 15.7247 27.2556 16.3655 27.4927C16.5362 27.5585 16.7034 27.6752 16.8263 27.7215C17.3157 27.912 17.3349 27.912 17.6224 27.9624C17.9604 28.009 18.306 27.8964 18.6672 27.8188C19.1098 27.7215 19.867 27.6749 20.5311 27.5779C20.7458 27.5481 20.9576 27.5001 21.1642 27.4343C21.1642 27.4343 20.6361 27.9624 19.3699 28.1526C18.8581 28.2303 18.338 28.2369 17.8244 28.1721C17.4205 28.1332 17.1527 28.0748 16.9507 28.0167C16.7216 27.9506 16.2516 27.7758 15.673 27.6327C15.269 27.5277 14.8185 27.4502 14.3021 27.3531C13.0283 27.1199 11.6459 26.8522 11.1533 26.5921L11.1538 26.5905Z" fill="#252211"/>
<path fill-rule="evenodd" clip-rule="evenodd" d="M9.72368 24.1904C9.41648 24.4505 9.09059 24.6991 8.77239 24.9397L7.81316 25.6768C7.48701 25.9174 7.16855 26.166 6.84215 26.4069C6.51575 26.6478 6.18986 26.8766 5.84375 27.0981C6.15095 26.838 6.47684 26.5971 6.80298 26.3603C7.12912 26.1235 7.4673 25.8913 7.78192 25.6512L8.74115 24.9131C9.07114 24.6725 9.3896 24.4239 9.72368 24.1909V24.1904ZM8.02666 26.9089C8.02666 26.9089 8.37226 26.6214 8.80336 26.2177C9.33917 25.717 9.99555 25.0759 10.2052 24.9597L8.0264 26.9092L8.02666 26.9089Z" fill="#CFB66C"/>
<path fill-rule="evenodd" clip-rule="evenodd" d="M8.02734 26.9086C8.19835 26.7378 8.38088 26.5709 8.56341 26.4076L8.84296 26.1669C8.92847 26.0901 9.02575 26.0039 9.11099 25.9184C9.28175 25.7476 9.44891 25.5648 9.61967 25.3902C9.7043 25.3024 9.79378 25.2194 9.8877 25.1416C9.93465 25.1001 9.9868 25.0648 10.0428 25.0367C10.0897 25.0095 10.1401 24.9599 10.2059 24.9512C10.1673 25.0095 10.1207 25.0367 10.0817 25.0871C10.0352 25.126 9.99624 25.1726 9.95759 25.2113C9.87208 25.2968 9.77506 25.3743 9.68955 25.4522C9.50703 25.6076 9.31682 25.7594 9.13429 25.9219C8.95176 26.0845 8.78101 26.2599 8.59822 26.4229C8.40034 26.5901 8.21781 26.7532 8.02734 26.9093V26.9086ZM10.3498 25.3551C10.3498 25.3551 9.08386 26.5942 8.8235 26.7959L10.3498 25.3551Z" fill="#CFB66C"/>
<path fill-rule="evenodd" clip-rule="evenodd" d="M10.3495 25.3552C10.2356 25.487 10.1135 25.6115 9.98395 25.728L9.59995 26.093C9.47579 26.2172 9.35905 26.3416 9.22721 26.4658C9.09127 26.5822 8.96711 26.6962 8.82324 26.8037L9.19598 26.4386C9.32039 26.3145 9.45633 26.2098 9.58843 26.0853L9.96116 25.7203C10.0892 25.5923 10.2136 25.4679 10.3495 25.3552ZM10.4076 26.027C10.2909 26.3526 10.1534 26.6705 9.99598 26.9785C9.66983 27.6311 9.18062 28.4464 8.96686 28.8622L10.4076 26.027Z" fill="#CFB66C"/>
<path fill-rule="evenodd" clip-rule="evenodd" d="M10.4076 26.0273C10.4076 26.171 10.3687 26.2954 10.3221 26.4195C10.2767 26.5438 10.2249 26.6657 10.167 26.7846C10.1086 26.9011 10.0426 27.0255 9.97653 27.1381C9.91048 27.2508 9.83291 27.367 9.77454 27.4837L9.38235 28.1749C9.24642 28.4053 9.11432 28.637 8.9707 28.8585C9.06773 28.6099 9.19982 28.3769 9.32424 28.1478C9.46018 27.9174 9.58434 27.687 9.70824 27.4487C9.76873 27.3299 9.82316 27.2081 9.87131 27.0839C9.92942 26.9594 9.98754 26.843 10.0344 26.7303C10.0925 26.6062 10.1391 26.4894 10.1975 26.377C10.2632 26.2565 10.3178 26.14 10.4071 26.0273H10.4076Z" fill="#CFB66C"/>
<path fill-rule="evenodd" clip-rule="evenodd" d="M11.7907 29.2117C11.7907 29.2117 11.4067 29.7203 11.4451 30.365C11.5498 30.0273 11.6819 29.5107 11.7907 29.2117ZM12.1557 29.7216C12.1557 29.7216 12.0198 31.104 11.9072 31.7837C12.0664 30.998 12.0974 31.0641 12.1557 29.7216ZM14.6993 31.8654C14.6993 31.8654 14.1246 33.555 14.1128 34.0245C14.2373 33.5417 14.4779 32.5553 14.6993 31.8641V31.8654Z" fill="#DEC270"/>
<path fill-rule="evenodd" clip-rule="evenodd" d="M16.043 29.1072C16.043 29.1072 16.9751 30.645 17.6742 31.9575C17.485 31.297 17.0498 30.0856 16.043 29.1072Z" fill="#CBAF59"/>
<path fill-rule="evenodd" clip-rule="evenodd" d="M18.5479 31.3711C19.0596 32.2757 19.5211 33.2079 19.9303 34.1633C19.8527 33.5031 19.6428 32.3731 18.5479 31.3711Z" fill="#E3C677"/>
<path fill-rule="evenodd" clip-rule="evenodd" d="M25.9105 33.6384C26.0656 33.5413 26.3726 33.013 26.6406 32.8811C26.9084 32.7452 27.1104 32.718 27.3513 32.45C27.5919 32.1702 27.6585 31.9994 28.1861 31.7783C28.9241 31.4595 28.4165 31.0479 28.4165 31.0479C28.4978 30.968 28.5847 30.8941 28.6766 30.8267C28.867 30.6831 29.0882 30.5082 29.069 30.2013C29.0419 29.6849 28.9449 28.9354 28.5214 28.5004C28.9331 28.4149 29.7213 28.3568 30.211 28.2327C30.7778 28.0888 31.0382 27.8868 31.0382 27.8868C31.0382 27.8868 30.712 27.3315 31.2402 26.7724C31.7683 26.2133 32.1994 25.8792 32.5179 25.2538C32.1528 25.2072 31.5963 25.0132 30.176 25.5528C30.2526 25.5889 30.3266 25.6304 30.3974 25.677C30.3974 25.677 29.5237 25.9179 29.2052 26.1859C28.6497 26.6557 28.5798 27.0402 27.978 27.3277C27.3761 27.6152 26.7701 27.5374 26.2694 27.7703C25.7687 28.0033 25.6947 28.2014 25.5119 28.2869C25.5508 28.3335 25.5042 28.4111 25.5779 28.4771C25.5314 28.5432 25.2595 28.9858 24.9838 28.9858C25.0109 29.0908 25.2439 29.1683 25.2439 29.1683C25.2439 29.1683 25.0731 29.2927 24.6382 29.3237C24.8594 29.5541 25.0693 29.8053 25.6478 30.1703C25.6012 30.2673 25.4069 30.4112 25.4848 30.5937C25.5703 30.7763 25.792 31.0249 26.677 31.2268C26.2264 31.246 25.6985 31.351 24.9874 31.254C24.2767 31.1685 24.1602 31.118 23.7214 31.2268C23.768 31.2734 23.8922 31.2734 24.001 31.3976C23.8845 31.4053 23.1544 31.3121 22.9058 31.6385C22.6457 31.9761 22.5331 32.5317 22.5525 32.9044C22.4166 32.9705 22.2845 33.0869 22.3506 33.3278C22.4166 33.5687 22.7622 33.6463 22.9836 33.7976C23.2048 33.9607 23.2243 34.0188 23.4342 33.9801C23.6554 33.9335 23.9815 33.7123 24.172 33.7123C24.3625 33.7123 24.4981 33.856 24.4981 33.856C24.4981 33.856 25.0147 33.6074 25.0652 33.654C25.1118 33.7006 25.0729 33.9996 25.1233 34.0462C25.1745 34.0812 25.7564 33.7356 25.9118 33.6384H25.9105Z" fill="#ECD592"/>
<path fill-rule="evenodd" clip-rule="evenodd" d="M37.2003 18.0971C34.7731 11.8292 28.773 10.668 28.773 10.668H11.6546L11.7206 17.0524H15.1298V31.3087H11.6543V37.6816H28.2992C32.3107 37.6816 35.5263 33.6504 35.5263 33.6504C40.6757 26.3418 37.2 18.0971 37.2 18.0971H37.2003ZM28.3885 29.3552C28.3885 29.3552 27.0829 31.2389 25.6624 31.2389H22.8208L22.7534 17.068H26.4002C26.4002 17.068 28.0898 17.4212 29.2702 20.7649C29.2702 20.7649 30.8351 25.5521 28.3885 29.3552Z" fill="white" fill-opacity="0.8"/>
</svg>
