<svg width="48" height="48" viewBox="0 0 48 48" fill="none" xmlns="http://www.w3.org/2000/svg">
<path d="M0 24C0 10.7452 10.7452 0 24 0C37.2548 0 48 10.7452 48 24C48 37.2548 37.2548 48 24 48C10.7452 48 0 37.2548 0 24Z" fill="white"/>
<g clip-path="url(#clip0_1687_6868)">
<path d="M24.0011 40.524C27.2641 40.524 29.9094 38.9969 29.9094 37.113C29.9094 35.2291 27.2641 33.7019 24.0011 33.7019C20.738 33.7019 18.0928 35.2291 18.0928 37.113C18.0928 38.9969 20.738 40.524 24.0011 40.524Z" fill="#E6007A"/>
<path d="M38.1879 32.393C39.8194 29.5879 39.8097 26.5504 38.1662 25.6084C36.5228 24.6665 33.8679 26.1769 32.2363 28.982C30.6048 31.7871 30.6145 34.8246 32.258 35.7666C33.9015 36.7085 36.5563 35.1981 38.1879 32.393Z" fill="#E6007A"/>
<path d="M24.0011 14.8221C27.2641 14.8221 29.9094 13.2949 29.9094 11.4111C29.9094 9.52719 27.2641 8 24.0011 8C20.738 8 18.0928 9.52719 18.0928 11.4111C18.0928 13.2949 20.738 14.8221 24.0011 14.8221Z" fill="#E6007A"/>
<path d="M15.7673 19.5437C17.3988 16.7386 17.3882 13.7005 15.7436 12.7579C14.099 11.8153 11.4431 13.3252 9.8116 16.1303C8.18005 18.9355 8.19064 21.9736 9.83525 22.9162C11.4799 23.8588 14.1357 22.3489 15.7673 19.5437Z" fill="#E6007A"/>
<path d="M15.7445 35.766C17.3891 34.8234 17.3997 31.7853 15.7682 28.9802C14.1366 26.1751 11.4808 24.6652 9.8362 25.6078C8.19161 26.5503 8.18102 29.5884 9.81255 32.3936C11.4441 35.1987 14.0999 36.7085 15.7445 35.766Z" fill="#E6007A"/>
<path d="M38.1674 22.917C39.8109 21.975 39.8206 18.9375 38.189 16.1324C36.5575 13.3273 33.9025 11.8169 32.259 12.7588C30.6155 13.7008 30.6058 16.7383 32.2374 19.5434C33.8689 22.3485 36.5239 23.8589 38.1674 22.917Z" fill="#E6007A"/>
</g>
<defs>
<clipPath id="clip0_1687_6868">
<rect width="34.2857" height="32.5424" fill="white" transform="translate(6.85742 8)"/>
</clipPath>
</defs>
</svg>
