<svg width="48" height="48" viewBox="0 0 48 48" fill="none" xmlns="http://www.w3.org/2000/svg">
<path d="M24 48C37.2548 48 48 37.2548 48 24C48 10.7452 37.2548 0 24 0C10.7452 0 0 10.7452 0 24C0 37.2548 10.7452 48 24 48Z" fill="#172852"/>
<path d="M19.3322 10.7257C22.1426 9.6745 25.3058 9.6721 28.169 10.5361C31.8962 11.6929 35.0426 14.5057 36.6866 18.0361C37.1402 19.0417 37.5746 20.0905 37.6178 21.2089C35.5226 19.9945 33.2258 19.2073 30.9242 18.4897C27.2426 17.1625 23.3882 16.2409 19.9034 14.4169C19.0922 13.9321 18.0578 13.4353 17.837 12.4249C17.7482 11.5513 18.6722 11.0641 19.3322 10.7257Z" fill="#FFD83D"/>
<path d="M10.8483 19.2216C11.6619 17.0136 12.9963 14.964 14.8083 13.4448C15.2691 17.2344 16.8819 20.8968 19.5459 23.652C22.7403 26.9712 27.2907 29.0088 31.9203 28.932C33.7587 28.9896 35.5563 28.5648 37.3491 28.2216C35.5851 34.596 28.5987 38.8272 22.1259 37.8096C18.2187 37.3104 14.6115 34.9968 12.4347 31.7304C9.97948 28.1208 9.36028 23.328 10.8483 19.2216Z" fill="#FFD83D"/>
<path d="M30.9238 18.4895C33.2254 19.2071 35.5222 19.9943 37.6174 21.2087L37.759 21.2831C37.9534 22.7447 38.095 24.2351 37.8358 25.6991C36.7822 25.2527 35.9278 24.4679 35.035 23.7743C33.3166 22.3439 31.5622 20.7071 30.9238 18.4895Z" fill="#FF6F03"/>
</svg>
