<svg width="48" height="48" viewBox="0 0 48 48" fill="none" xmlns="http://www.w3.org/2000/svg">
<circle cx="24" cy="24" r="24" fill="white"/>
<g clip-path="url(#clip0_1687_6822)">
<path d="M31.4793 19.084C30.954 18.7838 30.2785 18.7838 29.678 19.084L25.4751 21.5608L22.623 23.1369L18.4951 25.6136C17.9697 25.9139 17.2943 25.9139 16.6938 25.6136L13.4665 23.6623C12.9412 23.362 12.5659 22.7616 12.5659 22.0861V18.3335C12.5659 17.733 12.8661 17.1326 13.4665 16.7574L16.6938 14.881C17.2192 14.5808 17.8947 14.5808 18.4951 14.881L21.7224 16.8324C22.2478 17.1326 22.623 17.733 22.623 18.4085V20.8853L25.4751 19.2341V16.6823C25.4751 16.0819 25.1748 15.4814 24.5744 15.1062L18.5702 11.5787C18.0448 11.2785 17.3693 11.2785 16.7689 11.5787L10.6145 15.1812C10.0141 15.4814 9.71387 16.0819 9.71387 16.6823V23.7373C9.71387 24.3377 10.0141 24.9382 10.6145 25.3134L16.6938 28.8409C17.2192 29.1412 17.8947 29.1412 18.4951 28.8409L22.623 26.4392L25.4751 24.7881L29.603 22.3864C30.1284 22.0861 30.8038 22.0861 31.4043 22.3864L34.6316 24.2627C35.1569 24.5629 35.5322 25.1633 35.5322 25.8388V29.5915C35.5322 30.1919 35.232 30.7923 34.6316 31.1676L31.4793 33.0439C30.954 33.3441 30.2785 33.3441 29.678 33.0439L26.4508 31.1676C25.9254 30.8674 25.5501 30.267 25.5501 29.5915V27.1898L22.6981 28.8409V31.3177C22.6981 31.9181 22.9983 32.5185 23.5987 32.8938L29.678 36.4213C30.2034 36.7215 30.8789 36.7215 31.4793 36.4213L37.5586 32.8938C38.084 32.5936 38.4593 31.9932 38.4593 31.3177V24.1876C38.4593 23.5872 38.1591 22.9868 37.5586 22.6115L31.4793 19.084Z" fill="#8247E5"/>
</g>
<defs>
<clipPath id="clip0_1687_6822">
<rect width="28.8205" height="25.1429" fill="white" transform="translate(9.71387 11.4285)"/>
</clipPath>
</defs>
</svg>
