<svg width="48" height="48" viewBox="0 0 48 48" fill="none" xmlns="http://www.w3.org/2000/svg">
<circle cx="24" cy="24" r="24" fill="#F00500"/>
<path d="M30.6049 12.1518C29.8647 12.8919 29.1865 13.6939 28.5837 14.5492L28.3931 14.4871C27.2939 14.1282 26.1547 13.9066 25.0067 13.8313C24.661 13.8047 23.3711 13.8047 22.95 13.8313C21.6779 13.9155 20.7028 14.106 19.5946 14.4916C19.5503 14.5093 19.5104 14.5226 19.4705 14.5359C18.8455 13.6851 18.1496 12.8874 17.3828 12.1563C21.0618 10.273 25.3657 10.047 29.2176 11.5314C29.6298 11.6865 30.0331 11.8682 30.4276 12.0632L30.6049 12.1518Z" fill="#F00500"/>
<path d="M37.4674 28.9598C36.9089 30.5506 36.0712 32.0263 34.9852 33.3114C34.3957 34.0026 33.7441 34.6363 33.0438 35.2124C31.4038 36.5329 29.4889 37.4768 27.4456 37.9731C25.185 38.5182 22.8269 38.5182 20.5663 37.9731C18.5185 37.4768 16.6081 36.5329 14.9681 35.2124C14.2677 34.6363 13.6162 34.0026 13.0266 33.3114C9.90174 29.6201 8.95319 24.5506 10.5445 19.9819C10.8459 19.1355 11.2226 18.3201 11.6747 17.5447C11.8831 17.1902 12.1402 16.7913 12.2643 16.6274C12.6898 18.4575 13.2128 20.0661 13.4078 20.6466C13.3945 20.6776 13.3768 20.7131 13.3591 20.7441C12.3263 22.8357 11.7678 24.8519 11.6348 26.9967C11.6348 27.0233 11.6304 27.0543 11.6304 27.0809C11.595 27.7234 11.6127 28.0292 11.7191 28.4325C12.0515 29.6954 13.0754 31.0868 14.68 32.4517C17.3084 34.6851 20.8722 36.2981 23.5716 36.4842C26.3862 36.6747 30.5394 35.0307 33.3053 32.6289C33.7397 32.2434 34.1475 31.8357 34.5287 31.4014C34.8035 31.0824 35.2113 30.5329 35.1803 30.5329C35.1714 30.5329 35.1803 30.524 35.198 30.5152C35.2113 30.5063 35.2246 30.493 35.2157 30.4842C35.2113 30.4797 35.2201 30.4664 35.2334 30.462C35.2467 30.4576 35.2556 30.4487 35.2512 30.4398C35.2467 30.431 35.2512 30.4221 35.2689 30.4177C35.2822 30.4133 35.2866 30.4 35.2822 30.3911C35.2778 30.3822 35.2822 30.3734 35.2911 30.3734C35.2999 30.3734 35.3088 30.3601 35.3088 30.3512C35.3088 30.3424 35.3177 30.3291 35.3265 30.3291C35.3354 30.3291 35.3443 30.3202 35.3443 30.3113C35.3576 30.2759 35.3797 30.2404 35.4019 30.2094C35.4684 30.1075 35.7343 29.6333 35.7698 29.5536C36.0224 28.9819 36.182 28.4723 36.2573 27.9627C36.2928 27.719 36.315 27.2714 36.2972 27.1651C36.2928 27.1474 36.2928 27.1163 36.2884 27.0676C36.2795 26.979 36.2751 26.846 36.2662 26.7131C36.2573 26.5137 36.2396 26.2345 36.2263 26.0971C36.0357 24.0853 35.5216 22.4413 34.5464 20.6998C34.5065 20.6333 34.4711 20.5668 34.4489 20.5137C34.44 20.5004 34.4356 20.4871 34.4312 20.4782C34.5686 20.0661 35.1315 18.3423 35.5792 16.3704L35.588 16.3792L35.6545 16.4679C35.7698 16.6229 36.0756 17.0838 36.213 17.3054C36.838 18.3246 37.3256 19.4191 37.6713 20.5624C38.4736 23.3143 38.4071 26.2478 37.4674 28.9598Z" fill="#F00500"/>
<path d="M31.7135 23.6645C31.7002 23.7354 31.4919 23.9481 31.2836 24.1032C30.6719 24.5508 29.5771 24.9673 28.4645 25.1667C27.8307 25.2819 27.1969 25.2996 27.0063 25.2066C26.8822 25.1445 26.8644 25.0958 26.9088 24.9363C27.0018 24.6039 27.3032 24.2406 27.7731 23.8994C28.0124 23.7265 28.9831 23.1372 29.4352 22.889C30.1799 22.4814 30.7827 22.2376 31.1905 22.18C31.319 22.1623 31.4741 22.1579 31.5229 22.18C31.6027 22.2111 31.6913 22.4459 31.7268 22.7295C31.7445 22.8802 31.7357 23.5449 31.7135 23.6645Z" fill="black"/>
<path d="M21.2714 25.1309C21.2448 25.1841 21.1118 25.2417 20.9611 25.2639C20.8104 25.286 20.3494 25.2727 20.0879 25.2417C19.1482 25.1176 18.1509 24.8296 17.424 24.4751C17.0162 24.2757 16.7236 24.0763 16.5064 23.8591L16.3823 23.7306L16.369 23.5622C16.3469 23.2698 16.3513 22.8089 16.3867 22.645C16.4089 22.5076 16.4577 22.3747 16.5242 22.255C16.5596 22.2107 16.5596 22.2107 16.7192 22.2107C16.9142 22.2107 17.0782 22.2417 17.3442 22.3259C17.8894 22.4943 18.7005 22.902 19.689 23.4958C20.5045 23.9832 20.8104 24.2225 21.0453 24.5504C21.2049 24.7543 21.3112 25.0423 21.2714 25.1309Z" fill="black"/>
<path d="M27.5475 31.2993C27.5475 31.3126 27.4943 31.5253 27.4278 31.7778C27.3613 32.0304 27.3081 32.2343 27.3081 32.2431C27.2594 32.2476 27.215 32.252 27.1663 32.2476H27.0244L26.8294 32.7084C26.723 32.961 26.6255 33.1959 26.6122 33.2313L26.5856 33.2934L26.4925 33.1427L26.3995 32.992V31.7646L26.364 31.7734C26.2887 31.7911 25.7523 31.862 25.5174 31.8842C24.5467 31.9817 23.5716 31.9595 22.6053 31.8222C22.4502 31.8 22.3172 31.7823 22.3128 31.7867C22.3084 31.7911 22.3128 32.0747 22.3217 32.4248L22.335 33.0541L22.2596 33.1693C22.2197 33.2313 22.1798 33.2845 22.1798 33.2889C22.1665 33.3022 22.1222 33.2313 22.0203 33.0275C21.9095 32.8148 21.8297 32.5888 21.7721 32.3539L21.741 32.2254L21.6036 32.2343L21.4662 32.2476L21.4308 32.0836C21.413 31.995 21.3909 31.8576 21.382 31.7823L21.3687 31.6405L21.2535 31.5386C21.187 31.4809 21.1205 31.4233 21.1072 31.4145C21.085 31.3967 21.0762 31.3657 21.0762 31.3391V31.286L21.6302 31.2904L22.1843 31.2948L22.202 31.3524L22.2197 31.41L22.4103 31.4189C22.5167 31.4233 22.8536 31.4322 23.155 31.4411L23.709 31.4544L23.8508 31.2328L23.9971 31.0112H24.1833L24.1788 30.5504L24.1744 30.0895L23.9306 29.9831C23.1461 29.6375 22.6851 29.2431 22.5123 28.7645C22.4768 28.667 22.4768 28.6316 22.4679 28.1884C22.4635 27.7497 22.4635 27.7098 22.4945 27.6123C22.5566 27.3908 22.7295 27.2179 22.9511 27.1603C23.0264 27.1382 23.2259 27.1382 24.2719 27.1382L25.5041 27.1426L25.6415 27.2091C25.8055 27.2889 25.8809 27.3465 25.974 27.4705C26.0803 27.6123 26.1114 27.7231 26.1114 27.9934C26.1114 28.379 26.0848 28.7113 26.0449 28.8443C25.9873 29.026 25.8986 29.1988 25.7878 29.3539C25.5662 29.6375 25.1628 29.9211 24.7949 30.0496L24.6886 30.0895L24.693 30.5548L24.6974 31.0201L24.7949 31.0289L24.8925 31.0378L25.0254 31.2372L25.154 31.4366H25.7479C26.0759 31.4366 26.364 31.4411 26.3906 31.4455C26.4349 31.4544 26.4438 31.4499 26.4881 31.3746L26.5413 31.2948H27.051C27.4322 31.2771 27.5475 31.286 27.5475 31.2993Z" fill="black"/>
<path d="M25.2077 32.5716C25.1235 32.6203 25.0659 32.6425 25.0526 32.6336C25.0393 32.6292 24.9772 32.576 24.9107 32.5272L24.791 32.4297L24.6669 32.5627C24.3965 32.8552 24.3877 32.8685 24.3079 32.873C24.1838 32.8863 24.1572 32.8641 24.0064 32.638C23.9267 32.5228 23.8646 32.4253 23.8646 32.4253C23.8646 32.4253 23.807 32.4164 23.7405 32.412L23.6164 32.3987L23.5587 32.5184L23.5011 32.638L23.3992 32.607C23.3194 32.5804 23.2396 32.5494 23.1642 32.5139L23.0312 32.4475V32.1948L24.2104 32.1993L25.3895 32.2037L25.3939 32.3234C25.3983 32.4652 25.4028 32.4608 25.2077 32.5716Z" fill="black"/>
<path d="M36.2878 27.1653C36.2834 27.1476 36.2834 27.1166 36.279 27.0679C35.2152 26.9526 32.1789 26.8817 29.3599 29.2082C29.3599 29.2082 28.4512 25.0427 24.196 25.0427C19.9408 25.0427 18.3628 29.2082 18.3628 29.2082C15.9782 26.6424 12.7868 26.8286 11.6343 26.997C11.6343 27.0235 11.6299 27.0546 11.6299 27.0812C11.5944 27.7237 11.6121 28.0295 11.7185 28.4327C12.051 29.6957 13.0749 31.0871 14.6794 32.452C17.3079 34.6854 20.8716 36.2984 23.571 36.4845C26.3857 36.6751 30.5389 35.031 33.3048 32.6292C33.7392 32.2437 34.1469 31.836 34.5281 31.4017C34.803 31.0827 35.2107 30.5332 35.1797 30.5332C35.1709 30.5332 35.1797 30.5243 35.1975 30.5155C35.2107 30.5066 35.224 30.4933 35.2152 30.4844C35.2107 30.48 35.2196 30.4667 35.2329 30.4623C35.2462 30.4579 35.2551 30.449 35.2506 30.4401C35.2462 30.4313 35.2506 30.4224 35.2684 30.418C35.2817 30.4135 35.2861 30.4002 35.2817 30.3914C35.2772 30.3825 35.2817 30.3737 35.2905 30.3737C35.2994 30.3737 35.3083 30.3604 35.3083 30.3515C35.3083 30.3426 35.3171 30.3293 35.326 30.3293C35.3349 30.3293 35.3437 30.3205 35.3437 30.3116C35.357 30.2762 35.3792 30.2407 35.4013 30.2097C35.4678 30.1078 35.7338 29.6336 35.7692 29.5539C36.0219 28.9822 36.1815 28.4726 36.2568 27.963C36.2834 27.7193 36.3056 27.2717 36.2878 27.1653ZM25.2066 32.5716C25.1224 32.6204 25.0648 32.6425 25.0515 32.6337C25.0382 32.6292 24.9761 32.576 24.9096 32.5273L24.79 32.4298L24.6658 32.5628C24.3955 32.8552 24.3866 32.8685 24.3068 32.8729C24.1827 32.8862 24.1561 32.8641 24.0054 32.6381C23.9256 32.5229 23.8636 32.4254 23.8636 32.4254C23.8636 32.4254 23.8059 32.4165 23.7395 32.4121L23.6153 32.3988L23.5577 32.5184L23.5001 32.6381L23.3981 32.6071C23.3184 32.5805 23.2386 32.5495 23.1632 32.514L23.0303 32.4475V32.1949L24.2093 32.1994L25.3883 32.2038L25.3928 32.3235C25.3972 32.4653 25.4016 32.4608 25.2066 32.5716ZM27.4229 31.774C27.3564 32.0266 27.3032 32.2304 27.3032 32.2393C27.2544 32.2437 27.2101 32.2481 27.1613 32.2437H27.0195L26.8289 32.709C26.7225 32.9616 26.625 33.1964 26.6117 33.2319L26.5851 33.2939L26.492 33.1433L26.3989 32.9926V31.7651L26.3635 31.774C26.2881 31.7917 25.7518 31.8626 25.5169 31.8848C24.5462 31.9822 23.571 31.9601 22.6047 31.8227C22.4496 31.8006 22.3166 31.7828 22.3122 31.7873C22.3078 31.7917 22.3122 32.0753 22.3211 32.4254L22.3344 33.0546L22.259 33.1699C22.2191 33.2319 22.1792 33.2851 22.1792 33.2895C22.1659 33.3028 22.1216 33.2319 22.0196 33.028C21.9088 32.8153 21.829 32.5893 21.7714 32.3545L21.7404 32.226L21.603 32.2348L21.4656 32.2481L21.4301 32.0842C21.4124 31.9955 21.3902 31.8582 21.3814 31.7828L21.3681 31.641L21.2528 31.5391C21.1863 31.4815 21.1198 31.4239 21.1066 31.415C21.0844 31.3973 21.0755 31.3663 21.0755 31.3397V31.2865L21.6296 31.2909L22.1836 31.2954L22.2014 31.353L22.2191 31.4106L22.4097 31.4195C22.5161 31.4239 22.853 31.4328 23.1544 31.4416L23.7084 31.4549L23.8503 31.2333L23.9965 31.0118H24.1827L24.1783 30.5509L24.1738 30.0901L23.93 29.9837C23.1455 29.6381 22.6845 29.2437 22.5117 28.7651C22.4762 28.6676 22.4762 28.6321 22.4673 28.189C22.4629 27.7503 22.4629 27.7104 22.4939 27.6129C22.556 27.3913 22.7288 27.2185 22.9505 27.1609C23.0258 27.1388 23.2253 27.1388 24.2714 27.1388L25.5036 27.1432L25.641 27.2097C25.805 27.2894 25.8803 27.347 25.9734 27.4711C26.0798 27.6129 26.1108 27.7237 26.1108 27.994C26.1108 28.3795 26.0842 28.7119 26.0444 28.8448C25.9867 29.0265 25.8981 29.1993 25.7873 29.3544C25.5656 29.6381 25.1623 29.9217 24.7944 30.0502L24.688 30.0901L24.6924 30.5553L24.6969 31.0206L24.7944 31.0295L24.8919 31.0384L25.0249 31.2378L25.1534 31.4372H25.7474C26.0754 31.4372 26.3635 31.4416 26.3901 31.446C26.4344 31.4549 26.4433 31.4505 26.4876 31.3751L26.5408 31.2954H27.0505C27.445 31.2954 27.5603 31.2998 27.5603 31.3131C27.547 31.3087 27.4893 31.5258 27.4229 31.774Z" fill="white"/>
<path d="M36.2528 26.7131C36.2439 26.5137 36.2262 26.2345 36.2129 26.0971C36.0223 24.0853 35.5081 22.4413 34.533 20.6998C34.4931 20.6333 34.4576 20.5668 34.4354 20.5137C34.4266 20.5004 34.4221 20.4871 34.4177 20.4782C34.5551 20.0661 35.118 18.3423 35.5657 16.3704C36.173 13.6939 36.5586 10.5654 35.3796 9.62596C35.3796 9.62596 33.3406 9.4753 30.6102 12.1518C29.87 12.8918 29.1918 13.6939 28.589 14.5491L28.3984 14.4871C27.2992 14.1282 26.16 13.9066 25.012 13.8313C24.6663 13.8047 23.3764 13.8047 22.9554 13.8313C21.6832 13.9155 20.7081 14.106 19.6 14.4915C19.5557 14.5093 19.5158 14.5225 19.4759 14.5358C18.8509 13.685 18.155 12.8874 17.3882 12.1562C14.547 9.46644 12.4327 9.62153 12.4327 9.62153C11.1827 10.592 11.6082 13.8623 12.2554 16.6274C12.6809 18.4575 13.2039 20.0661 13.399 20.6466C13.3857 20.6776 13.3679 20.7131 13.3502 20.7441C12.3174 22.8357 11.759 24.8519 11.626 26.9967C12.7829 26.8283 15.9698 26.6377 18.3589 29.2079C18.3589 29.2079 19.9369 25.0425 24.192 25.0425C28.4472 25.0425 29.3558 29.2079 29.3558 29.2079C32.1749 26.8814 35.2111 26.9568 36.2749 27.0676C36.2705 26.9789 36.2616 26.846 36.2528 26.7131ZM14.2367 18.976C14.2367 18.976 12.579 14.8327 13.0045 12.4664C13.0754 12.0676 13.2084 11.7175 13.4167 11.4517C13.4167 11.4517 15.2961 11.6378 18.3279 15.0056C18.3279 15.0056 17.7516 15.2847 16.9804 15.8785C16.9804 15.8785 16.976 15.883 16.9715 15.883C16.1338 16.5255 15.0611 17.5447 14.2367 18.976ZM21.271 25.1311C21.2444 25.1843 21.1115 25.2419 20.9607 25.264C20.81 25.2862 20.3491 25.2729 20.0876 25.2419C19.1479 25.1178 18.1506 24.8298 17.4236 24.4753C17.0159 24.2758 16.7233 24.0764 16.5061 23.8593L16.382 23.7308L16.3687 23.5624C16.3466 23.2699 16.351 22.8091 16.3864 22.6451C16.4086 22.5078 16.4574 22.3748 16.5239 22.2552C16.5593 22.2109 16.5593 22.2109 16.7189 22.2109C16.9139 22.2109 17.0779 22.2419 17.3439 22.3261C17.8891 22.4945 18.7002 22.9021 19.6886 23.4959C20.5042 23.9834 20.81 24.2227 21.045 24.5506C21.2045 24.7544 21.3109 25.0425 21.271 25.1311ZM31.7139 23.6643C31.7006 23.7352 31.4923 23.9479 31.284 24.103C30.6723 24.5506 29.5775 24.9671 28.4649 25.1665C27.8311 25.2817 27.1972 25.2995 27.0066 25.2064C26.8825 25.1444 26.8648 25.0956 26.9091 24.9361C27.0022 24.6038 27.3036 24.2404 27.7735 23.8992C28.0128 23.7264 28.9835 23.137 29.4356 22.8888C30.1803 22.4812 30.7831 22.2374 31.1909 22.1798C31.3194 22.1621 31.4746 22.1577 31.5233 22.1798C31.6031 22.2109 31.6918 22.4457 31.7272 22.7293C31.7449 22.88 31.7361 23.5447 31.7139 23.6643ZM30.9781 15.8785L30.9693 15.8741C30.2246 15.2803 29.6661 15.0011 29.6661 15.0011C32.596 11.6333 34.4089 11.4472 34.4089 11.4472C34.6083 11.7175 34.7369 12.0632 34.8078 12.462C35.22 14.8283 33.6199 18.976 33.6199 18.976C32.9506 17.784 32.0508 16.7293 30.9781 15.8785Z" fill="#FFA409"/>
<path d="M34.813 12.4618C34.4673 12.4175 32.8317 12.4086 30.979 15.8784L30.9701 15.8739C30.2255 15.2801 29.667 15.001 29.667 15.001C32.5968 11.6331 34.4096 11.447 34.4096 11.447C34.6135 11.7173 34.7421 12.063 34.813 12.4618Z" fill="#FF9300"/>
<path d="M33.6248 18.9757C32.951 17.7792 32.0556 16.729 30.9785 15.8782C32.8313 12.4085 34.4625 12.4174 34.8127 12.4617C35.2249 14.8324 33.6248 18.9757 33.6248 18.9757Z" fill="#FF8300"/>
<path d="M34.88 12.4752C34.8578 12.4708 34.8357 12.4663 34.8135 12.4619L34.88 12.4752Z" fill="#FF8300"/>
<path d="M18.3279 15.0012C18.3279 15.0012 17.7516 15.2804 16.9804 15.8742C16.9804 15.8742 16.9759 15.8786 16.9715 15.8786C15.0522 12.4044 13.3635 12.4177 13 12.462C13.0709 12.0632 13.2039 11.7131 13.4122 11.4473C13.4167 11.4473 15.296 11.6334 18.3279 15.0012Z" fill="#FF9300"/>
<path d="M16.976 15.8787C16.1338 16.5257 15.0611 17.5405 14.2367 18.9762C14.2367 18.9762 12.5789 14.8329 13.0044 12.4622C13.3635 12.4179 15.0567 12.409 16.976 15.8787Z" fill="#FF8300"/>
<path d="M13.0045 12.4619C12.9823 12.4663 12.9557 12.4708 12.9336 12.4752L13.0045 12.4619Z" fill="#FF8300"/>
<path d="M29.1383 21.2756C29.1383 21.2756 27.7199 21.3642 27.8972 20.2564C28.0745 19.1485 29.1826 19.0156 29.4929 19.0599C29.8031 19.1042 31.0442 19.5474 30.8226 20.478C30.601 21.4085 30.2907 21.2313 30.1134 21.2756C29.9361 21.3199 29.1383 21.2756 29.1383 21.2756Z" fill="white"/>
<path d="M18.6783 21.2756C18.6783 21.2756 17.2599 21.3642 17.4372 20.2564C17.6145 19.1485 18.7227 19.0156 19.0329 19.0599C19.3432 19.1042 20.5843 19.5474 20.3627 20.478C20.1411 21.4085 19.8308 21.2313 19.6535 21.2756C19.4762 21.3199 18.6783 21.2756 18.6783 21.2756Z" fill="white"/>
</svg>
