<svg width="54" height="54" viewBox="0 0 54 54" fill="none" xmlns="http://www.w3.org/2000/svg">
<g filter="url(#filter0_d_1687_6740)">
<circle cx="27" cy="26" r="24" fill="black"/>
<g clip-path="url(#clip0_1687_6740)">
<path d="M38.8764 32.384L34.9145 36.5693C34.8284 36.6602 34.7242 36.7327 34.6084 36.7822C34.4926 36.8317 34.3676 36.8573 34.2414 36.8572H15.46C15.3703 36.8572 15.2827 36.8314 15.2077 36.783C15.1328 36.7346 15.0738 36.6657 15.0381 36.5847C15.0024 36.5038 14.9915 36.4143 15.0067 36.3273C15.0219 36.2403 15.0625 36.1596 15.1237 36.0951L19.0886 31.9098C19.1745 31.8191 19.2783 31.7468 19.3938 31.6973C19.5092 31.6477 19.6337 31.6221 19.7596 31.6218H38.5401C38.6297 31.6218 38.7173 31.6476 38.7923 31.696C38.8672 31.7444 38.9261 31.8134 38.962 31.8943C38.9976 31.9753 39.0086 32.0647 38.9934 32.1517C38.9781 32.2387 38.9375 32.3195 38.8764 32.384ZM34.9145 23.956C34.8284 23.8651 34.7242 23.7926 34.6084 23.7431C34.4926 23.6936 34.3676 23.668 34.2414 23.6681H15.46C15.3703 23.6681 15.2827 23.6939 15.2077 23.7423C15.1328 23.7907 15.0738 23.8596 15.0381 23.9406C15.0024 24.0215 14.9915 24.111 15.0067 24.198C15.0219 24.285 15.0625 24.3657 15.1237 24.4303L19.0886 28.6155C19.1745 28.7062 19.2783 28.7785 19.3938 28.8281C19.5092 28.8776 19.6337 28.9033 19.7596 28.9035H38.5401C38.6297 28.9035 38.7173 28.8777 38.7923 28.8293C38.8672 28.7809 38.9261 28.712 38.962 28.631C38.9976 28.55 39.0086 28.4606 38.9934 28.3736C38.9781 28.2866 38.9375 28.2059 38.8764 28.1413L34.9145 23.956ZM15.46 20.9497H34.2414C34.3676 20.9498 34.4926 20.9243 34.6084 20.8747C34.7242 20.8252 34.8284 20.7527 34.9145 20.6618L38.8764 16.4765C38.9375 16.412 38.9781 16.3312 38.9934 16.2442C39.0086 16.1573 38.9976 16.0678 38.962 15.9868C38.9261 15.9059 38.8672 15.837 38.7923 15.7886C38.7173 15.7401 38.6297 15.7144 38.5401 15.7144H19.7596C19.6337 15.7146 19.5092 15.7402 19.3938 15.7898C19.2783 15.8393 19.1745 15.9116 19.0886 16.0023L15.1247 20.1876C15.0636 20.252 15.023 20.3327 15.0077 20.4196C14.9925 20.5065 15.0033 20.5959 15.0389 20.6768C15.0745 20.7577 15.1333 20.8266 15.2081 20.8751C15.2829 20.9236 15.3704 20.9495 15.46 20.9497Z" fill="url(#paint0_linear_1687_6740)"/>
</g>
</g>
<defs>
<filter id="filter0_d_1687_6740" x="0" y="0" width="54" height="54" filterUnits="userSpaceOnUse" color-interpolation-filters="sRGB">
<feFlood flood-opacity="0" result="BackgroundImageFix"/>
<feColorMatrix in="SourceAlpha" type="matrix" values="0 0 0 0 0 0 0 0 0 0 0 0 0 0 0 0 0 0 127 0" result="hardAlpha"/>
<feOffset dy="1"/>
<feGaussianBlur stdDeviation="1.5"/>
<feColorMatrix type="matrix" values="0 0 0 0 0.129412 0 0 0 0 0.105882 0 0 0 0 0.305882 0 0 0 0.15 0"/>
<feBlend mode="normal" in2="BackgroundImageFix" result="effect1_dropShadow_1687_6740"/>
<feBlend mode="normal" in="SourceGraphic" in2="effect1_dropShadow_1687_6740" result="shape"/>
</filter>
<linearGradient id="paint0_linear_1687_6740" x1="17.0259" y1="37.3611" x2="36.3888" y2="15.201" gradientUnits="userSpaceOnUse">
<stop offset="0.08" stop-color="#9945FF"/>
<stop offset="0.3" stop-color="#8752F3"/>
<stop offset="0.5" stop-color="#5497D5"/>
<stop offset="0.6" stop-color="#43B4CA"/>
<stop offset="0.72" stop-color="#28E0B9"/>
<stop offset="0.97" stop-color="#19FB9B"/>
</linearGradient>
<clipPath id="clip0_1687_6740">
<rect width="24" height="21.1429" fill="white" transform="translate(15 15.7144)"/>
</clipPath>
</defs>
</svg>
