<svg width="48" height="48" viewBox="0 0 48 48" fill="none" xmlns="http://www.w3.org/2000/svg">
<circle cx="24.0004" cy="23.9999" r="21.6" fill="white"/>
<g clip-path="url(#clip0_1690_6777)">
<path d="M21.8078 16.1537C21.4957 16.1092 21.4808 16.0943 21.6294 16.0794C21.9118 16.0348 22.5657 16.0943 23.0263 16.1983C24.0963 16.4509 25.0623 17.1048 26.0876 18.2491L26.3551 18.5612L26.7415 18.5017C28.391 18.2342 30.0852 18.4423 31.4969 19.0961C31.8833 19.2745 32.4926 19.6311 32.5669 19.7203C32.5966 19.75 32.6412 19.9432 32.6709 20.1364C32.7749 20.8348 32.7304 21.355 32.5075 21.7562C32.3886 21.9791 32.3886 22.0386 32.4629 22.2318C32.5223 22.3804 32.7006 22.4844 32.8641 22.4844C33.2208 22.4844 33.5923 21.9197 33.7706 21.1321L33.8449 20.82L33.9787 20.9686C34.7366 21.8157 35.331 22.9896 35.4201 23.8218L35.4499 24.0448L35.3161 23.8516C35.0932 23.5098 34.8852 23.2869 34.6028 23.0937C34.0975 22.7519 33.5626 22.6479 32.1508 22.5735C30.8728 22.4992 30.1446 22.3952 29.4313 22.1574C28.2127 21.7562 27.5886 21.2361 26.1471 19.3191C25.5081 18.472 25.1068 18.0113 24.7056 17.6249C23.8288 16.7779 22.952 16.3321 21.8078 16.1537Z" fill="#FF007A"/>
<path d="M32.8791 18.0409C32.9089 17.4762 32.9832 17.1047 33.1466 16.7629C33.2061 16.6291 33.2655 16.5103 33.2804 16.5103C33.2952 16.5103 33.2655 16.6143 33.2209 16.7332C33.102 17.0601 33.0872 17.5208 33.1615 18.0409C33.2655 18.7096 33.3101 18.7988 34.0234 19.527C34.3503 19.8688 34.7367 20.2997 34.8853 20.4781L35.138 20.805L34.8853 20.5672C34.5733 20.27 33.8599 19.7053 33.6965 19.631C33.5925 19.5716 33.5776 19.5716 33.5033 19.6459C33.4438 19.7053 33.429 19.7945 33.429 20.2254C33.4141 20.8942 33.325 21.3103 33.102 21.7412C32.9832 21.9641 32.9683 21.9195 33.0723 21.6669C33.1466 21.4737 33.1615 21.3846 33.1615 20.7456C33.1615 19.4527 33.0129 19.1406 32.1064 18.6205C31.8835 18.4867 31.4971 18.2935 31.2742 18.1895C31.0364 18.0855 30.8581 17.9963 30.8729 17.9963C30.9027 17.9666 31.7794 18.2192 32.1212 18.3678C32.6414 18.5759 32.7305 18.5908 32.79 18.5759C32.8346 18.5313 32.8643 18.4124 32.8791 18.0409Z" fill="#FF007A"/>
<path d="M22.4173 20.2552C21.7932 19.3932 21.392 18.0558 21.4811 17.0601L21.5108 16.748L21.6594 16.7778C21.9269 16.8224 22.3876 17.0007 22.6105 17.1344C23.205 17.4911 23.4724 17.9815 23.7251 19.2001C23.7994 19.5567 23.9034 19.9728 23.948 20.1066C24.0223 20.3295 24.3046 20.8496 24.5424 21.1765C24.7059 21.4143 24.6019 21.5332 24.2303 21.5035C23.6656 21.444 22.9077 20.9239 22.4173 20.2552Z" fill="#FF007A"/>
<path d="M32.1213 26.7195C29.1789 25.5307 28.1387 24.5053 28.1387 22.7666C28.1387 22.514 28.1535 22.3059 28.1535 22.3059C28.1684 22.3059 28.2724 22.3951 28.4062 22.4991C29.0006 22.9746 29.6693 23.1827 31.5269 23.4502C32.6117 23.6136 33.2359 23.7325 33.8006 23.9257C35.5987 24.5201 36.7133 25.7387 36.9808 27.3883C37.0551 27.8638 37.0105 28.7703 36.8916 29.2458C36.7876 29.6174 36.4904 30.301 36.4161 30.3158C36.4012 30.3158 36.3715 30.2415 36.3715 30.1226C36.3418 29.4985 36.0297 28.904 35.5096 28.4434C34.8854 27.9084 34.0829 27.5071 32.1213 26.7195Z" fill="#FF007A"/>
<path d="M30.0408 27.2101C30.0111 26.9872 29.9368 26.7048 29.8922 26.5859L29.8179 26.363L29.9516 26.5265C30.1448 26.7494 30.2934 27.0169 30.4272 27.3884C30.5312 27.6708 30.5312 27.7599 30.5312 28.2206C30.5312 28.6664 30.5163 28.7705 30.4272 29.0231C30.2786 29.4243 30.1002 29.7067 29.803 30.0188C29.268 30.5686 28.5696 30.8658 27.5739 30.9996C27.3956 31.0144 26.8903 31.059 26.4445 31.0887C25.33 31.1482 24.5869 31.2671 23.9182 31.5048C23.829 31.5346 23.7399 31.5643 23.725 31.5494C23.6953 31.5197 24.156 31.2522 24.5275 31.0739C25.0476 30.8212 25.5826 30.6875 26.7566 30.4794C27.3362 30.3903 27.9306 30.2714 28.0792 30.212C29.5504 29.7513 30.2786 28.607 30.0408 27.2101Z" fill="#FF007A"/>
<path d="M31.3933 29.6024C31.0069 28.7554 30.9178 27.9529 31.1258 27.195C31.1555 27.1207 31.1853 27.0464 31.215 27.0464C31.2447 27.0464 31.3339 27.091 31.423 27.1504C31.6014 27.2693 31.9729 27.4773 32.924 27.9975C34.1277 28.6513 34.8113 29.1566 35.2868 29.7362C35.7029 30.2414 35.9556 30.821 36.0744 31.5343C36.1488 31.9356 36.1042 32.9015 36.0001 33.3027C35.6732 34.5659 34.9302 35.5764 33.8453 36.156C33.6819 36.2452 33.5481 36.3046 33.5333 36.3046C33.5184 36.3046 33.5778 36.156 33.667 35.9777C34.0237 35.2198 34.0683 34.4916 33.8008 33.6743C33.6373 33.169 33.2955 32.5597 32.6119 31.5343C31.7946 30.3455 31.6014 30.0334 31.3933 29.6024Z" fill="#FF007A"/>
<path d="M20.3218 34.1499C21.4215 33.2286 22.7739 32.5747 24.0222 32.3666C24.5571 32.2775 25.4488 32.3072 25.9392 32.4409C26.7268 32.649 27.4401 33.0948 27.8116 33.6447C28.1683 34.1796 28.3317 34.6403 28.4952 35.6657C28.5547 36.067 28.629 36.4831 28.6438 36.5722C28.7627 37.1072 29.0005 37.5233 29.2977 37.7462C29.7584 38.088 30.5609 38.1029 31.3485 37.8057C31.4822 37.7611 31.6011 37.7165 31.6011 37.7314C31.6308 37.7611 31.2296 38.0286 30.9621 38.1623C30.5906 38.3555 30.2934 38.415 29.8921 38.415C29.1788 38.415 28.5695 38.0434 28.0791 37.3004C27.9751 37.1518 27.767 36.7208 27.5887 36.3196C27.0686 35.1159 26.8011 34.7592 26.1918 34.358C25.6568 34.0162 24.9732 33.9419 24.4531 34.1945C23.7695 34.5214 23.5912 35.3982 24.0667 35.9332C24.2599 36.1561 24.6166 36.3345 24.9138 36.379C25.4636 36.4533 25.9392 36.0224 25.9392 35.4725C25.9392 35.1159 25.8054 34.9078 25.4488 34.7444C24.9732 34.5363 24.4531 34.7741 24.468 35.2348C24.468 35.4279 24.5571 35.5468 24.7503 35.636C24.8692 35.6954 24.8692 35.6954 24.78 35.6806C24.3491 35.5914 24.2451 35.0564 24.5869 34.7146C25.003 34.2985 25.8797 34.4769 26.1769 35.0564C26.2958 35.2942 26.3107 35.7697 26.2067 36.067C25.954 36.7208 25.2407 37.0626 24.5126 36.8694C24.0221 36.7357 23.8141 36.6019 23.2197 35.9927C22.1794 34.9227 21.7782 34.7146 20.2921 34.4917L20.0098 34.4471L20.3218 34.1499Z" fill="#FF007A"/>
<path fill-rule="evenodd" clip-rule="evenodd" d="M12.5049 10.2391C15.9675 14.4447 21.3025 20.9834 21.57 21.34C21.7929 21.6372 21.7037 21.9196 21.3322 22.1277C21.1241 22.2465 20.6932 22.3654 20.4851 22.3654C20.2474 22.3654 19.965 22.2465 19.7718 22.0533C19.6381 21.9196 19.0585 21.0725 17.7508 19.0366C16.7551 17.4763 15.908 16.1834 15.8932 16.1685C15.8337 16.1388 15.8337 16.1388 17.6467 19.3784C18.791 21.4143 19.1625 22.1425 19.1625 22.2317C19.1625 22.4249 19.1031 22.5289 18.8653 22.7964C18.4641 23.2422 18.2858 23.7475 18.152 24.8026C18.0034 25.9766 17.6022 26.8088 16.4579 28.2205C15.7892 29.0527 15.6851 29.2013 15.5217 29.5431C15.3136 29.9592 15.2542 30.197 15.2245 30.732C15.1947 31.2967 15.2542 31.6533 15.4176 32.1883C15.5662 32.6639 15.7297 32.9759 16.131 33.5852C16.4727 34.1202 16.6808 34.5215 16.6808 34.6701C16.6808 34.789 16.7105 34.789 17.2455 34.6701C18.5235 34.3729 19.5786 33.8676 20.1582 33.2434C20.5149 32.8571 20.604 32.649 20.604 32.114C20.604 31.7722 20.5892 31.6979 20.5 31.4899C20.3514 31.1629 20.069 30.8955 19.4597 30.4794C18.6573 29.9295 18.3155 29.4837 18.2263 28.8893C18.152 28.384 18.2412 28.0422 18.687 27.106C19.1477 26.14 19.2666 25.7388 19.3409 24.758C19.3854 24.1338 19.4597 23.8812 19.6381 23.688C19.8313 23.48 19.9947 23.4057 20.4554 23.3462C21.2133 23.2422 21.7037 23.049 22.0901 22.6775C22.4319 22.3654 22.5805 22.0533 22.5954 21.5927L22.6102 21.2509L22.417 21.0428C21.7186 20.2403 12.0443 9.6001 11.9997 9.6001C11.9848 9.6001 12.2226 9.88245 12.5049 10.2391ZM17.0672 31.371C17.2306 31.0886 17.1415 30.732 16.874 30.5537C16.6214 30.3902 16.235 30.4645 16.235 30.6874C16.235 30.7468 16.2647 30.8063 16.3539 30.836C16.4876 30.9103 16.5025 30.9846 16.3984 31.1481C16.2944 31.3116 16.2944 31.4602 16.4282 31.5642C16.6362 31.7277 16.9186 31.6385 17.0672 31.371Z" fill="#FF007A"/>
<path fill-rule="evenodd" clip-rule="evenodd" d="M23.0857 23.5541C22.729 23.6582 22.3873 24.0446 22.2832 24.4309C22.2238 24.6687 22.2535 25.0997 22.3575 25.2334C22.521 25.4415 22.6696 25.5009 23.0857 25.5009C23.903 25.5009 24.6015 25.1442 24.6758 24.7133C24.7501 24.3566 24.438 23.8662 24.0071 23.6433C23.7842 23.5244 23.3235 23.4798 23.0857 23.5541ZM24.0368 24.2972C24.1557 24.1189 24.1111 23.9257 23.8882 23.7919C23.4869 23.5393 22.8777 23.7473 22.8777 24.1337C22.8777 24.3269 23.1897 24.535 23.4869 24.535C23.6801 24.535 23.9476 24.4161 24.0368 24.2972Z" fill="#FF007A"/>
</g>
<defs>
<clipPath id="clip0_1690_6777">
<rect width="25.0105" height="28.8" fill="white" transform="translate(12 9.6001)"/>
</clipPath>
</defs>
</svg>
