<svg width="48" height="48" viewBox="0 0 48 48" fill="none" xmlns="http://www.w3.org/2000/svg">
<circle cx="24" cy="24" r="24" fill="#50AF95"/>
<g clip-path="url(#clip0_1690_5817)">
<path fill-rule="evenodd" clip-rule="evenodd" d="M13.8597 12.1362L8.02496 24.3465C8.00276 24.3919 7.99573 24.4432 8.00489 24.4929C8.01405 24.5426 8.03892 24.5881 8.07587 24.6226L23.8341 39.6667C23.8788 39.7094 23.9384 39.7333 24.0005 39.7333C24.0625 39.7333 24.1221 39.7094 24.1668 39.6667L39.925 24.6236C39.962 24.589 39.9869 24.5435 39.996 24.4938C40.0052 24.4442 39.9981 24.3929 39.9759 24.3474L34.1412 12.1371C34.1224 12.0961 34.0921 12.0614 34.054 12.0371C34.0159 12.0128 33.9715 11.9999 33.9263 12H14.0765C14.031 11.9995 13.9864 12.012 13.9479 12.0362C13.9094 12.0603 13.8788 12.0951 13.8597 12.1362Z" fill="#50AF95"/>
<path fill-rule="evenodd" clip-rule="evenodd" d="M26.0245 25.6003C25.9114 25.6088 25.3269 25.6435 24.023 25.6435C22.986 25.6435 22.2497 25.6125 21.9914 25.6003C17.9837 25.4247 14.9924 24.7296 14.9924 23.8975C14.9924 23.0653 17.9837 22.3712 21.9914 22.1927V24.9081C22.2535 24.9269 23.0039 24.971 24.0409 24.971C25.2854 24.971 25.9085 24.9194 26.0207 24.909V22.1946C30.0199 22.3721 33.0047 23.0672 33.0047 23.8975C33.0047 24.7278 30.0208 25.4228 26.0207 25.5994L26.0245 25.6003ZM26.0245 21.9138V19.4839H31.6056V15.7786H16.4103V19.4839H21.9904V21.9128C17.4548 22.1204 14.0439 23.0155 14.0439 24.0881C14.0439 25.1608 17.4548 26.0549 21.9904 26.2634V34.0499H26.0236V26.2606C30.5488 26.0531 33.954 25.1589 33.954 24.0872C33.954 23.0155 30.5516 22.1213 26.0236 21.9128L26.0245 21.9138Z" fill="white"/>
</g>
<defs>
<clipPath id="clip0_1690_5817">
<rect width="32" height="27.7333" fill="white" transform="translate(8 12)"/>
</clipPath>
</defs>
</svg>
