<svg width="48" height="48" viewBox="0 0 48 48" fill="none" xmlns="http://www.w3.org/2000/svg">
<circle cx="24" cy="24" r="24" fill="white"/>
<path d="M35.3123 11H39.9373L30.3123 20.3502C26.8267 23.7345 21.1755 23.7345 17.6873 20.3502L8.05859 11H12.6873L19.9998 18.1028C21.0653 19.133 22.5011 19.7106 23.997 19.7106C25.4929 19.7106 26.9288 19.133 27.9942 18.1028L35.3123 11Z" fill="#23292F"/>
<path d="M12.6281 37H8L17.6875 27.5922C21.1731 24.2079 26.8244 24.2079 30.3125 27.5922L40 37H35.375L28 29.8396C26.9346 28.8093 25.4987 28.2318 24.0028 28.2318C22.5069 28.2318 21.0711 28.8093 20.0056 29.8396L12.6281 37Z" fill="#23292F"/>
</svg>
