<svg width="48" height="48" viewBox="0 0 48 48" fill="none" xmlns="http://www.w3.org/2000/svg">
<path d="M9.08763 23.9998L9.11126 32.6647L16.4738 36.9971V42.0701L4.80243 35.2248V21.466L9.08763 23.9998ZM9.08763 15.3349V20.3842L4.7998 17.8477V12.7984L9.08763 10.262L13.3965 12.7984L9.08763 15.3349ZM19.5485 12.7984L23.8364 10.262L28.1452 12.7984L23.8364 15.3349L19.5485 12.7984Z" fill="#F0B90B"/>
<path d="M12.1855 30.8687V25.7958L16.4734 28.3322V33.3815L12.1855 30.8687ZM19.5481 38.8142L23.8359 41.3506L28.1447 38.8142V43.8634L23.8359 46.3999L19.5481 43.8634V38.8142ZM34.2942 12.7984L38.582 10.262L42.8908 12.7984V17.8477L38.582 20.3842V15.3349L34.2942 12.7984ZM38.582 32.6647L38.6056 23.9998L42.8934 21.4633V35.2222L31.2221 42.0674V36.9945L38.582 32.6647Z" fill="#F0B90B"/>
<path d="M35.5075 30.8688L31.2197 33.3816V28.3323L35.5075 25.7959V30.8688Z" fill="#F0B90B"/>
<path d="M35.5073 17.1313L35.5309 22.2042L28.1474 26.5367V35.2226L23.8596 37.7354L19.5717 35.2226V26.5367L12.1882 22.2042V17.1313L16.4944 14.5948L23.8333 18.9483L31.2169 14.5948L35.5257 17.1313H35.5073ZM12.1855 8.46901L23.8359 1.6001L35.5073 8.46901L31.2195 11.0055L23.8359 6.65201L16.4734 11.0055L12.1855 8.46901Z" fill="#F0B90B"/>
</svg>
