<svg width="48" height="48" viewBox="0 0 48 48" fill="none" xmlns="http://www.w3.org/2000/svg">
<g clip-path="url(#clip0_1957_6472)">
<path d="M38.5089 2.18188H10.2544C5.78164 2.18188 2.18164 5.78188 2.18164 10.1455V37.8546C2.18164 42.2182 5.78164 45.8182 10.2544 45.8182H38.5089C42.9816 45.8182 46.5816 42.2182 46.5816 37.8546V10.1455C46.5816 5.78188 42.9816 2.18188 38.5089 2.18188ZM31.6362 13.091C34.9089 13.091 37.6362 15.7092 37.6362 18.9819C37.6362 19.9637 37.418 20.9455 36.9816 21.8182C36.218 21.2728 35.3453 20.7273 34.4725 20.4001C34.6907 19.9637 34.7998 19.4182 34.7998 18.9819C34.7998 17.3455 33.3816 15.9273 31.7453 15.9273C29.9998 15.9273 28.6907 17.3455 28.6907 18.9819C28.6907 19.5273 28.7998 19.9637 29.018 20.4001C28.1453 20.7273 27.2725 21.1637 26.5089 21.8182C25.9635 20.9455 25.8544 19.9637 25.8544 18.9819C25.7453 15.7092 28.3635 13.091 31.6362 13.091ZM17.1271 34.9092C13.8544 34.9092 11.1271 32.291 11.1271 29.0182H13.9635C13.9635 30.6546 15.3816 32.0728 17.018 32.0728C18.6544 32.0728 20.0725 30.6546 20.0725 29.0182H22.9089C23.1271 32.291 20.3998 34.9092 17.1271 34.9092ZM17.1271 26.7273C13.3089 26.7273 10.2544 23.6728 10.2544 19.9637C10.2544 16.2546 13.3089 13.091 17.1271 13.091C20.9453 13.091 24.1089 16.1455 24.1089 19.9637C24.1089 23.6728 20.9453 26.7273 17.1271 26.7273ZM31.6362 34.9092C27.818 34.9092 24.6544 31.8546 24.6544 28.1455C24.6544 24.3273 27.7089 21.2728 31.6362 21.2728C35.4544 21.2728 38.5089 24.3273 38.5089 28.1455C38.618 31.8546 35.4544 34.9092 31.6362 34.9092ZM35.7816 28.0364C35.7816 30.3273 33.9271 32.0728 31.6362 32.0728C29.3453 32.0728 27.4907 30.2182 27.4907 28.0364C27.4907 25.7455 29.3453 24.0001 31.6362 24.0001C33.9271 24.1092 35.7816 25.8546 35.7816 28.0364ZM21.1635 19.9637C21.1635 22.2546 19.3089 24.0001 17.018 24.0001C14.7271 24.0001 12.8725 22.1455 12.8725 19.9637C12.8725 17.6728 14.7271 15.9273 17.018 15.9273C19.418 15.9273 21.1635 17.6728 21.1635 19.9637Z" fill="#D9B432"/>
</g>
<defs>
<clipPath id="clip0_1957_6472">
<rect width="44.4" height="43.6364" fill="white" transform="translate(2.18164 2.18188)"/>
</clipPath>
</defs>
</svg>
