<svg width="48" height="48" viewBox="0 0 48 48" fill="none" xmlns="http://www.w3.org/2000/svg">
<path d="M46.9104 4L26.7432 17.5465L30.4934 9.56317L46.9104 4Z" fill="#E17726"/>
<path d="M2.13629 4.01611L18.5094 9.56428L22.0704 17.6523L2.13629 4.01611ZM38.7943 32.8098L47.7079 32.9638L44.5927 42.5708L33.7161 39.8523L38.7943 32.8098ZM10.2049 32.8098L15.2642 39.8523L4.40588 42.5709L1.30957 32.9638L10.2049 32.8098Z" fill="#E27625"/>
<path d="M21.5867 15.5921L21.9509 26.2726L11.0508 25.8224L14.1513 21.5761L14.1906 21.5352L21.5867 15.5921ZM27.3007 15.4729L34.8096 21.5356L34.8486 21.5762L37.9491 25.8226L27.0513 26.2726L27.3007 15.4729ZM15.5839 32.8407L21.5356 37.0506L14.6219 40.0807L15.5839 32.8407ZM33.4175 32.8401L34.3595 40.0809L27.465 37.0502L33.4175 32.8401Z" fill="#E27625"/>
<path d="M27.6166 36.6536L34.6128 39.7289L28.105 42.5366L28.1725 40.6809L27.6166 36.6536ZM21.3805 36.6549L20.8464 40.6506L20.8903 42.5344L14.3672 39.7289L21.3805 36.6549Z" fill="#D5BFB2"/>
<path d="M19.361 27.6665L21.1892 31.1545L14.9648 29.4992L19.361 27.6665ZM29.6395 27.6668L34.0564 29.4992L27.8116 31.154L29.6395 27.6668Z" fill="#233447"/>
<path d="M16.0599 32.8051L15.0538 40.3118L9.66113 32.9693L16.0599 32.8051ZM32.9414 32.8053L39.3403 32.9693L33.9275 40.3121L32.9414 32.8053ZM38.107 25.3979L33.4501 29.7065L29.8596 28.2169L28.1406 31.4976L27.0137 25.8561L38.107 25.3979ZM10.8916 25.3979L21.9871 25.8561L20.86 31.4976L19.1406 28.2175L15.5692 29.7066L10.8916 25.3979Z" fill="#CC6228"/>
<path d="M10.5771 24.5135L15.8459 29.3671L16.0284 34.1586L10.5771 24.5135ZM38.4278 24.5049L32.9666 34.1671L33.1722 29.3671L38.4278 24.5049ZM21.7288 24.8092L21.9409 26.0209L22.4648 29.0394L22.128 38.3102L20.5353 30.8627L20.5347 30.7857L21.7288 24.8092ZM27.268 24.7924L28.4652 30.7857L28.4647 30.8627L26.868 38.3289L26.8048 36.4614L26.5557 28.9844L27.268 24.7924Z" fill="#E27525"/>
<path d="M33.6412 29.1743L33.4629 33.3373L27.9048 37.2685L26.7812 36.5478L28.0406 30.6586L33.6412 29.1743ZM15.3789 29.1743L20.96 30.6586L22.2194 36.5478L21.0958 37.2685L15.5375 33.337L15.3789 29.1743Z" fill="#F5841F"/>
<path d="M13.3037 38.8096L20.4147 41.8682L20.3846 40.5621L20.9796 40.0879H28.0175L28.634 40.5604L28.5884 41.8656L35.6544 38.8172L32.2161 41.3966L28.0586 43.9887H20.9225L16.7678 41.3859L13.3037 38.8096Z" fill="#C0AC9D"/>
<path d="M27.1077 36.2466L28.1131 36.8914L28.7022 41.1587L27.8496 40.5052H21.1529L20.3164 41.1719L20.8863 36.8917L21.892 36.2466H27.1077Z" fill="#161616"/>
<path d="M45.5791 4.375L48 10.9678L46.4881 17.634L47.5647 18.3878L46.1079 19.3968L47.2028 20.1645L45.753 21.363L46.6431 21.9482L44.2809 24.4525L34.5927 21.8917L34.5088 21.8508L27.5273 16.5045L45.5791 4.375ZM3.42087 4.375L21.4729 16.5045L14.4912 21.8508L14.4073 21.8917L4.71906 24.4525L2.35694 21.9482L3.24627 21.3635L1.79735 20.1645L2.8901 19.3977L1.41143 18.3858L2.5286 17.6315L1 10.9682L3.42087 4.375Z" fill="#763E1A"/>
<path d="M34.1192 21.3316L44.3845 24.0447L47.7195 33.3757H38.9209L32.8587 33.4451L37.2675 25.6437L34.1192 21.3316ZM14.8815 21.3316L11.7327 25.6437L16.1421 33.4451L10.0826 33.3757H1.2998L4.61606 24.0449L14.8815 21.3316ZM30.9966 9.51855L28.1254 16.5584L27.5161 26.0684L27.2829 29.0492L27.2644 36.6639H21.7362L21.7182 29.0636L21.4843 26.0659L20.8748 16.5584L18.0039 9.51855H30.9966Z" fill="#F5841F"/>
</svg>
