<svg width="48" height="48" viewBox="0 0 48 48" fill="none" xmlns="http://www.w3.org/2000/svg">
<circle cx="24" cy="24" r="24" fill="#202036"/>
<g clip-path="url(#clip0_1989_7762)">
<path fill-rule="evenodd" clip-rule="evenodd" d="M40 27.7112V30.237C40 37.3091 29.471 41.3503 26.271 42.3606L25.1355 42.7647V38.4204L25.7548 38.2183C30.8129 36.3998 35.871 33.2679 35.871 30.237V27.7112H40ZM24 7L28.3355 8.31339V12.7587L24 11.4453L23.6903 11.5464V21.5484H28.2323V25.6906H23.6903V42.6637L22.4516 42.2596C21.9355 42.0575 21.0065 41.7544 19.871 41.2493L19.3548 41.0472V8.31339L24 7ZM18.1161 8.81854V13.2639L12.2323 14.9814V21.5484H18.1161V40.6431L16.7742 40.0369C12.7484 38.0163 8 34.6823 8 29.9339V27.7112H12.2323V29.9339C12.2323 30.9442 12.7484 31.9545 13.7806 32.9648V25.6906H8V11.7484L18.1161 8.81854ZM29.5742 8.71751L39.8968 11.8495V25.7916H33.8064V31.8534C33.8064 31.8534 32.4645 33.571 29.5742 34.9854C29.5742 34.1771 29.5742 21.9525 29.5742 14.4762V8.71751ZM33.9097 14.3752V21.5484H35.7677V14.9814L33.9097 14.3752Z" fill="white"/>
</g>
<defs>
<clipPath id="clip0_1989_7762">
<rect width="32" height="35.7647" fill="white" transform="translate(8 7)"/>
</clipPath>
</defs>
</svg>
