<svg width="48" height="48" viewBox="0 0 48 48" fill="none" xmlns="http://www.w3.org/2000/svg">
<path fill-rule="evenodd" clip-rule="evenodd" d="M24 0C37.2562 0 48 10.7438 48 24C48 37.2562 37.2562 48 24 48C10.7438 48 0 37.2562 0 24C0 10.7438 10.7438 0 24 0Z" fill="url(#paint0_radial_1953_6474)"/>
<path d="M15.2529 18.5345C20.0811 13.8189 27.9185 13.8189 32.7467 18.5345L33.3279 19.1064C33.5717 19.3408 33.5717 19.7251 33.3279 19.9595L31.3404 21.9001C31.2185 22.022 31.0217 22.022 30.8998 21.9001L30.1029 21.122C26.7279 17.8314 21.2717 17.8314 17.8967 21.122L17.0436 21.9564C16.9217 22.0783 16.7248 22.0783 16.6029 21.9564L14.6154 20.0158C14.3717 19.7814 14.3717 19.397 14.6154 19.1626L15.2529 18.5345ZM36.8623 22.547L38.6342 24.272C38.8779 24.5064 38.8779 24.8908 38.6342 25.1251L30.656 32.9158C30.4123 33.1501 30.0185 33.1501 29.7842 32.9158L24.1217 27.3845C24.0654 27.3283 23.9623 27.3283 23.9061 27.3845L18.2436 32.9158C17.9998 33.1501 17.6061 33.1501 17.3717 32.9158L9.36543 25.1251C9.12168 24.8908 9.12168 24.5064 9.36543 24.272L11.1373 22.547C11.3811 22.3126 11.7748 22.3126 12.0092 22.547L17.6717 28.0783C17.7279 28.1345 17.8311 28.1345 17.8873 28.0783L23.5498 22.547C23.7936 22.3126 24.1873 22.3126 24.4217 22.547L30.0842 28.0783C30.1404 28.1345 30.2435 28.1345 30.2998 28.0783L35.9623 22.547C36.2248 22.3126 36.6185 22.3126 36.8623 22.547Z" fill="white"/>
<defs>
<radialGradient id="paint0_radial_1953_6474" cx="0" cy="0" r="1" gradientUnits="userSpaceOnUse" gradientTransform="translate(0.000148773 24.0007) scale(48)">
<stop stop-color="#5D9DF6"/>
<stop offset="1" stop-color="#006FFF"/>
</radialGradient>
</defs>
</svg>
