<svg width="24" height="24" viewBox="0 0 24 24" fill="none" xmlns="http://www.w3.org/2000/svg">
<path fill-rule="evenodd" clip-rule="evenodd" d="M7.83333 5.33333H5.33333V7.83333H7.83333V5.33333ZM5.33333 4.5C5.11232 4.5 4.90036 4.5878 4.74408 4.74408C4.5878 4.90036 4.5 5.11232 4.5 5.33333V7.83333C4.5 8.05435 4.5878 8.26631 4.74408 8.42259C4.90036 8.57887 5.11232 8.66667 5.33333 8.66667H7.83333C8.05435 8.66667 8.26631 8.57887 8.42259 8.42259C8.57887 8.26631 8.66667 8.05435 8.66667 7.83333V5.33333C8.66667 5.11232 8.57887 4.90036 8.42259 4.74408C8.26631 4.5878 8.05435 4.5 7.83333 4.5H5.33333ZM7.83333 10.75H5.33333V13.25H7.83333V10.75ZM5.33333 9.91667C5.11232 9.91667 4.90036 10.0045 4.74408 10.1607C4.5878 10.317 4.5 10.529 4.5 10.75V13.25C4.5 13.471 4.5878 13.683 4.74408 13.8393C4.90036 13.9955 5.11232 14.0833 5.33333 14.0833H7.83333C8.05435 14.0833 8.26631 13.9955 8.42259 13.8393C8.57887 13.683 8.66667 13.471 8.66667 13.25V10.75C8.66667 10.529 8.57887 10.317 8.42259 10.1607C8.26631 10.0045 8.05435 9.91667 7.83333 9.91667H5.33333ZM7.83333 16.1667H5.33333V18.6667H7.83333V16.1667ZM5.33333 15.3333C5.11232 15.3333 4.90036 15.4211 4.74408 15.5774C4.5878 15.7337 4.5 15.9457 4.5 16.1667V18.6667C4.5 18.8877 4.5878 19.0996 4.74408 19.2559C4.90036 19.4122 5.11232 19.5 5.33333 19.5H7.83333C8.05435 19.5 8.26631 19.4122 8.42259 19.2559C8.57887 19.0996 8.66667 18.8877 8.66667 18.6667V16.1667C8.66667 15.9457 8.57887 15.7337 8.42259 15.5774C8.26631 15.4211 8.05435 15.3333 7.83333 15.3333H5.33333ZM13.25 5.33333H10.75V7.83333H13.25V5.33333ZM10.75 4.5C10.529 4.5 10.317 4.5878 10.1607 4.74408C10.0045 4.90036 9.91667 5.11232 9.91667 5.33333V7.83333C9.91667 8.05435 10.0045 8.26631 10.1607 8.42259C10.317 8.57887 10.529 8.66667 10.75 8.66667H13.25C13.471 8.66667 13.683 8.57887 13.8393 8.42259C13.9955 8.26631 14.0833 8.05435 14.0833 7.83333V5.33333C14.0833 5.11232 13.9955 4.90036 13.8393 4.74408C13.683 4.5878 13.471 4.5 13.25 4.5H10.75ZM13.25 10.75H10.75V13.25H13.25V10.75ZM10.75 9.91667C10.529 9.91667 10.317 10.0045 10.1607 10.1607C10.0045 10.317 9.91667 10.529 9.91667 10.75V13.25C9.91667 13.471 10.0045 13.683 10.1607 13.8393C10.317 13.9955 10.529 14.0833 10.75 14.0833H13.25C13.471 14.0833 13.683 13.9955 13.8393 13.8393C13.9955 13.683 14.0833 13.471 14.0833 13.25V10.75C14.0833 10.529 13.9955 10.317 13.8393 10.1607C13.683 10.0045 13.471 9.91667 13.25 9.91667H10.75ZM13.25 16.1667H10.75V18.6667H13.25V16.1667ZM10.75 15.3333C10.529 15.3333 10.317 15.4211 10.1607 15.5774C10.0045 15.7337 9.91667 15.9457 9.91667 16.1667V18.6667C9.91667 18.8877 10.0045 19.0996 10.1607 19.2559C10.317 19.4122 10.529 19.5 10.75 19.5H13.25C13.471 19.5 13.683 19.4122 13.8393 19.2559C13.9955 19.0996 14.0833 18.8877 14.0833 18.6667V16.1667C14.0833 15.9457 13.9955 15.7337 13.8393 15.5774C13.683 15.4211 13.471 15.3333 13.25 15.3333H10.75ZM18.6667 5.33333H16.1667V7.83333H18.6667V5.33333ZM16.1667 4.5C15.9457 4.5 15.7337 4.5878 15.5774 4.74408C15.4211 4.90036 15.3333 5.11232 15.3333 5.33333V7.83333C15.3333 8.05435 15.4211 8.26631 15.5774 8.42259C15.7337 8.57887 15.9457 8.66667 16.1667 8.66667H18.6667C18.8877 8.66667 19.0996 8.57887 19.2559 8.42259C19.4122 8.26631 19.5 8.05435 19.5 7.83333V5.33333C19.5 5.11232 19.4122 4.90036 19.2559 4.74408C19.0996 4.5878 18.8877 4.5 18.6667 4.5H16.1667ZM18.6667 10.75H16.1667V13.25H18.6667V10.75ZM16.1667 9.91667C15.9457 9.91667 15.7337 10.0045 15.5774 10.1607C15.4211 10.317 15.3333 10.529 15.3333 10.75V13.25C15.3333 13.471 15.4211 13.683 15.5774 13.8393C15.7337 13.9955 15.9457 14.0833 16.1667 14.0833H18.6667C18.8877 14.0833 19.0996 13.9955 19.2559 13.8393C19.4122 13.683 19.5 13.471 19.5 13.25V10.75C19.5 10.529 19.4122 10.317 19.2559 10.1607C19.0996 10.0045 18.8877 9.91667 18.6667 9.91667H16.1667ZM18.6667 16.1667H16.1667V18.6667H18.6667V16.1667ZM16.1667 15.3333C15.9457 15.3333 15.7337 15.4211 15.5774 15.5774C15.4211 15.7337 15.3333 15.9457 15.3333 16.1667V18.6667C15.3333 18.8877 15.4211 19.0996 15.5774 19.2559C15.7337 19.4122 15.9457 19.5 16.1667 19.5H18.6667C18.8877 19.5 19.0996 19.4122 19.2559 19.2559C19.4122 19.0996 19.5 18.8877 19.5 18.6667V16.1667C19.5 15.9457 19.4122 15.7337 19.2559 15.5774C19.0996 15.4211 18.8877 15.3333 18.6667 15.3333H16.1667Z" fill="#454561"/>
</svg>
