<svg width="24" height="24" viewBox="0 0 24 24" fill="none" xmlns="http://www.w3.org/2000/svg">
<path d="M14.9163 12.2084C14.9163 12.0427 14.8505 11.8837 14.7333 11.7665C14.6161 11.6493 14.4571 11.5834 14.2913 11.5834H10.1247C9.95891 11.5834 9.79994 11.6493 9.68273 11.7665C9.56552 11.8837 9.49967 12.0427 9.49967 12.2084V12.6251C9.49967 13.4584 10.6522 14.0834 12.208 14.0834C13.7638 14.0834 14.9163 13.4584 14.9163 12.6251V12.2084ZM13.6663 9.28758C13.6663 8.48341 13.0138 7.83341 12.208 7.83341C11.4022 7.83341 10.7497 8.48258 10.7497 9.28758C10.7497 9.67436 10.9033 10.0453 11.1768 10.3188C11.4503 10.5923 11.8212 10.7459 12.208 10.7459C12.5948 10.7459 12.9657 10.5923 13.2392 10.3188C13.5127 10.0453 13.6663 9.67436 13.6663 9.28758V9.28758ZM5.33301 5.75008C5.33301 5.19755 5.5525 4.66764 5.9432 4.27694C6.3339 3.88624 6.86381 3.66675 7.41634 3.66675H16.9997C17.2733 3.66675 17.5442 3.72064 17.7969 3.82533C18.0497 3.93003 18.2794 4.08349 18.4728 4.27694C18.6663 4.4704 18.8197 4.70006 18.9244 4.95282C19.0291 5.20559 19.083 5.47649 19.083 5.75008V17.6251C19.083 17.7908 19.0172 17.9498 18.8999 18.067C18.7827 18.1842 18.6238 18.2501 18.458 18.2501H6.58301C6.58301 18.4711 6.67081 18.6831 6.82709 18.8393C6.98337 18.9956 7.19533 19.0834 7.41634 19.0834H18.458C18.6238 19.0834 18.7827 19.1493 18.8999 19.2665C19.0172 19.3837 19.083 19.5427 19.083 19.7084C19.083 19.8742 19.0172 20.0331 18.8999 20.1504C18.7827 20.2676 18.6238 20.3334 18.458 20.3334H7.41634C6.86381 20.3334 6.3339 20.1139 5.9432 19.7232C5.5525 19.3325 5.33301 18.8026 5.33301 18.2501V5.75008ZM6.58301 5.75008V17.0001H17.833V5.75008C17.833 5.52907 17.7452 5.31711 17.5889 5.16083C17.4327 5.00455 17.2207 4.91675 16.9997 4.91675H7.41634C7.19533 4.91675 6.98337 5.00455 6.82709 5.16083C6.67081 5.31711 6.58301 5.52907 6.58301 5.75008Z" fill="#454561"/>
</svg>
