<svg width="24" height="24" viewBox="0 0 24 24" fill="none" xmlns="http://www.w3.org/2000/svg">
<path d="M19.5 8.25V19.5H8.25V8.25H19.5ZM19.5 7H8.25C7.91848 7 7.60054 7.1317 7.36612 7.36612C7.1317 7.60054 7 7.91848 7 8.25V19.5C7 19.8315 7.1317 20.1495 7.36612 20.3839C7.60054 20.6183 7.91848 20.75 8.25 20.75H19.5C19.8315 20.75 20.1495 20.6183 20.3839 20.3839C20.6183 20.1495 20.75 19.8315 20.75 19.5V8.25C20.75 7.91848 20.6183 7.60054 20.3839 7.36612C20.1495 7.1317 19.8315 7 19.5 7V7Z" fill="#454561"/>
<path d="M4.5 13.25H3.25V4.5C3.25 4.16848 3.3817 3.85054 3.61612 3.61612C3.85054 3.3817 4.16848 3.25 4.5 3.25H13.25V4.5H4.5V13.25Z" fill="#454561"/>
</svg>
