<svg width="24" height="24" viewBox="0 0 24 24" fill="none" xmlns="http://www.w3.org/2000/svg">
<path d="M4.5 7.375C4.5 7.20924 4.56585 7.05027 4.68306 6.93306C4.80027 6.81585 4.95924 6.75 5.125 6.75H18.875C19.0408 6.75 19.1997 6.81585 19.3169 6.93306C19.4342 7.05027 19.5 7.20924 19.5 7.375C19.5 7.54076 19.4342 7.69973 19.3169 7.81694C19.1997 7.93415 19.0408 8 18.875 8H5.125C4.95924 8 4.80027 7.93415 4.68306 7.81694C4.56585 7.69973 4.5 7.54076 4.5 7.375ZM7 12.375C7 12.2092 7.06585 12.0503 7.18306 11.9331C7.30027 11.8158 7.45924 11.75 7.625 11.75H16.375C16.5408 11.75 16.6997 11.8158 16.8169 11.9331C16.9342 12.0503 17 12.2092 17 12.375C17 12.5408 16.9342 12.6997 16.8169 12.8169C16.6997 12.9342 16.5408 13 16.375 13H7.625C7.45924 13 7.30027 12.9342 7.18306 12.8169C7.06585 12.6997 7 12.5408 7 12.375ZM9.5 17.375C9.5 17.2092 9.56585 17.0503 9.68306 16.9331C9.80027 16.8158 9.95924 16.75 10.125 16.75H13.875C14.0408 16.75 14.1997 16.8158 14.3169 16.9331C14.4342 17.0503 14.5 17.2092 14.5 17.375C14.5 17.5408 14.4342 17.6997 14.3169 17.8169C14.1997 17.9342 14.0408 18 13.875 18H10.125C9.95924 18 9.80027 17.9342 9.68306 17.8169C9.56585 17.6997 9.5 17.5408 9.5 17.375Z" fill="#454561"/>
</svg>
