<svg width="24" height="24" viewBox="0 0 24 24" fill="none" xmlns="http://www.w3.org/2000/svg">
<path d="M5.33333 17H18.6667C19.125 17 19.5 16.625 19.5 16.1667C19.5 15.7083 19.125 15.3333 18.6667 15.3333H5.33333C4.875 15.3333 4.5 15.7083 4.5 16.1667C4.5 16.625 4.875 17 5.33333 17ZM5.33333 12.8333H18.6667C19.125 12.8333 19.5 12.4583 19.5 12C19.5 11.5417 19.125 11.1667 18.6667 11.1667H5.33333C4.875 11.1667 4.5 11.5417 4.5 12C4.5 12.4583 4.875 12.8333 5.33333 12.8333ZM4.5 7.83333C4.5 8.29167 4.875 8.66667 5.33333 8.66667H18.6667C19.125 8.66667 19.5 8.29167 19.5 7.83333C19.5 7.375 19.125 7 18.6667 7H5.33333C4.875 7 4.5 7.375 4.5 7.83333Z" fill="#454561"/>
</svg>
