<svg width="24" height="24" viewBox="0 0 24 24" fill="none" xmlns="http://www.w3.org/2000/svg">
<path d="M12.625 15.75V10.75H10.125V12H11.375V15.75H9.5V17H14.5V15.75H12.625ZM12 7C11.8146 7 11.6333 7.05498 11.4792 7.158C11.325 7.26101 11.2048 7.40743 11.1339 7.57873C11.0629 7.75004 11.0443 7.93854 11.0805 8.1204C11.1167 8.30225 11.206 8.4693 11.3371 8.60041C11.4682 8.73152 11.6352 8.82081 11.8171 8.85699C11.999 8.89316 12.1875 8.87459 12.3588 8.80364C12.5301 8.73268 12.6765 8.61252 12.7795 8.45835C12.8825 8.30418 12.9375 8.12292 12.9375 7.9375C12.9375 7.68886 12.8387 7.4504 12.6629 7.27459C12.4871 7.09877 12.2486 7 12 7V7Z" fill="#454561"/>
<path d="M12 20.75C10.2694 20.75 8.57769 20.2368 7.13876 19.2754C5.69983 18.3139 4.57832 16.9473 3.91606 15.3485C3.25379 13.7496 3.08051 11.9903 3.41813 10.293C3.75575 8.59563 4.58911 7.03653 5.81282 5.81282C7.03653 4.58911 8.59563 3.75575 10.293 3.41813C11.9903 3.08051 13.7496 3.25379 15.3485 3.91606C16.9473 4.57832 18.3139 5.69983 19.2754 7.13876C20.2368 8.57769 20.75 10.2694 20.75 12C20.75 14.3206 19.8281 16.5462 18.1872 18.1872C16.5462 19.8281 14.3206 20.75 12 20.75ZM12 4.5C10.5166 4.5 9.0666 4.93987 7.83323 5.76398C6.59986 6.58809 5.63856 7.75943 5.07091 9.12988C4.50325 10.5003 4.35473 12.0083 4.64411 13.4632C4.9335 14.918 5.64781 16.2544 6.6967 17.3033C7.7456 18.3522 9.08197 19.0665 10.5368 19.3559C11.9917 19.6453 13.4997 19.4968 14.8701 18.9291C16.2406 18.3614 17.4119 17.4001 18.236 16.1668C19.0601 14.9334 19.5 13.4834 19.5 12C19.5 10.0109 18.7098 8.10323 17.3033 6.6967C15.8968 5.29018 13.9891 4.5 12 4.5V4.5Z" fill="#454561"/>
</svg>
