<svg width="24" height="24" viewBox="0 0 24 24" fill="none" xmlns="http://www.w3.org/2000/svg">
<path d="M20.2812 6.22503C19.9328 5.87543 19.5188 5.59804 19.063 5.40877C18.6072 5.2195 18.1185 5.12207 17.6249 5.12207C17.1314 5.12207 16.6427 5.2195 16.1869 5.40877C15.731 5.59804 15.3171 5.87543 14.9687 6.22503L15.8562 7.11253C16.0889 6.87984 16.3651 6.69526 16.6691 6.56934C16.9731 6.44341 17.299 6.37859 17.6281 6.37859C17.9571 6.37859 18.283 6.44341 18.587 6.56934C18.891 6.69526 19.1672 6.87984 19.3999 7.11253C19.6326 7.34521 19.8172 7.62145 19.9431 7.92547C20.0691 8.22949 20.1339 8.55533 20.1339 8.8844C20.1339 9.21347 20.0691 9.53932 19.9431 9.84333C19.8172 10.1474 19.6326 10.4236 19.3999 10.6563L14.3999 15.6563C13.9308 16.1262 13.2943 16.3905 12.6303 16.3911C11.9663 16.3917 11.3292 16.1285 10.8593 15.6594C10.3894 15.1903 10.125 14.5537 10.1245 13.8897C10.1239 13.2257 10.3871 12.5887 10.8562 12.1188L11.7374 11.2313L10.8562 10.3438L9.96868 11.2313C9.61908 11.5797 9.34169 11.9936 9.15242 12.4495C8.96315 12.9053 8.86572 13.394 8.86572 13.8875C8.86572 14.3811 8.96315 14.8698 9.15242 15.3256C9.34169 15.7814 9.61908 16.1954 9.96868 16.5438C10.6759 17.2419 11.6312 17.6308 12.6249 17.625C13.1204 17.6271 13.6113 17.5309 14.0694 17.3421C14.5275 17.1533 14.9436 16.8756 15.2937 16.525L20.2937 11.525C20.9943 10.8202 21.3865 9.86619 21.3841 8.87244C21.3818 7.87869 20.9851 6.9265 20.2812 6.22503V6.22503Z" fill="#454561"/>
<path d="M4.61879 17.5124C4.38541 17.2801 4.20022 17.004 4.07386 16.6999C3.94749 16.3958 3.88244 16.0698 3.88244 15.7405C3.88244 15.4112 3.94749 15.0852 4.07386 14.7811C4.20022 14.477 4.38541 14.2009 4.61879 13.9686L9.61879 8.96864C9.85109 8.73526 10.1272 8.55007 10.4313 8.4237C10.7353 8.29734 11.0614 8.23229 11.3907 8.23229C11.72 8.23229 12.046 8.29734 12.3501 8.4237C12.6541 8.55007 12.9302 8.73526 13.1625 8.96864C13.3944 9.20277 13.577 9.48106 13.6994 9.78703C13.8218 10.093 13.8815 10.4204 13.875 10.7499C13.8769 11.0804 13.8133 11.408 13.6878 11.7137C13.5623 12.0195 13.3774 12.2973 13.1438 12.5311L11.8188 13.8749L12.7063 14.7624L14.0313 13.4374C14.7366 12.7321 15.1328 11.7755 15.1328 10.778C15.1328 9.78056 14.7366 8.82395 14.0313 8.11864C13.326 7.41333 12.3694 7.01709 11.3719 7.01709C10.3745 7.01709 9.41785 7.41333 8.71254 8.11864L3.71254 13.1186C3.362 13.4671 3.08382 13.8815 2.89399 14.3379C2.70417 14.7943 2.60645 15.2837 2.60645 15.778C2.60645 16.2723 2.70417 16.7617 2.89399 17.2181C3.08382 17.6745 3.362 18.0889 3.71254 18.4374C4.42431 19.1302 5.38185 19.5123 6.37504 19.4999C7.37698 19.5008 8.33862 19.1054 9.05004 18.3999L8.16254 17.5124C7.93025 17.7458 7.65413 17.931 7.35006 18.0573C7.04599 18.1837 6.71995 18.2487 6.39067 18.2487C6.06138 18.2487 5.73534 18.1837 5.43127 18.0573C5.1272 17.931 4.85109 17.7458 4.61879 17.5124V17.5124Z" fill="#454561"/>
</svg>
