<svg width="24" height="24" viewBox="0 0 24 24" fill="none" xmlns="http://www.w3.org/2000/svg">
<path d="M17 19.5V18.25H18.25V19.5H17ZM13.25 17V15.75H14.5V17H13.25ZM13.25 20.75H15.75V19.5H14.5V18.25H13.25V20.75ZM18.25 18.25V15.75H19.5V18.25H18.25ZM19.5 18.25H20.75V20.75H18.25V19.5H19.5V18.25ZM18.25 14.5V13.25H20.75V15.75H19.5V14.5H18.25ZM17 14.5H15.75V17H14.5V18.25H17V14.5ZM13.25 14.5V13.25H15.75V14.5H13.25ZM5.75 15.75H8.25V18.25H5.75V15.75Z" fill="#454561"/>
<path d="M10.75 20.75H3.25V13.25H10.75V20.75ZM4.5 19.5H9.5V14.5H4.5V19.5ZM15.75 5.75H18.25V8.25H15.75V5.75Z" fill="#454561"/>
<path d="M20.75 10.75H13.25V3.25H20.75V10.75ZM14.5 9.5H19.5V4.5H14.5V9.5ZM5.75 5.75H8.25V8.25H5.75V5.75Z" fill="#454561"/>
<path d="M10.75 10.75H3.25V3.25H10.75V10.75ZM4.5 9.5H9.5V4.5H4.5V9.5Z" fill="#454561"/>
</svg>
