<svg width="24" height="24" viewBox="0 0 24 24" fill="none" xmlns="http://www.w3.org/2000/svg">
<path d="M20.1249 19.2411L15.4049 14.5211C16.5391 13.1595 17.1047 11.4129 16.9841 9.64483C16.8634 7.87675 16.0657 6.22326 14.7569 5.02834C13.4482 3.83341 11.7291 3.18906 9.95736 3.22932C8.18562 3.26958 6.49761 3.99134 5.24448 5.24448C3.99134 6.49761 3.26958 8.18562 3.22932 9.95736C3.18906 11.7291 3.83341 13.4482 5.02834 14.7569C6.22326 16.0657 7.87675 16.8634 9.64483 16.9841C11.4129 17.1047 13.1595 16.5391 14.5211 15.4049L19.2411 20.1249L20.1249 19.2411ZM4.49989 10.1249C4.49989 9.01237 4.82979 7.92483 5.44787 6.99981C6.06596 6.07478 6.94446 5.35381 7.97229 4.92807C9.00013 4.50232 10.1311 4.39093 11.2223 4.60797C12.3134 4.82501 13.3157 5.36074 14.1024 6.14741C14.889 6.93408 15.4248 7.93636 15.6418 9.02751C15.8588 10.1186 15.7475 11.2496 15.3217 12.2775C14.896 13.3053 14.175 14.1838 13.25 14.8019C12.3249 15.42 11.2374 15.7499 10.1249 15.7499C8.63355 15.7482 7.20377 15.1551 6.14924 14.1005C5.09471 13.046 4.50154 11.6162 4.49989 10.1249V10.1249Z" fill="#454561"/>
</svg>
