<svg width="24" height="24" viewBox="0 0 24 24" fill="none" xmlns="http://www.w3.org/2000/svg">
<path d="M18.8748 12.4749V11.5186L20.0748 10.4686C20.296 10.2737 20.4412 10.0068 20.4846 9.71514C20.5281 9.4235 20.467 9.12588 20.3123 8.87489L18.8373 6.37489C18.7277 6.18505 18.5701 6.02738 18.3803 5.91768C18.1905 5.80798 17.9752 5.75011 17.756 5.74989C17.6202 5.74885 17.4851 5.76996 17.356 5.81239L15.8373 6.32489C15.5751 6.15064 15.3016 5.99405 15.0185 5.85614L14.6998 4.28114C14.6426 3.99339 14.4861 3.73491 14.2576 3.55095C14.0291 3.36699 13.7431 3.26927 13.4498 3.27489H10.5248C10.2315 3.26927 9.94553 3.36699 9.71701 3.55095C9.48848 3.73491 9.33195 3.99339 9.27479 4.28114L8.95604 5.85614C8.671 5.99401 8.3954 6.15061 8.13104 6.32489L6.64354 5.78739C6.5131 5.7534 6.37803 5.74074 6.24354 5.74989C6.02434 5.75011 5.80905 5.80798 5.61927 5.91768C5.42949 6.02738 5.27189 6.18505 5.16229 6.37489L3.68729 8.87489C3.54141 9.12551 3.4872 9.41905 3.53395 9.70524C3.5807 9.99143 3.72549 10.2525 3.94354 10.4436L5.12479 11.5249V12.4811L3.94354 13.5311C3.71933 13.7236 3.57058 13.9893 3.52367 14.2811C3.47676 14.5729 3.53473 14.8718 3.68729 15.1249L5.16229 17.6249C5.27189 17.8147 5.42949 17.9724 5.61927 18.0821C5.80905 18.1918 6.02434 18.2497 6.24354 18.2499C6.37939 18.2509 6.51449 18.2298 6.64354 18.1874L8.16229 17.6749C8.4245 17.8491 8.69803 18.0057 8.98104 18.1436L9.29979 19.7186C9.35695 20.0064 9.51348 20.2649 9.74201 20.4488C9.97053 20.6328 10.2565 20.7305 10.5498 20.7249H13.4998C13.7931 20.7305 14.0791 20.6328 14.3076 20.4488C14.5361 20.2649 14.6926 20.0064 14.7498 19.7186L15.0685 18.1436C15.3536 18.0058 15.6292 17.8492 15.8935 17.6749L17.406 18.1874C17.5351 18.2298 17.6702 18.2509 17.806 18.2499C18.0252 18.2497 18.2405 18.1918 18.4303 18.0821C18.6201 17.9724 18.7777 17.8147 18.8873 17.6249L20.3123 15.1249C20.4582 14.8743 20.5124 14.5807 20.4656 14.2945C20.4189 14.0083 20.2741 13.7473 20.056 13.5561L18.8748 12.4749ZM17.756 16.9999L15.6123 16.2749C15.1105 16.7 14.5369 17.0322 13.9185 17.2561L13.4748 19.4999H10.5248L10.081 17.2811C9.46756 17.0509 8.89712 16.7192 8.39354 16.2999L6.24354 16.9999L4.76854 14.4999L6.46854 12.9999C6.35298 12.3529 6.35298 11.6906 6.46854 11.0436L4.76854 9.49989L6.24354 6.99989L8.38729 7.72489C8.88913 7.29982 9.46267 6.96755 10.081 6.74364L10.5248 4.49989H13.4748L13.9185 6.71864C14.532 6.9489 15.1025 7.2806 15.606 7.69989L17.756 6.99989L19.231 9.49989L17.531 10.9999C17.6466 11.6469 17.6466 12.3092 17.531 12.9561L19.231 14.4999L17.756 16.9999Z" fill="#454561"/>
<path d="M12 15.75C11.2583 15.75 10.5333 15.5301 9.91661 15.118C9.29993 14.706 8.81928 14.1203 8.53545 13.4351C8.25162 12.7498 8.17736 11.9958 8.32206 11.2684C8.46675 10.541 8.8239 9.8728 9.34835 9.34835C9.8728 8.8239 10.541 8.46675 11.2684 8.32206C11.9958 8.17736 12.7498 8.25162 13.4351 8.53545C14.1203 8.81928 14.706 9.29993 15.118 9.91661C15.5301 10.5333 15.75 11.2583 15.75 12C15.755 12.4939 15.6614 12.9837 15.4748 13.441C15.2881 13.8982 15.012 14.3136 14.6628 14.6628C14.3136 15.012 13.8982 15.2881 13.441 15.4748C12.9837 15.6614 12.4939 15.755 12 15.75V15.75ZM12 9.5C11.6696 9.4923 11.3411 9.55171 11.0343 9.67462C10.7275 9.79753 10.4488 9.9814 10.2151 10.2151C9.9814 10.4488 9.79753 10.7275 9.67462 11.0343C9.55171 11.3411 9.4923 11.6696 9.5 12C9.4923 12.3304 9.55171 12.6589 9.67462 12.9657C9.79753 13.2725 9.9814 13.5512 10.2151 13.7849C10.4488 14.0186 10.7275 14.2025 11.0343 14.3254C11.3411 14.4483 11.6696 14.5077 12 14.5C12.3304 14.5077 12.6589 14.4483 12.9657 14.3254C13.2725 14.2025 13.5512 14.0186 13.7849 13.7849C14.0186 13.5512 14.2025 13.2725 14.3254 12.9657C14.4483 12.6589 14.5077 12.3304 14.5 12C14.5077 11.6696 14.4483 11.3411 14.3254 11.0343C14.2025 10.7275 14.0186 10.4488 13.7849 10.2151C13.5512 9.9814 13.2725 9.79753 12.9657 9.67462C12.6589 9.55171 12.3304 9.4923 12 9.5Z" fill="#454561"/>
</svg>
