<svg width="24" height="24" viewBox="0 0 24 24" fill="none" xmlns="http://www.w3.org/2000/svg">
<path d="M15.1278 8.66676C15.6221 8.66886 16.103 8.50612 16.4944 8.20426C16.8858 7.90241 17.1654 7.47868 17.2889 7.0001L19.2223 7.0001C19.3696 7.0001 19.5109 6.94157 19.6151 6.83738C19.7193 6.73319 19.7778 6.59188 19.7778 6.44454C19.7778 6.2972 19.7193 6.15589 19.6151 6.0517C19.5109 5.94752 19.3696 5.88899 19.2223 5.88899L17.2889 5.88899C17.1726 5.40335 16.8962 4.97105 16.5041 4.66178C16.112 4.35252 15.6272 4.18433 15.1278 4.18433C14.6285 4.18433 14.1437 4.35252 13.7516 4.66178C13.3595 4.97105 13.083 5.40335 12.9667 5.88899L4.77783 5.88899C4.63049 5.88899 4.48918 5.94752 4.38499 6.0517C4.28081 6.15589 4.22228 6.2972 4.22228 6.44454C4.22228 6.59188 4.28081 6.73319 4.38499 6.83738C4.48918 6.94156 4.63049 7.0001 4.77783 7.0001L12.9667 7.0001C13.0903 7.47868 13.3699 7.90241 13.7613 8.20426C14.1527 8.50612 14.6336 8.66886 15.1278 8.66676ZM14.0167 6.44454C14.0167 6.22478 14.0819 6.00996 14.204 5.82724C14.3261 5.64452 14.4996 5.50211 14.7026 5.41801C14.9057 5.33391 15.1291 5.31191 15.3446 5.35478C15.5601 5.39765 15.7581 5.50348 15.9135 5.65887C16.0689 5.81426 16.1747 6.01224 16.2176 6.22777C16.2605 6.44331 16.2385 6.66672 16.1544 6.86975C16.0703 7.07277 15.9279 7.24631 15.7451 7.3684C15.5624 7.49049 15.3476 7.55565 15.1278 7.55565C14.9805 7.55786 14.8342 7.53075 14.6975 7.47591C14.5608 7.42106 14.4363 7.33956 14.3314 7.23617C14.2264 7.13277 14.1431 7.00953 14.0862 6.87363C14.0293 6.73773 14 6.59187 14.0001 6.44454L14.0167 6.44454Z" fill="#454561"/>
<path d="M13.2056 19.7778C13.6999 19.7799 14.1808 19.6172 14.5722 19.3153C14.9636 19.0135 15.2432 18.5898 15.3667 18.1112L19.2223 18.1112C19.3696 18.1112 19.5109 18.0526 19.6151 17.9485C19.7193 17.8443 19.7778 17.703 19.7778 17.5556C19.7778 17.4083 19.7193 17.267 19.6151 17.1628C19.5109 17.0586 19.3696 17.0001 19.2223 17.0001L15.3667 17.0001C15.2504 16.5144 14.9739 16.0821 14.5819 15.7729C14.1898 15.4636 13.705 15.2954 13.2056 15.2954C12.7062 15.2954 12.2214 15.4636 11.8294 15.7729C11.4373 16.0821 11.1608 16.5144 11.0445 17.0001L4.77783 17.0001C4.63049 17.0001 4.48918 17.0586 4.38499 17.1628C4.28081 17.267 4.22228 17.4083 4.22228 17.5556C4.22228 17.703 4.28081 17.8443 4.38499 17.9485C4.48918 18.0526 4.63049 18.1112 4.77783 18.1112L11.0445 18.1112C11.1681 18.5898 11.4477 19.0135 11.8391 19.3153C12.2305 19.6172 12.7113 19.7799 13.2056 19.7778ZM12.0945 17.5556C12.0945 17.3359 12.1597 17.121 12.2818 16.9383C12.4038 16.7556 12.5774 16.6132 12.7804 16.5291C12.9834 16.445 13.2068 16.423 13.4224 16.4659C13.6379 16.5087 13.8359 16.6146 13.9913 16.77C14.1467 16.9253 14.2525 17.1233 14.2954 17.3389C14.3382 17.5544 14.3162 17.7778 14.2321 17.9808C14.148 18.1839 14.0056 18.3574 13.8229 18.4795C13.6402 18.6016 13.4254 18.6667 13.2056 18.6667C13.0578 18.6697 12.911 18.6431 12.7736 18.5886C12.6362 18.5341 12.5111 18.4527 12.4055 18.3493C12.3 18.2458 12.2162 18.1223 12.1589 17.986C12.1017 17.8497 12.0722 17.7034 12.0723 17.5556L12.0945 17.5556Z" fill="#454561"/>
<path d="M8.38894 14.2222C8.88322 14.2243 9.36409 14.0615 9.75549 13.7597C10.1469 13.4578 10.4265 13.0341 10.5501 12.5555L19.2223 12.5555C19.3696 12.5555 19.5109 12.497 19.6151 12.3928C19.7193 12.2886 19.7778 12.1473 19.7778 12C19.7778 11.8526 19.7193 11.7113 19.6151 11.6071C19.5109 11.5029 19.3696 11.4444 19.2223 11.4444L10.5501 11.4444C10.4337 10.9588 10.1573 10.5265 9.76519 10.2172C9.37312 9.90794 8.88831 9.73975 8.38894 9.73975C7.88958 9.73975 7.40477 9.90794 7.01269 10.2172C6.62062 10.5265 6.34414 10.9588 6.22783 11.4444L4.77783 11.4444C4.63049 11.4444 4.48918 11.5029 4.38499 11.6071C4.28081 11.7113 4.22228 11.8526 4.22228 12C4.22228 12.1473 4.28081 12.2886 4.38499 12.3928C4.48918 12.497 4.63049 12.5555 4.77783 12.5555L6.22783 12.5555C6.3514 13.0341 6.63099 13.4578 7.0224 13.7597C7.4138 14.0615 7.89467 14.2243 8.38894 14.2222V14.2222ZM7.27783 12C7.27783 11.7802 7.343 11.5654 7.46509 11.3827C7.58718 11.1999 7.76071 11.0575 7.96374 10.9734C8.16677 10.8893 8.39018 10.8673 8.60571 10.9102C8.82124 10.9531 9.01922 11.0589 9.17462 11.2143C9.33001 11.3697 9.43583 11.5677 9.4787 11.7832C9.52158 11.9987 9.49957 12.2221 9.41548 12.4252C9.33138 12.6282 9.18896 12.8017 9.00624 12.9238C8.82352 13.0459 8.6087 13.1111 8.38894 13.1111C8.24163 13.1133 8.09535 13.0862 7.95862 13.0313C7.82188 12.9765 7.69742 12.895 7.59247 12.7916C7.48752 12.6882 7.40419 12.565 7.34731 12.4291C7.29043 12.2931 7.26115 12.1473 7.26116 12L7.27783 12Z" fill="#454561"/>
</svg>
