<svg width="24" height="24" viewBox="0 0 24 24" fill="none" xmlns="http://www.w3.org/2000/svg">
<path d="M10.9926 4.62622C11.0855 4.43802 11.2293 4.27957 11.4075 4.16878C11.5858 4.05798 11.7915 3.99927 12.0014 3.99927C12.2113 3.99927 12.417 4.05798 12.5952 4.16878C12.7735 4.27957 12.9172 4.43802 13.0101 4.62622L14.9114 8.47872L19.1626 9.09747C19.3705 9.12745 19.5658 9.21499 19.7264 9.35019C19.8871 9.4854 20.0067 9.66287 20.0717 9.86252C20.1367 10.0622 20.1446 10.276 20.0944 10.4799C20.0442 10.6838 19.9379 10.8696 19.7876 11.0162L16.7101 14.015L17.4364 18.2487C17.472 18.4557 17.4489 18.6684 17.3698 18.863C17.2908 19.0575 17.1588 19.226 16.989 19.3494C16.8191 19.4729 16.6181 19.5463 16.4086 19.5614C16.1992 19.5765 15.9897 19.5327 15.8039 19.435L12.0014 17.435L8.19888 19.435C8.01305 19.5327 7.80356 19.5765 7.59412 19.5614C7.38469 19.5463 7.18366 19.4729 7.01379 19.3494C6.84393 19.226 6.71199 19.0575 6.63292 18.863C6.55385 18.6684 6.5308 18.4557 6.56638 18.2487L7.29138 14.015L4.21638 11.015C4.06647 10.8684 3.96051 10.6828 3.91045 10.4792C3.8604 10.2756 3.86825 10.062 3.93311 9.86263C3.99797 9.66323 4.11726 9.48593 4.27753 9.35073C4.4378 9.21554 4.63266 9.12782 4.84013 9.09747L9.09013 8.47872L10.9926 4.62622ZM12.0001 5.40747L10.1826 9.09122C10.1019 9.25461 9.98275 9.39594 9.83534 9.50307C9.68793 9.6102 9.5167 9.67991 9.33638 9.70622L5.27013 10.2975L8.21263 13.165C8.34313 13.2924 8.44068 13.4497 8.49686 13.6233C8.55304 13.7968 8.56618 13.9815 8.53513 14.1612L7.84138 18.2112L11.4789 16.2987C11.6402 16.214 11.8198 16.1697 12.002 16.1697C12.1843 16.1697 12.3638 16.214 12.5251 16.2987L16.1626 18.2112L15.4676 14.1612C15.4366 13.9815 15.4497 13.7968 15.5059 13.6233C15.5621 13.4497 15.6596 13.2924 15.7901 13.165L18.7326 10.2975L14.6664 9.70622C14.4861 9.67991 14.3148 9.6102 14.1674 9.50307C14.02 9.39594 13.9008 9.25461 13.8201 9.09122L12.0001 5.40747Z" fill="#454561"/>
</svg>
