<svg width="24" height="24" viewBox="0 0 24 24" fill="none" xmlns="http://www.w3.org/2000/svg">
<path d="M12 4.5C12.6181 4.5 13.2223 4.68328 13.7362 5.02666C14.2501 5.37004 14.6506 5.8581 14.8871 6.42911C15.1236 7.00013 15.1855 7.62847 15.065 8.23466C14.9444 8.84085 14.6467 9.39767 14.2097 9.83471C13.7727 10.2717 13.2158 10.5694 12.6097 10.69C12.0035 10.8105 11.3751 10.7486 10.8041 10.5121C10.2331 10.2756 9.74504 9.87506 9.40166 9.36116C9.05828 8.84725 8.875 8.24307 8.875 7.625C8.875 6.7962 9.20424 6.00134 9.79029 5.41529C10.3763 4.82924 11.1712 4.5 12 4.5ZM12 3.25C11.1347 3.25 10.2888 3.50659 9.56938 3.98732C8.84992 4.46805 8.28916 5.15133 7.95803 5.95076C7.62689 6.75019 7.54025 7.62985 7.70906 8.47852C7.87787 9.32719 8.29455 10.1067 8.90641 10.7186C9.51826 11.3304 10.2978 11.7471 11.1465 11.9159C11.9951 12.0847 12.8748 11.9981 13.6742 11.667C14.4737 11.3358 15.1569 10.7751 15.6377 10.0556C16.1184 9.33615 16.375 8.49029 16.375 7.625C16.375 6.46468 15.9141 5.35188 15.0936 4.53141C14.2731 3.71094 13.1603 3.25 12 3.25ZM18.25 20.75H17V17.625C17 17.2146 16.9192 16.8083 16.7621 16.4291C16.6051 16.05 16.3749 15.7055 16.0847 15.4153C15.7945 15.1251 15.45 14.8949 15.0709 14.7379C14.6917 14.5808 14.2854 14.5 13.875 14.5H10.125C9.2962 14.5 8.50134 14.8292 7.91529 15.4153C7.32924 16.0013 7 16.7962 7 17.625V20.75H5.75V17.625C5.75 16.4647 6.21094 15.3519 7.03141 14.5314C7.85188 13.7109 8.96468 13.25 10.125 13.25H13.875C15.0353 13.25 16.1481 13.7109 16.9686 14.5314C17.7891 15.3519 18.25 16.4647 18.25 17.625V20.75Z" fill="#454561"/>
</svg>
