<svg width="32" height="32" viewBox="0 0 32 32" fill="none" xmlns="http://www.w3.org/2000/svg">
<path d="M28.374 24.9813C27.7003 23.3854 26.7226 21.9359 25.4954 20.7134C24.2719 19.4874 22.8227 18.5098 21.2275 17.8348C21.2133 17.8277 21.199 17.8241 21.1847 17.817C23.4097 16.2098 24.8561 13.592 24.8561 10.6384C24.8561 5.74554 20.8918 1.78125 15.999 1.78125C11.1061 1.78125 7.14183 5.74554 7.14183 10.6384C7.14183 13.592 8.58826 16.2098 10.8133 17.8205C10.799 17.8277 10.7847 17.8313 10.7704 17.8384C9.1704 18.5134 7.73469 19.4813 6.50254 20.717C5.27651 21.9404 4.29899 23.3897 3.62397 24.9848C2.96084 26.5464 2.60319 28.2207 2.5704 29.917C2.56945 29.9551 2.57613 29.993 2.59007 30.0285C2.604 30.064 2.62489 30.0963 2.65152 30.1236C2.67814 30.1509 2.70996 30.1726 2.7451 30.1874C2.78024 30.2022 2.81799 30.2098 2.85612 30.2098H4.99897C5.15612 30.2098 5.28112 30.0848 5.28469 29.9313C5.35612 27.1741 6.46326 24.592 8.4204 22.6348C10.4454 20.6098 13.1347 19.4955 15.999 19.4955C18.8633 19.4955 21.5525 20.6098 23.5775 22.6348C25.5347 24.592 26.6418 27.1741 26.7133 29.9313C26.7168 30.0884 26.8418 30.2098 26.999 30.2098H29.1418C29.18 30.2098 29.2177 30.2022 29.2528 30.1874C29.288 30.1726 29.3198 30.1509 29.3464 30.1236C29.3731 30.0963 29.3939 30.064 29.4079 30.0285C29.4218 29.993 29.4285 29.9551 29.4275 29.917C29.3918 28.2098 29.0383 26.5491 28.374 24.9813V24.9813ZM15.999 16.7813C14.3597 16.7813 12.8168 16.142 11.6561 14.9813C10.4954 13.8205 9.85612 12.2777 9.85612 10.6384C9.85612 8.99911 10.4954 7.45625 11.6561 6.29554C12.8168 5.13482 14.3597 4.49554 15.999 4.49554C17.6383 4.49554 19.1811 5.13482 20.3418 6.29554C21.5025 7.45625 22.1418 8.99911 22.1418 10.6384C22.1418 12.2777 21.5025 13.8205 20.3418 14.9813C19.1811 16.142 17.6383 16.7813 15.999 16.7813Z" fill="#7777D4"/>
</svg>
